M48
;DRILL file {KiCad 4.0.7} date 03/26/19 15:31:21
;FORMAT={-:-/ absolute / inch / decimal}
FMAT,2
INCH,TZ
T1C0.030
T2C0.031
T3C0.039
T4C0.047
T5C0.052
%
G90
G05
M72
T1
X4.04Y-2.78
X4.15Y-3.69
X4.45Y-2.78
X5.02Y-2.2
X5.52Y-3.69
X5.92Y-2.2
X6.74Y-3.95
X6.74Y-4.2
T2
X3.92Y-2.91
X3.92Y-3.01
X3.92Y-3.11
X3.92Y-3.21
X4.32Y-2.91
X4.32Y-3.01
X4.32Y-3.11
X4.32Y-3.21
X5.555Y-2.885
X5.555Y-2.985
X5.555Y-3.085
X5.555Y-3.185
X5.955Y-2.885
X5.955Y-2.985
X5.955Y-3.085
X5.955Y-3.185
T3
X3.82Y-2.63
X3.82Y-3.53
X3.92Y-2.63
X3.92Y-3.53
X4.02Y-2.63
X4.02Y-3.53
X4.12Y-2.63
X4.12Y-3.53
X4.22Y-2.63
X4.22Y-3.53
X4.32Y-2.63
X4.32Y-3.53
X4.42Y-2.63
X4.42Y-3.53
X4.52Y-2.63
X4.52Y-3.53
X4.62Y-2.63
X4.62Y-3.53
X4.72Y-2.63
X4.72Y-3.53
X4.82Y-2.63
X4.82Y-3.53
X4.92Y-2.32
X4.92Y-2.63
X4.92Y-3.53
X5.02Y-2.05
X5.02Y-2.32
X5.02Y-2.63
X5.02Y-3.53
X5.12Y-2.05
X5.12Y-2.32
X5.12Y-2.63
X5.12Y-3.53
X5.22Y-2.05
X5.22Y-2.32
X5.22Y-2.63
X5.22Y-3.53
X5.32Y-2.32
X5.32Y-2.63
X5.32Y-3.53
X5.42Y-2.32
X5.42Y-2.63
X5.42Y-3.53
X5.52Y-2.32
X5.52Y-2.63
X5.52Y-3.53
X5.62Y-2.32
X5.62Y-2.63
X5.62Y-3.53
X5.62Y-3.95
X5.72Y-2.32
X5.72Y-2.63
X5.72Y-3.53
X5.72Y-3.95
X5.82Y-2.32
X5.82Y-2.63
X5.82Y-3.53
X5.82Y-3.95
X5.92Y-2.32
X5.92Y-2.63
X5.92Y-3.53
X5.92Y-3.95
X6.02Y-2.32
X6.02Y-2.63
X6.02Y-3.53
X6.02Y-3.95
X6.12Y-2.63
X6.12Y-3.53
X6.12Y-3.95
X6.22Y-2.63
X6.22Y-3.53
X6.22Y-3.95
X6.32Y-2.63
X6.32Y-3.53
X6.32Y-3.95
X6.42Y-2.63
X6.42Y-3.53
X6.42Y-3.95
X6.52Y-3.95
X6.93Y-3.62
X6.93Y-3.72
X7.11Y-3.62
X7.11Y-3.72
X7.29Y-3.62
X7.29Y-3.72
T4
X3.71Y-1.99
X3.71Y-4.17
X7.45Y-1.98
X7.46Y-4.17
T5
X4.2731Y-2.13
X4.47Y-2.13
X7.23Y-3.04
X7.23Y-3.2369
X7.24Y-2.5
X7.24Y-2.6969
T0
M30
