G04 #@! TF.FileFunction,Copper,L2,Bot*
%FSLAX46Y46*%
G04 Gerber Fmt 4.6, Leading zero omitted, Abs format (unit mm)*
G04 Created by KiCad (PCBNEW 4.0.7) date 03/26/19 15:30:54*
%MOMM*%
%LPD*%
G01*
G04 APERTURE LIST*
%ADD10C,0.100000*%
%ADD11C,0.300000*%
%ADD12R,2.400000X1.600000*%
%ADD13O,2.400000X1.600000*%
%ADD14R,3.960000X1.980000*%
%ADD15O,3.960000X1.980000*%
%ADD16R,1.700000X2.000000*%
%ADD17R,1.980000X3.960000*%
%ADD18O,1.980000X3.960000*%
%ADD19R,1.700000X1.700000*%
%ADD20O,1.700000X1.700000*%
%ADD21R,1.600000X2.000000*%
%ADD22R,2.000000X1.600000*%
%ADD23R,2.000000X1.700000*%
%ADD24C,1.700000*%
%ADD25R,4.048000X7.112000*%
%ADD26C,3.500120*%
%ADD27C,1.500000*%
%ADD28C,0.350000*%
%ADD29C,0.500000*%
%ADD30C,3.000000*%
%ADD31C,0.254000*%
G04 APERTURE END LIST*
D10*
D11*
X173331143Y-93468000D02*
X172616857Y-93468000D01*
X173474000Y-93896571D02*
X172974000Y-92396571D01*
X172474000Y-93896571D01*
X188714000Y-92650571D02*
X188214000Y-94150571D01*
X187714000Y-92650571D01*
X132840856Y-101262571D02*
X132840856Y-99762571D01*
X132340856Y-100834000D01*
X131840856Y-99762571D01*
X131840856Y-101262571D01*
X130483713Y-100262571D02*
X130483713Y-101262571D01*
X131126570Y-100262571D02*
X131126570Y-101048286D01*
X131055142Y-101191143D01*
X130912284Y-101262571D01*
X130697999Y-101262571D01*
X130555142Y-101191143D01*
X130483713Y-101119714D01*
X129555141Y-101262571D02*
X129697999Y-101191143D01*
X129769427Y-101048286D01*
X129769427Y-99762571D01*
X129197999Y-100262571D02*
X128626570Y-100262571D01*
X128983713Y-99762571D02*
X128983713Y-101048286D01*
X128912285Y-101191143D01*
X128769427Y-101262571D01*
X128626570Y-101262571D01*
X128126570Y-101262571D02*
X128126570Y-100262571D01*
X128126570Y-99762571D02*
X128197999Y-99834000D01*
X128126570Y-99905429D01*
X128055142Y-99834000D01*
X128126570Y-99762571D01*
X128126570Y-99905429D01*
X127412284Y-101262571D02*
X127412284Y-100262571D01*
X127412284Y-100405429D02*
X127340856Y-100334000D01*
X127197998Y-100262571D01*
X126983713Y-100262571D01*
X126840856Y-100334000D01*
X126769427Y-100476857D01*
X126769427Y-101262571D01*
X126769427Y-100476857D02*
X126697998Y-100334000D01*
X126555141Y-100262571D01*
X126340856Y-100262571D01*
X126197998Y-100334000D01*
X126126570Y-100476857D01*
X126126570Y-101262571D01*
X124840856Y-101191143D02*
X124983713Y-101262571D01*
X125269427Y-101262571D01*
X125412284Y-101191143D01*
X125483713Y-101048286D01*
X125483713Y-100476857D01*
X125412284Y-100334000D01*
X125269427Y-100262571D01*
X124983713Y-100262571D01*
X124840856Y-100334000D01*
X124769427Y-100476857D01*
X124769427Y-100619714D01*
X125483713Y-100762571D01*
X124340856Y-100262571D02*
X123769427Y-100262571D01*
X124126570Y-99762571D02*
X124126570Y-101048286D01*
X124055142Y-101191143D01*
X123912284Y-101262571D01*
X123769427Y-101262571D01*
X123269427Y-101262571D02*
X123269427Y-100262571D01*
X123269427Y-100548286D02*
X123197999Y-100405429D01*
X123126570Y-100334000D01*
X122983713Y-100262571D01*
X122840856Y-100262571D01*
X122126570Y-101262571D02*
X122269428Y-101191143D01*
X122340856Y-101119714D01*
X122412285Y-100976857D01*
X122412285Y-100548286D01*
X122340856Y-100405429D01*
X122269428Y-100334000D01*
X122126570Y-100262571D01*
X121912285Y-100262571D01*
X121769428Y-100334000D01*
X121697999Y-100405429D01*
X121626570Y-100548286D01*
X121626570Y-100976857D01*
X121697999Y-101119714D01*
X121769428Y-101191143D01*
X121912285Y-101262571D01*
X122126570Y-101262571D01*
X120055142Y-99762571D02*
X119555142Y-101262571D01*
X119055142Y-99762571D01*
X116626571Y-101262571D02*
X117483714Y-101262571D01*
X117055142Y-101262571D02*
X117055142Y-99762571D01*
X117197999Y-99976857D01*
X117340857Y-100119714D01*
X117483714Y-100191143D01*
X115983714Y-101119714D02*
X115912286Y-101191143D01*
X115983714Y-101262571D01*
X116055143Y-101191143D01*
X115983714Y-101119714D01*
X115983714Y-101262571D01*
X114983714Y-99762571D02*
X114840857Y-99762571D01*
X114698000Y-99834000D01*
X114626571Y-99905429D01*
X114555142Y-100048286D01*
X114483714Y-100334000D01*
X114483714Y-100691143D01*
X114555142Y-100976857D01*
X114626571Y-101119714D01*
X114698000Y-101191143D01*
X114840857Y-101262571D01*
X114983714Y-101262571D01*
X115126571Y-101191143D01*
X115198000Y-101119714D01*
X115269428Y-100976857D01*
X115340857Y-100691143D01*
X115340857Y-100334000D01*
X115269428Y-100048286D01*
X115198000Y-99905429D01*
X115126571Y-99834000D01*
X114983714Y-99762571D01*
D12*
X151257000Y-80899000D03*
D13*
X141097000Y-73279000D03*
X151257000Y-78359000D03*
X141097000Y-75819000D03*
X151257000Y-75819000D03*
X141097000Y-78359000D03*
X151257000Y-73279000D03*
X141097000Y-80899000D03*
D14*
X183642000Y-77216000D03*
D15*
X183642000Y-82216000D03*
D14*
X183896000Y-63500000D03*
D15*
X183896000Y-68500000D03*
D16*
X183388000Y-100616000D03*
X183388000Y-104616000D03*
D12*
X99568000Y-73914000D03*
D13*
X109728000Y-81534000D03*
X99568000Y-76454000D03*
X109728000Y-78994000D03*
X99568000Y-78994000D03*
X109728000Y-76454000D03*
X99568000Y-81534000D03*
X109728000Y-73914000D03*
D17*
X113538000Y-54102000D03*
D18*
X108538000Y-54102000D03*
D19*
X97028000Y-66802000D03*
D20*
X99568000Y-66802000D03*
X102108000Y-66802000D03*
X104648000Y-66802000D03*
X107188000Y-66802000D03*
X109728000Y-66802000D03*
X112268000Y-66802000D03*
X114808000Y-66802000D03*
X117348000Y-66802000D03*
X119888000Y-66802000D03*
X122428000Y-66802000D03*
X124968000Y-66802000D03*
X127508000Y-66802000D03*
X130048000Y-66802000D03*
X132588000Y-66802000D03*
X135128000Y-66802000D03*
X137668000Y-66802000D03*
X140208000Y-66802000D03*
X142748000Y-66802000D03*
X145288000Y-66802000D03*
X147828000Y-66802000D03*
X150368000Y-66802000D03*
X152908000Y-66802000D03*
X155448000Y-66802000D03*
X157988000Y-66802000D03*
X160528000Y-66802000D03*
X163068000Y-66802000D03*
D21*
X146177000Y-79089000D03*
X146177000Y-75089000D03*
D22*
X119602000Y-76454000D03*
X115602000Y-76454000D03*
D21*
X120396000Y-81058000D03*
X120396000Y-85058000D03*
X115570000Y-80804000D03*
X115570000Y-84804000D03*
D22*
X164878000Y-80010000D03*
X168878000Y-80010000D03*
X128238000Y-62484000D03*
X124238000Y-62484000D03*
D21*
X104394000Y-75216000D03*
X104394000Y-79216000D03*
D22*
X96806000Y-93726000D03*
X100806000Y-93726000D03*
X150590000Y-93726000D03*
X146590000Y-93726000D03*
D19*
X124968000Y-58928000D03*
D20*
X127508000Y-58928000D03*
X130048000Y-58928000D03*
X132588000Y-58928000D03*
X135128000Y-58928000D03*
X137668000Y-58928000D03*
X140208000Y-58928000D03*
X142748000Y-58928000D03*
X145288000Y-58928000D03*
X147828000Y-58928000D03*
X150368000Y-58928000D03*
X152908000Y-58928000D03*
D19*
X142748000Y-100330000D03*
D20*
X145288000Y-100330000D03*
X147828000Y-100330000D03*
X150368000Y-100330000D03*
X152908000Y-100330000D03*
X155448000Y-100330000D03*
X157988000Y-100330000D03*
X160528000Y-100330000D03*
X163068000Y-100330000D03*
X165608000Y-100330000D03*
D19*
X97028000Y-89662000D03*
D20*
X99568000Y-89662000D03*
X102108000Y-89662000D03*
X104648000Y-89662000D03*
X107188000Y-89662000D03*
X109728000Y-89662000D03*
X112268000Y-89662000D03*
X114808000Y-89662000D03*
X117348000Y-89662000D03*
X119888000Y-89662000D03*
X122428000Y-89662000D03*
X124968000Y-89662000D03*
X127508000Y-89662000D03*
X130048000Y-89662000D03*
X132588000Y-89662000D03*
X135128000Y-89662000D03*
X137668000Y-89662000D03*
X140208000Y-89662000D03*
X142748000Y-89662000D03*
X145288000Y-89662000D03*
X147828000Y-89662000D03*
X150368000Y-89662000D03*
X152908000Y-89662000D03*
X155448000Y-89662000D03*
X157988000Y-89662000D03*
X160528000Y-89662000D03*
X163068000Y-89662000D03*
D23*
X168878000Y-76454000D03*
X164878000Y-76454000D03*
X160750000Y-72898000D03*
X156750000Y-72898000D03*
X160750000Y-76454000D03*
X156750000Y-76454000D03*
X136112000Y-73152000D03*
X132112000Y-73152000D03*
X126968000Y-76454000D03*
X122968000Y-76454000D03*
X122968000Y-73406000D03*
X126968000Y-73406000D03*
X137128000Y-82550000D03*
X133128000Y-82550000D03*
X115602000Y-73406000D03*
X119602000Y-73406000D03*
X124238000Y-82550000D03*
X128238000Y-82550000D03*
X160750000Y-80010000D03*
X156750000Y-80010000D03*
X110966000Y-85090000D03*
X106966000Y-85090000D03*
X103092000Y-85090000D03*
X99092000Y-85090000D03*
X150590000Y-96774000D03*
X146590000Y-96774000D03*
D24*
X132588000Y-52070000D03*
X130048000Y-52070000D03*
X127508000Y-52070000D03*
D19*
X176022000Y-91948000D03*
D20*
X176022000Y-94488000D03*
D19*
X185166000Y-91948000D03*
D20*
X185166000Y-94488000D03*
D19*
X180594000Y-91948000D03*
D20*
X180594000Y-94488000D03*
D25*
X174752000Y-53594000D03*
X165100000Y-53594000D03*
D26*
X94234000Y-50546000D03*
X94234000Y-105918000D03*
X189484000Y-105918000D03*
X189230000Y-50292000D03*
D27*
X105410000Y-93726000D03*
X140208000Y-93726000D03*
X171196000Y-100330000D03*
X171196000Y-106680000D03*
X127508000Y-55880000D03*
X150368000Y-55880000D03*
X102616000Y-70612000D03*
X113030000Y-70612000D03*
D28*
X122968000Y-76454000D02*
X119602000Y-76454000D01*
X183896000Y-68500000D02*
X183896000Y-69282700D01*
X97028000Y-93504000D02*
X96806000Y-93726000D01*
X183642000Y-82216000D02*
X183642000Y-81433400D01*
X165100000Y-53594000D02*
X163800400Y-53594000D01*
X115570000Y-84804000D02*
X116257700Y-84804000D01*
X99568000Y-81534000D02*
X99790000Y-81534000D01*
X100838000Y-87376000D02*
X110236000Y-87376000D01*
X100076000Y-87376000D02*
X100838000Y-87376000D01*
X99568000Y-89662000D02*
X99568000Y-87884000D01*
X99568000Y-87884000D02*
X100076000Y-87376000D01*
X101092000Y-96774000D02*
X103124000Y-96774000D01*
X103378000Y-96520000D02*
X103378000Y-94234000D01*
X103124000Y-96774000D02*
X103378000Y-96520000D01*
X142748000Y-104140000D02*
X142748000Y-105156000D01*
X143256000Y-105664000D02*
X144272000Y-105664000D01*
X142748000Y-105156000D02*
X143256000Y-105664000D01*
X142748000Y-93726000D02*
X140208000Y-93726000D01*
X171196000Y-105664000D02*
X171196000Y-106680000D01*
X166878000Y-100076000D02*
X170942000Y-100076000D01*
X170942000Y-100076000D02*
X171196000Y-100330000D01*
X150368000Y-55880000D02*
X150368000Y-58928000D01*
X142748000Y-104140000D02*
X142748000Y-100330000D01*
X171196000Y-105664000D02*
X144272000Y-105664000D01*
X182880000Y-105124000D02*
X183388000Y-104616000D01*
X103378000Y-94234000D02*
X103378000Y-93726000D01*
X100076000Y-96774000D02*
X101092000Y-96774000D01*
X141097000Y-83439000D02*
X141097000Y-80899000D01*
X141478000Y-83820000D02*
X141097000Y-83439000D01*
X175514000Y-83820000D02*
X141478000Y-83820000D01*
X182880000Y-91186000D02*
X175514000Y-83820000D01*
X182880000Y-100108000D02*
X182880000Y-91186000D01*
X183388000Y-100616000D02*
X182880000Y-100108000D01*
X110966000Y-85090000D02*
X110966000Y-84360000D01*
X113538000Y-52324000D02*
X113538000Y-54102000D01*
X104902000Y-73914000D02*
X109728000Y-73914000D01*
X104394000Y-74422000D02*
X104902000Y-73914000D01*
X104394000Y-75216000D02*
X104394000Y-74422000D01*
X100806000Y-96044000D02*
X100076000Y-96774000D01*
X100806000Y-93726000D02*
X100806000Y-96044000D01*
X99568000Y-90170000D02*
X99568000Y-89662000D01*
X100806000Y-91408000D02*
X99568000Y-90170000D01*
X100806000Y-93726000D02*
X100806000Y-91408000D01*
X143256000Y-96774000D02*
X146590000Y-96774000D01*
X142748000Y-97282000D02*
X143256000Y-96774000D01*
X146590000Y-93726000D02*
X146590000Y-96774000D01*
X128238000Y-59658000D02*
X127508000Y-58928000D01*
X128238000Y-62484000D02*
X128238000Y-59658000D01*
X142748000Y-97790000D02*
X142748000Y-97282000D01*
X142748000Y-97282000D02*
X142748000Y-93726000D01*
X142748000Y-100330000D02*
X142748000Y-97790000D01*
X142748000Y-97790000D02*
X142748000Y-97282000D01*
X127508000Y-58928000D02*
X127508000Y-55880000D01*
X99822000Y-96774000D02*
X100076000Y-96774000D01*
X100076000Y-96774000D02*
X99822000Y-96774000D01*
X113538000Y-52324000D02*
X113538000Y-54102000D01*
X146590000Y-93726000D02*
X142748000Y-93726000D01*
X105410000Y-93726000D02*
X103378000Y-93726000D01*
X103378000Y-93726000D02*
X100806000Y-93726000D01*
X182340000Y-105664000D02*
X182880000Y-105124000D01*
X171196000Y-105664000D02*
X182340000Y-105664000D01*
X182880000Y-105124000D02*
X183388000Y-104616000D01*
X110236000Y-87376000D02*
X110597600Y-87014400D01*
X110966000Y-86646000D02*
X110966000Y-85090000D01*
X110597600Y-87014400D02*
X110966000Y-86646000D01*
X165608000Y-100330000D02*
X166878000Y-100330000D01*
X127000000Y-51816000D02*
X127508000Y-52070000D01*
X127508000Y-52324000D02*
X127000000Y-51816000D01*
X127508000Y-55880000D02*
X127508000Y-52324000D01*
X111347900Y-87764700D02*
X110597600Y-87014400D01*
X163199800Y-87764700D02*
X111347900Y-87764700D01*
X166878000Y-91442900D02*
X163199800Y-87764700D01*
X166878000Y-100330000D02*
X166878000Y-100076000D01*
X166878000Y-100076000D02*
X166878000Y-91442900D01*
X112268000Y-83788000D02*
X110966000Y-85090000D01*
X112268000Y-74676000D02*
X112268000Y-83788000D01*
X111506000Y-73914000D02*
X112268000Y-74676000D01*
X109728000Y-73914000D02*
X111506000Y-73914000D01*
X112014000Y-49530000D02*
X113538000Y-51054000D01*
X103886000Y-49530000D02*
X112014000Y-49530000D01*
X93472000Y-59944000D02*
X103886000Y-49530000D01*
X93472000Y-96012000D02*
X93472000Y-59944000D01*
X94234000Y-96774000D02*
X93472000Y-96012000D01*
X99822000Y-96774000D02*
X94234000Y-96774000D01*
X113538000Y-51054000D02*
X113538000Y-52324000D01*
X145923000Y-80899000D02*
X141097000Y-80899000D01*
X146177000Y-80645000D02*
X145923000Y-80899000D01*
X146177000Y-79089000D02*
X146177000Y-80645000D01*
X113538000Y-62484000D02*
X113538000Y-54102000D01*
X115570000Y-64516000D02*
X113538000Y-62484000D01*
X127952000Y-64516000D02*
X115570000Y-64516000D01*
X128238000Y-64230000D02*
X127952000Y-64516000D01*
X128238000Y-62484000D02*
X128238000Y-64230000D01*
X125730000Y-78994000D02*
X120904000Y-78994000D01*
X175260000Y-85090000D02*
X126492000Y-85090000D01*
X126492000Y-85090000D02*
X126238000Y-84836000D01*
X126238000Y-84836000D02*
X126238000Y-79502000D01*
X126238000Y-79502000D02*
X125730000Y-78994000D01*
X180594000Y-90424000D02*
X175260000Y-85090000D01*
X180594000Y-91948000D02*
X180594000Y-90424000D01*
X120396000Y-79502000D02*
X120904000Y-78994000D01*
X120396000Y-81058000D02*
X120396000Y-79502000D01*
X116586000Y-78994000D02*
X120904000Y-78994000D01*
X115602000Y-78010000D02*
X116586000Y-78994000D01*
X115602000Y-76994000D02*
X115602000Y-78010000D01*
X115602000Y-76454000D02*
X115602000Y-76994000D01*
X115602000Y-73406000D02*
X115602000Y-76454000D01*
X115602000Y-76454000D02*
X115602000Y-76994000D01*
X118078000Y-81502000D02*
X118078000Y-84550000D01*
X118586000Y-85058000D02*
X120396000Y-85058000D01*
X118078000Y-84550000D02*
X118586000Y-85058000D01*
X117348000Y-80804000D02*
X117380000Y-80804000D01*
X117380000Y-80804000D02*
X118078000Y-81502000D01*
X117380000Y-80804000D02*
X118078000Y-81502000D01*
X124238000Y-83788000D02*
X124238000Y-82550000D01*
X122968000Y-85058000D02*
X124238000Y-83788000D01*
X120396000Y-85058000D02*
X122968000Y-85058000D01*
X115570000Y-80804000D02*
X117348000Y-80804000D01*
X124238000Y-82550000D02*
X123984000Y-82582000D01*
X124365000Y-82677000D02*
X124238000Y-82550000D01*
X124206000Y-82582000D02*
X124238000Y-82550000D01*
X124111000Y-82423000D02*
X124238000Y-82550000D01*
X124079000Y-82709000D02*
X124206000Y-82582000D01*
X124206000Y-82582000D02*
X124238000Y-82550000D01*
X124460000Y-82772000D02*
X124365000Y-82677000D01*
X124365000Y-82677000D02*
X124238000Y-82550000D01*
X124238000Y-82550000D02*
X124238000Y-83788000D01*
X175768000Y-91694000D02*
X176022000Y-91948000D01*
X175768000Y-86868000D02*
X175768000Y-91694000D01*
X174752000Y-85852000D02*
X175768000Y-86868000D01*
X125476000Y-85852000D02*
X174752000Y-85852000D01*
X124238000Y-84614000D02*
X125476000Y-85852000D01*
X124238000Y-83788000D02*
X124238000Y-84614000D01*
X185166000Y-90170000D02*
X185166000Y-91948000D01*
X177546000Y-82550000D02*
X185166000Y-90170000D01*
X165862000Y-82550000D02*
X177546000Y-82550000D01*
X164878000Y-81566000D02*
X165862000Y-82550000D01*
X164878000Y-80296000D02*
X164878000Y-81566000D01*
X164878000Y-80296000D02*
X164878000Y-80010000D01*
X160750000Y-80010000D02*
X164878000Y-80010000D01*
X164878000Y-80010000D02*
X164878000Y-80296000D01*
D29*
X172466000Y-53594000D02*
X174752000Y-53594000D01*
X171704000Y-54356000D02*
X172466000Y-53594000D01*
X171704000Y-69088000D02*
X171704000Y-54356000D01*
X170688000Y-70104000D02*
X171704000Y-69088000D01*
X132588000Y-70104000D02*
X170688000Y-70104000D01*
X132112000Y-70580000D02*
X132588000Y-70104000D01*
X132112000Y-72866000D02*
X132112000Y-70580000D01*
D30*
X175133000Y-54610000D02*
X174879000Y-54356000D01*
D28*
X132112000Y-73152000D02*
X132112000Y-72866000D01*
D29*
X132112000Y-73152000D02*
X132112000Y-72866000D01*
D30*
X174879000Y-53721000D02*
X174752000Y-53594000D01*
X174879000Y-54356000D02*
X174879000Y-53721000D01*
X174879000Y-60071000D02*
X174879000Y-54356000D01*
X174879000Y-54356000D02*
X174879000Y-60071000D01*
X174879000Y-60071000D02*
X178308000Y-63500000D01*
X183896000Y-63500000D02*
X178308000Y-63500000D01*
X178308000Y-63500000D02*
X174879000Y-60071000D01*
D28*
X160750000Y-75470000D02*
X160750000Y-76232000D01*
X161544000Y-74676000D02*
X160750000Y-75470000D01*
X168878000Y-74676000D02*
X161544000Y-74676000D01*
X160750000Y-76454000D02*
X161544000Y-76454000D01*
X183642000Y-75692000D02*
X183642000Y-76454000D01*
X182626000Y-74676000D02*
X183642000Y-75692000D01*
X168910000Y-74676000D02*
X182626000Y-74676000D01*
X160750000Y-76454000D02*
X160750000Y-76232000D01*
X183642000Y-76454000D02*
X183642000Y-77216000D01*
X183642000Y-76454000D02*
X183642000Y-77216000D01*
X160750000Y-76232000D02*
X160750000Y-76454000D01*
X168910000Y-74676000D02*
X168878000Y-74676000D01*
X168878000Y-76454000D02*
X168878000Y-74676000D01*
X168878000Y-74676000D02*
X168910000Y-74676000D01*
X130048000Y-58928000D02*
X130048000Y-52070000D01*
X135128000Y-66548000D02*
X135128000Y-66802000D01*
X132588000Y-64262000D02*
X135128000Y-66802000D01*
X132588000Y-58928000D02*
X132588000Y-64262000D01*
X137668000Y-58928000D02*
X137668000Y-66802000D01*
X140208000Y-58928000D02*
X140208000Y-66802000D01*
X142748000Y-58928000D02*
X142748000Y-66802000D01*
X145288000Y-58928000D02*
X145288000Y-66802000D01*
X147828000Y-58928000D02*
X147828000Y-66802000D01*
X180086000Y-104648000D02*
X181102000Y-104648000D01*
X181610000Y-104140000D02*
X181610000Y-103124000D01*
X181102000Y-104648000D02*
X181610000Y-104140000D01*
X179832000Y-104648000D02*
X180086000Y-104648000D01*
X181610000Y-103124000D02*
X181610000Y-103378000D01*
X181610000Y-103124000D02*
X181864000Y-102870000D01*
X181864000Y-102870000D02*
X182118000Y-102616000D01*
X145288000Y-102616000D02*
X145288000Y-104140000D01*
X145796000Y-104648000D02*
X147574000Y-104648000D01*
X145288000Y-104140000D02*
X145796000Y-104648000D01*
X147574000Y-104648000D02*
X179832000Y-104648000D01*
X145288000Y-100330000D02*
X145288000Y-102616000D01*
X185166000Y-102362000D02*
X185166000Y-94488000D01*
X184912000Y-102616000D02*
X185166000Y-102362000D01*
X182118000Y-102616000D02*
X184912000Y-102616000D01*
X178816000Y-103886000D02*
X179578000Y-103886000D01*
X180594000Y-102870000D02*
X180594000Y-102108000D01*
X179578000Y-103886000D02*
X180594000Y-102870000D01*
X178308000Y-103886000D02*
X178816000Y-103886000D01*
X180594000Y-102108000D02*
X180594000Y-101092000D01*
X147828000Y-102616000D02*
X147828000Y-103378000D01*
X148336000Y-103886000D02*
X149098000Y-103886000D01*
X147828000Y-103378000D02*
X148336000Y-103886000D01*
X149098000Y-103886000D02*
X176530000Y-103886000D01*
X180594000Y-101092000D02*
X180594000Y-100076000D01*
X176784000Y-103886000D02*
X178308000Y-103886000D01*
X180594000Y-99568000D02*
X180594000Y-100076000D01*
X180594000Y-94488000D02*
X180594000Y-99568000D01*
X176530000Y-103886000D02*
X176784000Y-103886000D01*
X147828000Y-100330000D02*
X147828000Y-102616000D01*
X176530000Y-103886000D02*
X176784000Y-103886000D01*
X180594000Y-100076000D02*
X180594000Y-99568000D01*
X174244000Y-103007000D02*
X175377000Y-103007000D01*
X176022000Y-102362000D02*
X176022000Y-100838000D01*
X175377000Y-103007000D02*
X176022000Y-102362000D01*
X150368000Y-101854000D02*
X150368000Y-102616000D01*
X150759000Y-103007000D02*
X151521000Y-103007000D01*
X150368000Y-102616000D02*
X150759000Y-103007000D01*
X151521000Y-103007000D02*
X174244000Y-103007000D01*
X176022000Y-100838000D02*
X176022000Y-94488000D01*
X150622000Y-100584000D02*
X150368000Y-100330000D01*
X150368000Y-100330000D02*
X150368000Y-101854000D01*
X151892000Y-96774000D02*
X152654000Y-96774000D01*
X152908000Y-97028000D02*
X152908000Y-97790000D01*
X152654000Y-96774000D02*
X152908000Y-97028000D01*
X151892000Y-96774000D02*
X150590000Y-96774000D01*
X152908000Y-100330000D02*
X152908000Y-97790000D01*
X157988000Y-100330000D02*
X157988000Y-89662000D01*
X160528000Y-100330000D02*
X160528000Y-89662000D01*
X151892000Y-76454000D02*
X151257000Y-75819000D01*
X156750000Y-76454000D02*
X151892000Y-76454000D01*
X160750000Y-73946000D02*
X160750000Y-72898000D01*
X159766000Y-74930000D02*
X160750000Y-73946000D01*
X159258000Y-74930000D02*
X159766000Y-74930000D01*
X159004000Y-75184000D02*
X159258000Y-74930000D01*
X159004000Y-75946000D02*
X159004000Y-75184000D01*
X158496000Y-76454000D02*
X159004000Y-75946000D01*
X156750000Y-76454000D02*
X158496000Y-76454000D01*
X160020000Y-72898000D02*
X160750000Y-72898000D01*
X157099000Y-76803000D02*
X156750000Y-76454000D01*
X164878000Y-76454000D02*
X164846000Y-76454000D01*
X156623000Y-76327000D02*
X156750000Y-76454000D01*
X156750000Y-76454000D02*
X156623000Y-75787000D01*
X156242000Y-75946000D02*
X156623000Y-76327000D01*
X156623000Y-76327000D02*
X156750000Y-76454000D01*
X156115000Y-75819000D02*
X156242000Y-75946000D01*
X156242000Y-75946000D02*
X156623000Y-76327000D01*
X156623000Y-76327000D02*
X156750000Y-76454000D01*
X156750000Y-76454000D02*
X156750000Y-77248000D01*
X156750000Y-76454000D02*
X156750000Y-77248000D01*
X164878000Y-77184000D02*
X164878000Y-76454000D01*
X163830000Y-78232000D02*
X164878000Y-77184000D01*
X156972000Y-78232000D02*
X163830000Y-78232000D01*
X156750000Y-78010000D02*
X156972000Y-78232000D01*
X156750000Y-77248000D02*
X156750000Y-78010000D01*
X140589000Y-73279000D02*
X141097000Y-73279000D01*
X138938000Y-74930000D02*
X140589000Y-73279000D01*
X138938000Y-74942000D02*
X138938000Y-74930000D01*
X138176000Y-75704000D02*
X138938000Y-74942000D01*
X129806000Y-75704000D02*
X138176000Y-75704000D01*
X127508000Y-73406000D02*
X129806000Y-75704000D01*
X140970000Y-73152000D02*
X141097000Y-73279000D01*
X136112000Y-73152000D02*
X140970000Y-73152000D01*
X140716000Y-73660000D02*
X141097000Y-73279000D01*
X126968000Y-73406000D02*
X126968000Y-74136000D01*
X126968000Y-73406000D02*
X127000000Y-73406000D01*
X126968000Y-73406000D02*
X127000000Y-73406000D01*
X127508000Y-73406000D02*
X127000000Y-73406000D01*
X127000000Y-73406000D02*
X126968000Y-73406000D01*
X127000000Y-73406000D02*
X127508000Y-73406000D01*
X127508000Y-73406000D02*
X127762000Y-73406000D01*
X133128000Y-82550000D02*
X133128000Y-82328000D01*
X132715000Y-82137000D02*
X133128000Y-82550000D01*
X126968000Y-76454000D02*
X127762000Y-76454000D01*
X126968000Y-76454000D02*
X127762000Y-76454000D01*
X140462000Y-76454000D02*
X141097000Y-75819000D01*
X133858000Y-76454000D02*
X140462000Y-76454000D01*
X127762000Y-76454000D02*
X132588000Y-76454000D01*
X132588000Y-76454000D02*
X133858000Y-76454000D01*
X132842000Y-82550000D02*
X133128000Y-82550000D01*
X133128000Y-82550000D02*
X133350000Y-82550000D01*
X133128000Y-82074000D02*
X133128000Y-82328000D01*
X133128000Y-82328000D02*
X133128000Y-82550000D01*
X133128000Y-82550000D02*
X133128000Y-82328000D01*
X133128000Y-82328000D02*
X133128000Y-82074000D01*
X133128000Y-77184000D02*
X133858000Y-76454000D01*
X133128000Y-77216000D02*
X133128000Y-77184000D01*
X133128000Y-76994000D02*
X132588000Y-76454000D01*
X133128000Y-77184000D02*
X133128000Y-76994000D01*
X133128000Y-82074000D02*
X133128000Y-77216000D01*
X133128000Y-77216000D02*
X133128000Y-77184000D01*
X119602000Y-71660000D02*
X119602000Y-73406000D01*
X119602000Y-71660000D02*
X118554000Y-70612000D01*
X118554000Y-70612000D02*
X113030000Y-70612000D01*
X99568000Y-73660000D02*
X99568000Y-71882000D01*
X100838000Y-70612000D02*
X102616000Y-70612000D01*
X99568000Y-73914000D02*
X99568000Y-71628000D01*
X100584000Y-70612000D02*
X102616000Y-70612000D01*
X99568000Y-71628000D02*
X100584000Y-70612000D01*
X119602000Y-73406000D02*
X122968000Y-73406000D01*
X122841000Y-73533000D02*
X122968000Y-73406000D01*
X99568000Y-73914000D02*
X99568000Y-73660000D01*
X99568000Y-73914000D02*
X99568000Y-76454000D01*
X99568000Y-73914000D02*
X99568000Y-73660000D01*
X137128000Y-83852000D02*
X137128000Y-82550000D01*
X136640000Y-84340000D02*
X137128000Y-83852000D01*
X128790000Y-84340000D02*
X136640000Y-84340000D01*
X128238000Y-83788000D02*
X128790000Y-84340000D01*
X128238000Y-82550000D02*
X128238000Y-83788000D01*
X137128000Y-82550000D02*
X137128000Y-82074000D01*
X128238000Y-82772000D02*
X128778000Y-82550000D01*
X128238000Y-82550000D02*
X128238000Y-82772000D01*
X128238000Y-82550000D02*
X128524000Y-82550000D01*
X128238000Y-82550000D02*
X128365000Y-82645000D01*
X137128000Y-82550000D02*
X137128000Y-82074000D01*
X137128000Y-82074000D02*
X137128000Y-81820000D01*
X137128000Y-82550000D02*
X137128000Y-82074000D01*
X137128000Y-82074000D02*
X137128000Y-81820000D01*
X138811000Y-78359000D02*
X141097000Y-78359000D01*
X137128000Y-80042000D02*
X138811000Y-78359000D01*
X137128000Y-81820000D02*
X137128000Y-80042000D01*
X155861000Y-80899000D02*
X156750000Y-80010000D01*
X151257000Y-80899000D02*
X155861000Y-80899000D01*
X151257000Y-78359000D02*
X151257000Y-80899000D01*
X107442000Y-84614000D02*
X106966000Y-85090000D01*
X106966000Y-77470000D02*
X106966000Y-85090000D01*
X106712000Y-77216000D02*
X106966000Y-77470000D01*
X103124000Y-77216000D02*
X106712000Y-77216000D01*
X101346000Y-78994000D02*
X103124000Y-77216000D01*
X99568000Y-78994000D02*
X101346000Y-78994000D01*
X106934000Y-85058000D02*
X106966000Y-85090000D01*
X103092000Y-85090000D02*
X106966000Y-85090000D01*
D31*
G36*
X192584000Y-108764000D02*
X90880000Y-108764000D01*
X90880000Y-106390336D01*
X91848527Y-106390336D01*
X92210866Y-107267263D01*
X92881208Y-107938776D01*
X93757501Y-108302645D01*
X94706336Y-108303473D01*
X95583263Y-107941134D01*
X96254776Y-107270792D01*
X96618645Y-106394499D01*
X96619473Y-105445664D01*
X96257134Y-104568737D01*
X95586792Y-103897224D01*
X94710499Y-103533355D01*
X93761664Y-103532527D01*
X92884737Y-103894866D01*
X92213224Y-104565208D01*
X91849355Y-105441501D01*
X91848527Y-106390336D01*
X90880000Y-106390336D01*
X90880000Y-98749000D01*
X113563001Y-98749000D01*
X113563001Y-102569000D01*
X133833000Y-102569000D01*
X133833000Y-98749000D01*
X113563001Y-98749000D01*
X90880000Y-98749000D01*
X90880000Y-59944000D01*
X92662000Y-59944000D01*
X92662000Y-96012000D01*
X92723658Y-96321974D01*
X92818575Y-96464027D01*
X92899244Y-96584756D01*
X93661244Y-97346757D01*
X93924027Y-97522343D01*
X94061897Y-97549766D01*
X94234000Y-97584000D01*
X103124000Y-97584000D01*
X103433974Y-97522342D01*
X103696756Y-97346756D01*
X103950756Y-97092757D01*
X104110288Y-96854000D01*
X104126342Y-96829974D01*
X104188000Y-96520000D01*
X104188000Y-94536000D01*
X104261608Y-94536000D01*
X104624436Y-94899461D01*
X105133298Y-95110759D01*
X105684285Y-95111240D01*
X106193515Y-94900831D01*
X106583461Y-94511564D01*
X106794759Y-94002702D01*
X106795240Y-93451715D01*
X106584831Y-92942485D01*
X106195564Y-92552539D01*
X105686702Y-92341241D01*
X105135715Y-92340760D01*
X104626485Y-92551169D01*
X104261018Y-92916000D01*
X102451558Y-92916000D01*
X102409162Y-92690683D01*
X102270090Y-92474559D01*
X102057890Y-92329569D01*
X101806000Y-92278560D01*
X101616000Y-92278560D01*
X101616000Y-91408000D01*
X101554342Y-91098026D01*
X101523924Y-91052503D01*
X101539715Y-91063054D01*
X102108000Y-91176093D01*
X102676285Y-91063054D01*
X103158054Y-90741147D01*
X103378000Y-90411974D01*
X103597946Y-90741147D01*
X104079715Y-91063054D01*
X104648000Y-91176093D01*
X105216285Y-91063054D01*
X105698054Y-90741147D01*
X105918000Y-90411974D01*
X106137946Y-90741147D01*
X106619715Y-91063054D01*
X107188000Y-91176093D01*
X107756285Y-91063054D01*
X108238054Y-90741147D01*
X108458000Y-90411974D01*
X108677946Y-90741147D01*
X109159715Y-91063054D01*
X109728000Y-91176093D01*
X110296285Y-91063054D01*
X110778054Y-90741147D01*
X110998000Y-90411974D01*
X111217946Y-90741147D01*
X111699715Y-91063054D01*
X112268000Y-91176093D01*
X112836285Y-91063054D01*
X113318054Y-90741147D01*
X113538000Y-90411974D01*
X113757946Y-90741147D01*
X114239715Y-91063054D01*
X114808000Y-91176093D01*
X115376285Y-91063054D01*
X115858054Y-90741147D01*
X116078000Y-90411974D01*
X116297946Y-90741147D01*
X116779715Y-91063054D01*
X117348000Y-91176093D01*
X117916285Y-91063054D01*
X118398054Y-90741147D01*
X118618000Y-90411974D01*
X118837946Y-90741147D01*
X119319715Y-91063054D01*
X119888000Y-91176093D01*
X120456285Y-91063054D01*
X120938054Y-90741147D01*
X121158000Y-90411974D01*
X121377946Y-90741147D01*
X121859715Y-91063054D01*
X122428000Y-91176093D01*
X122996285Y-91063054D01*
X123478054Y-90741147D01*
X123698000Y-90411974D01*
X123917946Y-90741147D01*
X124399715Y-91063054D01*
X124968000Y-91176093D01*
X125536285Y-91063054D01*
X126018054Y-90741147D01*
X126238000Y-90411974D01*
X126457946Y-90741147D01*
X126939715Y-91063054D01*
X127508000Y-91176093D01*
X128076285Y-91063054D01*
X128558054Y-90741147D01*
X128778000Y-90411974D01*
X128997946Y-90741147D01*
X129479715Y-91063054D01*
X130048000Y-91176093D01*
X130616285Y-91063054D01*
X131098054Y-90741147D01*
X131318000Y-90411974D01*
X131537946Y-90741147D01*
X132019715Y-91063054D01*
X132588000Y-91176093D01*
X133156285Y-91063054D01*
X133638054Y-90741147D01*
X133858000Y-90411974D01*
X134077946Y-90741147D01*
X134559715Y-91063054D01*
X135128000Y-91176093D01*
X135696285Y-91063054D01*
X136178054Y-90741147D01*
X136398000Y-90411974D01*
X136617946Y-90741147D01*
X137099715Y-91063054D01*
X137668000Y-91176093D01*
X138236285Y-91063054D01*
X138718054Y-90741147D01*
X138938000Y-90411974D01*
X139157946Y-90741147D01*
X139639715Y-91063054D01*
X140208000Y-91176093D01*
X140776285Y-91063054D01*
X141258054Y-90741147D01*
X141478000Y-90411974D01*
X141697946Y-90741147D01*
X142179715Y-91063054D01*
X142748000Y-91176093D01*
X143316285Y-91063054D01*
X143798054Y-90741147D01*
X144018000Y-90411974D01*
X144237946Y-90741147D01*
X144719715Y-91063054D01*
X145288000Y-91176093D01*
X145856285Y-91063054D01*
X146338054Y-90741147D01*
X146558000Y-90411974D01*
X146777946Y-90741147D01*
X147259715Y-91063054D01*
X147828000Y-91176093D01*
X148396285Y-91063054D01*
X148878054Y-90741147D01*
X149098000Y-90411974D01*
X149317946Y-90741147D01*
X149799715Y-91063054D01*
X150368000Y-91176093D01*
X150936285Y-91063054D01*
X151418054Y-90741147D01*
X151638000Y-90411974D01*
X151857946Y-90741147D01*
X152339715Y-91063054D01*
X152908000Y-91176093D01*
X153476285Y-91063054D01*
X153958054Y-90741147D01*
X154178000Y-90411974D01*
X154397946Y-90741147D01*
X154879715Y-91063054D01*
X155448000Y-91176093D01*
X156016285Y-91063054D01*
X156498054Y-90741147D01*
X156718000Y-90411974D01*
X156937946Y-90741147D01*
X157178000Y-90901546D01*
X157178000Y-99090454D01*
X156937946Y-99250853D01*
X156710298Y-99591553D01*
X156643183Y-99448642D01*
X156214924Y-99058355D01*
X155804890Y-98888524D01*
X155575000Y-99009845D01*
X155575000Y-100203000D01*
X155595000Y-100203000D01*
X155595000Y-100457000D01*
X155575000Y-100457000D01*
X155575000Y-101650155D01*
X155804890Y-101771476D01*
X156214924Y-101601645D01*
X156643183Y-101211358D01*
X156710298Y-101068447D01*
X156937946Y-101409147D01*
X157419715Y-101731054D01*
X157988000Y-101844093D01*
X158556285Y-101731054D01*
X159038054Y-101409147D01*
X159258000Y-101079974D01*
X159477946Y-101409147D01*
X159959715Y-101731054D01*
X160528000Y-101844093D01*
X161096285Y-101731054D01*
X161578054Y-101409147D01*
X161805702Y-101068447D01*
X161872817Y-101211358D01*
X162301076Y-101601645D01*
X162711110Y-101771476D01*
X162941000Y-101650155D01*
X162941000Y-100457000D01*
X162921000Y-100457000D01*
X162921000Y-100203000D01*
X162941000Y-100203000D01*
X162941000Y-99009845D01*
X162711110Y-98888524D01*
X162301076Y-99058355D01*
X161872817Y-99448642D01*
X161805702Y-99591553D01*
X161578054Y-99250853D01*
X161338000Y-99090454D01*
X161338000Y-90901546D01*
X161578054Y-90741147D01*
X161798000Y-90411974D01*
X162017946Y-90741147D01*
X162499715Y-91063054D01*
X163068000Y-91176093D01*
X163636285Y-91063054D01*
X164118054Y-90741147D01*
X164439961Y-90259378D01*
X164458046Y-90168459D01*
X166068000Y-91778413D01*
X166068000Y-98907407D01*
X165608000Y-98815907D01*
X165039715Y-98928946D01*
X164557946Y-99250853D01*
X164330298Y-99591553D01*
X164263183Y-99448642D01*
X163834924Y-99058355D01*
X163424890Y-98888524D01*
X163195000Y-99009845D01*
X163195000Y-100203000D01*
X163215000Y-100203000D01*
X163215000Y-100457000D01*
X163195000Y-100457000D01*
X163195000Y-101650155D01*
X163424890Y-101771476D01*
X163834924Y-101601645D01*
X164263183Y-101211358D01*
X164330298Y-101068447D01*
X164557946Y-101409147D01*
X165039715Y-101731054D01*
X165608000Y-101844093D01*
X166176285Y-101731054D01*
X166658054Y-101409147D01*
X166837892Y-101140000D01*
X166878000Y-101140000D01*
X167187974Y-101078342D01*
X167450756Y-100902756D01*
X167461952Y-100886000D01*
X169927162Y-100886000D01*
X170021169Y-101113515D01*
X170410436Y-101503461D01*
X170919298Y-101714759D01*
X171470285Y-101715240D01*
X171979515Y-101504831D01*
X172369461Y-101115564D01*
X172580759Y-100606702D01*
X172581240Y-100055715D01*
X172370831Y-99546485D01*
X171981564Y-99156539D01*
X171472702Y-98945241D01*
X170921715Y-98944760D01*
X170412485Y-99155169D01*
X170301461Y-99266000D01*
X167688000Y-99266000D01*
X167688000Y-91442900D01*
X167676086Y-91383000D01*
X171696143Y-91383000D01*
X171696143Y-95203000D01*
X174251857Y-95203000D01*
X174251857Y-91383000D01*
X171696143Y-91383000D01*
X167676086Y-91383000D01*
X167626342Y-91132926D01*
X167482961Y-90918342D01*
X167450756Y-90870143D01*
X163772556Y-87191944D01*
X163688318Y-87135658D01*
X163509774Y-87016358D01*
X163199800Y-86954700D01*
X111714595Y-86954700D01*
X111776000Y-86646000D01*
X111776000Y-86587440D01*
X111966000Y-86587440D01*
X112201317Y-86543162D01*
X112417441Y-86404090D01*
X112562431Y-86191890D01*
X112613440Y-85940000D01*
X112613440Y-85089750D01*
X114135000Y-85089750D01*
X114135000Y-85930309D01*
X114231673Y-86163698D01*
X114410301Y-86342327D01*
X114643690Y-86439000D01*
X115284250Y-86439000D01*
X115443000Y-86280250D01*
X115443000Y-84931000D01*
X115697000Y-84931000D01*
X115697000Y-86280250D01*
X115855750Y-86439000D01*
X116496310Y-86439000D01*
X116729699Y-86342327D01*
X116908327Y-86163698D01*
X117005000Y-85930309D01*
X117005000Y-85089750D01*
X116846250Y-84931000D01*
X115697000Y-84931000D01*
X115443000Y-84931000D01*
X114293750Y-84931000D01*
X114135000Y-85089750D01*
X112613440Y-85089750D01*
X112613440Y-84588073D01*
X112840756Y-84360757D01*
X112994960Y-84129974D01*
X113016342Y-84097974D01*
X113078000Y-83788000D01*
X113078000Y-83677691D01*
X114135000Y-83677691D01*
X114135000Y-84518250D01*
X114293750Y-84677000D01*
X115443000Y-84677000D01*
X115443000Y-83327750D01*
X115697000Y-83327750D01*
X115697000Y-84677000D01*
X116846250Y-84677000D01*
X117005000Y-84518250D01*
X117005000Y-83677691D01*
X116908327Y-83444302D01*
X116729699Y-83265673D01*
X116496310Y-83169000D01*
X115855750Y-83169000D01*
X115697000Y-83327750D01*
X115443000Y-83327750D01*
X115284250Y-83169000D01*
X114643690Y-83169000D01*
X114410301Y-83265673D01*
X114231673Y-83444302D01*
X114135000Y-83677691D01*
X113078000Y-83677691D01*
X113078000Y-74676000D01*
X113036246Y-74466090D01*
X113016343Y-74366027D01*
X112840757Y-74103244D01*
X112078756Y-73341244D01*
X111815974Y-73165658D01*
X111506000Y-73104000D01*
X111315423Y-73104000D01*
X111178648Y-72899302D01*
X110713101Y-72588233D01*
X110551055Y-72556000D01*
X113954560Y-72556000D01*
X113954560Y-74256000D01*
X113998838Y-74491317D01*
X114137910Y-74707441D01*
X114350110Y-74852431D01*
X114602000Y-74903440D01*
X114792000Y-74903440D01*
X114792000Y-75006560D01*
X114602000Y-75006560D01*
X114366683Y-75050838D01*
X114150559Y-75189910D01*
X114005569Y-75402110D01*
X113954560Y-75654000D01*
X113954560Y-77254000D01*
X113998838Y-77489317D01*
X114137910Y-77705441D01*
X114350110Y-77850431D01*
X114602000Y-77901440D01*
X114792000Y-77901440D01*
X114792000Y-78010000D01*
X114853658Y-78319974D01*
X114984802Y-78516244D01*
X115029244Y-78582756D01*
X115603047Y-79156560D01*
X114770000Y-79156560D01*
X114534683Y-79200838D01*
X114318559Y-79339910D01*
X114173569Y-79552110D01*
X114122560Y-79804000D01*
X114122560Y-81804000D01*
X114166838Y-82039317D01*
X114305910Y-82255441D01*
X114518110Y-82400431D01*
X114770000Y-82451440D01*
X116370000Y-82451440D01*
X116605317Y-82407162D01*
X116821441Y-82268090D01*
X116966431Y-82055890D01*
X117017440Y-81804000D01*
X117017440Y-81614000D01*
X117044488Y-81614000D01*
X117268000Y-81837513D01*
X117268000Y-84550000D01*
X117329658Y-84859974D01*
X117451285Y-85042001D01*
X117505244Y-85122756D01*
X118013243Y-85630756D01*
X118144635Y-85718549D01*
X118276026Y-85806342D01*
X118586000Y-85868000D01*
X118948560Y-85868000D01*
X118948560Y-86058000D01*
X118992838Y-86293317D01*
X119131910Y-86509441D01*
X119344110Y-86654431D01*
X119596000Y-86705440D01*
X121196000Y-86705440D01*
X121431317Y-86661162D01*
X121647441Y-86522090D01*
X121792431Y-86309890D01*
X121843440Y-86058000D01*
X121843440Y-85868000D01*
X122968000Y-85868000D01*
X123277974Y-85806342D01*
X123540756Y-85630756D01*
X123825000Y-85346512D01*
X124903243Y-86424756D01*
X124983418Y-86478327D01*
X125166026Y-86600342D01*
X125476000Y-86662000D01*
X174416488Y-86662000D01*
X174958000Y-87203513D01*
X174958000Y-90490827D01*
X174936683Y-90494838D01*
X174720559Y-90633910D01*
X174575569Y-90846110D01*
X174524560Y-91098000D01*
X174524560Y-92798000D01*
X174568838Y-93033317D01*
X174707910Y-93249441D01*
X174920110Y-93394431D01*
X174987541Y-93408086D01*
X174942853Y-93437946D01*
X174620946Y-93919715D01*
X174507907Y-94488000D01*
X174620946Y-95056285D01*
X174942853Y-95538054D01*
X175212000Y-95717892D01*
X175212000Y-102026487D01*
X175041488Y-102197000D01*
X151178000Y-102197000D01*
X151178000Y-101569546D01*
X151418054Y-101409147D01*
X151638000Y-101079974D01*
X151857946Y-101409147D01*
X152339715Y-101731054D01*
X152908000Y-101844093D01*
X153476285Y-101731054D01*
X153958054Y-101409147D01*
X154185702Y-101068447D01*
X154252817Y-101211358D01*
X154681076Y-101601645D01*
X155091110Y-101771476D01*
X155321000Y-101650155D01*
X155321000Y-100457000D01*
X155301000Y-100457000D01*
X155301000Y-100203000D01*
X155321000Y-100203000D01*
X155321000Y-99009845D01*
X155091110Y-98888524D01*
X154681076Y-99058355D01*
X154252817Y-99448642D01*
X154185702Y-99591553D01*
X153958054Y-99250853D01*
X153718000Y-99090454D01*
X153718000Y-97028000D01*
X153656342Y-96718026D01*
X153524025Y-96520000D01*
X153480756Y-96455243D01*
X153226756Y-96201244D01*
X152963974Y-96025658D01*
X152654000Y-95964000D01*
X152237440Y-95964000D01*
X152237440Y-95924000D01*
X152193162Y-95688683D01*
X152054090Y-95472559D01*
X151841890Y-95327569D01*
X151590000Y-95276560D01*
X149590000Y-95276560D01*
X149354683Y-95320838D01*
X149138559Y-95459910D01*
X148993569Y-95672110D01*
X148942560Y-95924000D01*
X148942560Y-97624000D01*
X148986838Y-97859317D01*
X149125910Y-98075441D01*
X149338110Y-98220431D01*
X149590000Y-98271440D01*
X151590000Y-98271440D01*
X151825317Y-98227162D01*
X152041441Y-98088090D01*
X152098000Y-98005313D01*
X152098000Y-99090454D01*
X151857946Y-99250853D01*
X151638000Y-99580026D01*
X151418054Y-99250853D01*
X150936285Y-98928946D01*
X150368000Y-98815907D01*
X149799715Y-98928946D01*
X149317946Y-99250853D01*
X149098000Y-99580026D01*
X148878054Y-99250853D01*
X148396285Y-98928946D01*
X147828000Y-98815907D01*
X147259715Y-98928946D01*
X146777946Y-99250853D01*
X146558000Y-99580026D01*
X146338054Y-99250853D01*
X145856285Y-98928946D01*
X145288000Y-98815907D01*
X144719715Y-98928946D01*
X144237946Y-99250853D01*
X144210150Y-99292452D01*
X144201162Y-99244683D01*
X144062090Y-99028559D01*
X143849890Y-98883569D01*
X143598000Y-98832560D01*
X143558000Y-98832560D01*
X143558000Y-97617512D01*
X143591513Y-97584000D01*
X144942560Y-97584000D01*
X144942560Y-97624000D01*
X144986838Y-97859317D01*
X145125910Y-98075441D01*
X145338110Y-98220431D01*
X145590000Y-98271440D01*
X147590000Y-98271440D01*
X147825317Y-98227162D01*
X148041441Y-98088090D01*
X148186431Y-97875890D01*
X148237440Y-97624000D01*
X148237440Y-95924000D01*
X148193162Y-95688683D01*
X148054090Y-95472559D01*
X147841890Y-95327569D01*
X147590000Y-95276560D01*
X147400000Y-95276560D01*
X147400000Y-95173440D01*
X147590000Y-95173440D01*
X147825317Y-95129162D01*
X148041441Y-94990090D01*
X148186431Y-94777890D01*
X148237440Y-94526000D01*
X148237440Y-94011750D01*
X148955000Y-94011750D01*
X148955000Y-94652310D01*
X149051673Y-94885699D01*
X149230302Y-95064327D01*
X149463691Y-95161000D01*
X150304250Y-95161000D01*
X150463000Y-95002250D01*
X150463000Y-93853000D01*
X150717000Y-93853000D01*
X150717000Y-95002250D01*
X150875750Y-95161000D01*
X151716309Y-95161000D01*
X151949698Y-95064327D01*
X152128327Y-94885699D01*
X152225000Y-94652310D01*
X152225000Y-94011750D01*
X152066250Y-93853000D01*
X150717000Y-93853000D01*
X150463000Y-93853000D01*
X149113750Y-93853000D01*
X148955000Y-94011750D01*
X148237440Y-94011750D01*
X148237440Y-92926000D01*
X148213674Y-92799690D01*
X148955000Y-92799690D01*
X148955000Y-93440250D01*
X149113750Y-93599000D01*
X150463000Y-93599000D01*
X150463000Y-92449750D01*
X150717000Y-92449750D01*
X150717000Y-93599000D01*
X152066250Y-93599000D01*
X152225000Y-93440250D01*
X152225000Y-92799690D01*
X152128327Y-92566301D01*
X151949698Y-92387673D01*
X151716309Y-92291000D01*
X150875750Y-92291000D01*
X150717000Y-92449750D01*
X150463000Y-92449750D01*
X150304250Y-92291000D01*
X149463691Y-92291000D01*
X149230302Y-92387673D01*
X149051673Y-92566301D01*
X148955000Y-92799690D01*
X148213674Y-92799690D01*
X148193162Y-92690683D01*
X148054090Y-92474559D01*
X147841890Y-92329569D01*
X147590000Y-92278560D01*
X145590000Y-92278560D01*
X145354683Y-92322838D01*
X145138559Y-92461910D01*
X144993569Y-92674110D01*
X144944585Y-92916000D01*
X141356392Y-92916000D01*
X140993564Y-92552539D01*
X140484702Y-92341241D01*
X139933715Y-92340760D01*
X139424485Y-92551169D01*
X139034539Y-92940436D01*
X138823241Y-93449298D01*
X138822760Y-94000285D01*
X139033169Y-94509515D01*
X139422436Y-94899461D01*
X139931298Y-95110759D01*
X140482285Y-95111240D01*
X140991515Y-94900831D01*
X141356982Y-94536000D01*
X141938000Y-94536000D01*
X141938000Y-98832560D01*
X141898000Y-98832560D01*
X141662683Y-98876838D01*
X141446559Y-99015910D01*
X141301569Y-99228110D01*
X141250560Y-99480000D01*
X141250560Y-101180000D01*
X141294838Y-101415317D01*
X141433910Y-101631441D01*
X141646110Y-101776431D01*
X141898000Y-101827440D01*
X141938000Y-101827440D01*
X141938000Y-105156000D01*
X141999658Y-105465974D01*
X142026763Y-105506539D01*
X142175244Y-105728756D01*
X142683243Y-106236756D01*
X142723179Y-106263440D01*
X142946026Y-106412342D01*
X143256000Y-106474000D01*
X169811179Y-106474000D01*
X169810760Y-106954285D01*
X170021169Y-107463515D01*
X170410436Y-107853461D01*
X170919298Y-108064759D01*
X171470285Y-108065240D01*
X171979515Y-107854831D01*
X172369461Y-107465564D01*
X172580759Y-106956702D01*
X172581180Y-106474000D01*
X182340000Y-106474000D01*
X182649974Y-106412342D01*
X182682908Y-106390336D01*
X187098527Y-106390336D01*
X187460866Y-107267263D01*
X188131208Y-107938776D01*
X189007501Y-108302645D01*
X189956336Y-108303473D01*
X190833263Y-107941134D01*
X191504776Y-107270792D01*
X191868645Y-106394499D01*
X191869473Y-105445664D01*
X191507134Y-104568737D01*
X190836792Y-103897224D01*
X189960499Y-103533355D01*
X189011664Y-103532527D01*
X188134737Y-103894866D01*
X187463224Y-104565208D01*
X187099355Y-105441501D01*
X187098527Y-106390336D01*
X182682908Y-106390336D01*
X182872821Y-106263440D01*
X184238000Y-106263440D01*
X184473317Y-106219162D01*
X184689441Y-106080090D01*
X184834431Y-105867890D01*
X184885440Y-105616000D01*
X184885440Y-103616000D01*
X184849689Y-103426000D01*
X184912000Y-103426000D01*
X185221974Y-103364342D01*
X185484756Y-103188756D01*
X185738756Y-102934757D01*
X185897602Y-102697027D01*
X185914342Y-102671974D01*
X185976000Y-102362000D01*
X185976000Y-95717892D01*
X186245147Y-95538054D01*
X186567054Y-95056285D01*
X186680093Y-94488000D01*
X186567054Y-93919715D01*
X186245147Y-93437946D01*
X186203548Y-93410150D01*
X186251317Y-93401162D01*
X186467441Y-93262090D01*
X186612431Y-93049890D01*
X186663440Y-92798000D01*
X186663440Y-91637000D01*
X186936143Y-91637000D01*
X186936143Y-95457000D01*
X189491857Y-95457000D01*
X189491857Y-91637000D01*
X186936143Y-91637000D01*
X186663440Y-91637000D01*
X186663440Y-91098000D01*
X186619162Y-90862683D01*
X186480090Y-90646559D01*
X186267890Y-90501569D01*
X186016000Y-90450560D01*
X185976000Y-90450560D01*
X185976000Y-90170000D01*
X185914342Y-89860026D01*
X185782025Y-89662000D01*
X185738756Y-89597243D01*
X178736378Y-82594865D01*
X181071782Y-82594865D01*
X181102095Y-82720528D01*
X181413149Y-83275246D01*
X181912807Y-83668703D01*
X182525000Y-83841000D01*
X183515000Y-83841000D01*
X183515000Y-82343000D01*
X183769000Y-82343000D01*
X183769000Y-83841000D01*
X184759000Y-83841000D01*
X185371193Y-83668703D01*
X185870851Y-83275246D01*
X186181905Y-82720528D01*
X186212218Y-82594865D01*
X186092740Y-82343000D01*
X183769000Y-82343000D01*
X183515000Y-82343000D01*
X181191260Y-82343000D01*
X181071782Y-82594865D01*
X178736378Y-82594865D01*
X178118756Y-81977244D01*
X178101657Y-81965819D01*
X177909069Y-81837135D01*
X181071782Y-81837135D01*
X181191260Y-82089000D01*
X183515000Y-82089000D01*
X183515000Y-80591000D01*
X183769000Y-80591000D01*
X183769000Y-82089000D01*
X186092740Y-82089000D01*
X186212218Y-81837135D01*
X186181905Y-81711472D01*
X185870851Y-81156754D01*
X185371193Y-80763297D01*
X184759000Y-80591000D01*
X183769000Y-80591000D01*
X183515000Y-80591000D01*
X182525000Y-80591000D01*
X181912807Y-80763297D01*
X181413149Y-81156754D01*
X181102095Y-81711472D01*
X181071782Y-81837135D01*
X177909069Y-81837135D01*
X177855974Y-81801658D01*
X177546000Y-81740000D01*
X166197513Y-81740000D01*
X165909100Y-81451588D01*
X166113317Y-81413162D01*
X166329441Y-81274090D01*
X166474431Y-81061890D01*
X166525440Y-80810000D01*
X166525440Y-80295750D01*
X167243000Y-80295750D01*
X167243000Y-80936310D01*
X167339673Y-81169699D01*
X167518302Y-81348327D01*
X167751691Y-81445000D01*
X168592250Y-81445000D01*
X168751000Y-81286250D01*
X168751000Y-80137000D01*
X169005000Y-80137000D01*
X169005000Y-81286250D01*
X169163750Y-81445000D01*
X170004309Y-81445000D01*
X170237698Y-81348327D01*
X170416327Y-81169699D01*
X170513000Y-80936310D01*
X170513000Y-80295750D01*
X170354250Y-80137000D01*
X169005000Y-80137000D01*
X168751000Y-80137000D01*
X167401750Y-80137000D01*
X167243000Y-80295750D01*
X166525440Y-80295750D01*
X166525440Y-79210000D01*
X166501674Y-79083690D01*
X167243000Y-79083690D01*
X167243000Y-79724250D01*
X167401750Y-79883000D01*
X168751000Y-79883000D01*
X168751000Y-78733750D01*
X169005000Y-78733750D01*
X169005000Y-79883000D01*
X170354250Y-79883000D01*
X170513000Y-79724250D01*
X170513000Y-79083690D01*
X170416327Y-78850301D01*
X170237698Y-78671673D01*
X170004309Y-78575000D01*
X169163750Y-78575000D01*
X169005000Y-78733750D01*
X168751000Y-78733750D01*
X168592250Y-78575000D01*
X167751691Y-78575000D01*
X167518302Y-78671673D01*
X167339673Y-78850301D01*
X167243000Y-79083690D01*
X166501674Y-79083690D01*
X166481162Y-78974683D01*
X166342090Y-78758559D01*
X166129890Y-78613569D01*
X165878000Y-78562560D01*
X164644952Y-78562560D01*
X165256073Y-77951440D01*
X165878000Y-77951440D01*
X166113317Y-77907162D01*
X166329441Y-77768090D01*
X166474431Y-77555890D01*
X166525440Y-77304000D01*
X166525440Y-75604000D01*
X166503237Y-75486000D01*
X167254456Y-75486000D01*
X167230560Y-75604000D01*
X167230560Y-77304000D01*
X167274838Y-77539317D01*
X167413910Y-77755441D01*
X167626110Y-77900431D01*
X167878000Y-77951440D01*
X169878000Y-77951440D01*
X170113317Y-77907162D01*
X170329441Y-77768090D01*
X170474431Y-77555890D01*
X170525440Y-77304000D01*
X170525440Y-75604000D01*
X170503237Y-75486000D01*
X182290488Y-75486000D01*
X182383048Y-75578560D01*
X181662000Y-75578560D01*
X181426683Y-75622838D01*
X181210559Y-75761910D01*
X181065569Y-75974110D01*
X181014560Y-76226000D01*
X181014560Y-78206000D01*
X181058838Y-78441317D01*
X181197910Y-78657441D01*
X181410110Y-78802431D01*
X181662000Y-78853440D01*
X185622000Y-78853440D01*
X185857317Y-78809162D01*
X186073441Y-78670090D01*
X186218431Y-78457890D01*
X186269440Y-78206000D01*
X186269440Y-76226000D01*
X186225162Y-75990683D01*
X186086090Y-75774559D01*
X185873890Y-75629569D01*
X185622000Y-75578560D01*
X184429435Y-75578560D01*
X184390342Y-75382026D01*
X184301294Y-75248757D01*
X184214757Y-75119244D01*
X183198756Y-74103244D01*
X183015331Y-73980683D01*
X182935974Y-73927658D01*
X182626000Y-73866000D01*
X162373544Y-73866000D01*
X162397440Y-73748000D01*
X162397440Y-72048000D01*
X162353162Y-71812683D01*
X162214090Y-71596559D01*
X162001890Y-71451569D01*
X161750000Y-71400560D01*
X159750000Y-71400560D01*
X159514683Y-71444838D01*
X159298559Y-71583910D01*
X159153569Y-71796110D01*
X159102560Y-72048000D01*
X159102560Y-73748000D01*
X159146838Y-73983317D01*
X159237425Y-74124093D01*
X158948026Y-74181658D01*
X158884696Y-74223974D01*
X158685243Y-74357244D01*
X158431244Y-74611244D01*
X158255658Y-74874026D01*
X158201910Y-75144236D01*
X158001890Y-75007569D01*
X157750000Y-74956560D01*
X155750000Y-74956560D01*
X155514683Y-75000838D01*
X155298559Y-75139910D01*
X155153569Y-75352110D01*
X155102560Y-75604000D01*
X155102560Y-75644000D01*
X153093140Y-75644000D01*
X153018717Y-75269849D01*
X152707648Y-74804302D01*
X152329293Y-74551493D01*
X152761500Y-74203896D01*
X153031367Y-73710819D01*
X153048904Y-73628039D01*
X152926915Y-73406000D01*
X151384000Y-73406000D01*
X151384000Y-73426000D01*
X151130000Y-73426000D01*
X151130000Y-73406000D01*
X149587085Y-73406000D01*
X149465096Y-73628039D01*
X149482633Y-73710819D01*
X149752500Y-74203896D01*
X150184707Y-74551493D01*
X149806352Y-74804302D01*
X149495283Y-75269849D01*
X149386050Y-75819000D01*
X149495283Y-76368151D01*
X149806352Y-76833698D01*
X150188438Y-77089000D01*
X149806352Y-77344302D01*
X149495283Y-77809849D01*
X149386050Y-78359000D01*
X149495283Y-78908151D01*
X149806352Y-79373698D01*
X149952350Y-79471251D01*
X149821683Y-79495838D01*
X149605559Y-79634910D01*
X149460569Y-79847110D01*
X149409560Y-80099000D01*
X149409560Y-81699000D01*
X149453838Y-81934317D01*
X149592910Y-82150441D01*
X149805110Y-82295431D01*
X150057000Y-82346440D01*
X152457000Y-82346440D01*
X152692317Y-82302162D01*
X152908441Y-82163090D01*
X153053431Y-81950890D01*
X153102415Y-81709000D01*
X155861000Y-81709000D01*
X156170974Y-81647342D01*
X156380351Y-81507440D01*
X157750000Y-81507440D01*
X157985317Y-81463162D01*
X158201441Y-81324090D01*
X158346431Y-81111890D01*
X158397440Y-80860000D01*
X158397440Y-79160000D01*
X158375237Y-79042000D01*
X159126456Y-79042000D01*
X159102560Y-79160000D01*
X159102560Y-80860000D01*
X159146838Y-81095317D01*
X159285910Y-81311441D01*
X159498110Y-81456431D01*
X159750000Y-81507440D01*
X161750000Y-81507440D01*
X161985317Y-81463162D01*
X162201441Y-81324090D01*
X162346431Y-81111890D01*
X162397440Y-80860000D01*
X162397440Y-80820000D01*
X163232442Y-80820000D01*
X163274838Y-81045317D01*
X163413910Y-81261441D01*
X163626110Y-81406431D01*
X163878000Y-81457440D01*
X164068000Y-81457440D01*
X164068000Y-81566000D01*
X164129658Y-81875974D01*
X164271998Y-82089000D01*
X164305244Y-82138756D01*
X165176487Y-83010000D01*
X141907000Y-83010000D01*
X141907000Y-82259597D01*
X142082101Y-82224767D01*
X142547648Y-81913698D01*
X142684423Y-81709000D01*
X145923000Y-81709000D01*
X146232974Y-81647342D01*
X146495756Y-81471756D01*
X146749756Y-81217757D01*
X146860137Y-81052560D01*
X146925342Y-80954974D01*
X146968811Y-80736440D01*
X146977000Y-80736440D01*
X147212317Y-80692162D01*
X147428441Y-80553090D01*
X147573431Y-80340890D01*
X147624440Y-80089000D01*
X147624440Y-78089000D01*
X147580162Y-77853683D01*
X147441090Y-77637559D01*
X147228890Y-77492569D01*
X146977000Y-77441560D01*
X145377000Y-77441560D01*
X145141683Y-77485838D01*
X144925559Y-77624910D01*
X144780569Y-77837110D01*
X144729560Y-78089000D01*
X144729560Y-80089000D01*
X142684423Y-80089000D01*
X142547648Y-79884302D01*
X142165562Y-79629000D01*
X142547648Y-79373698D01*
X142858717Y-78908151D01*
X142967950Y-78359000D01*
X142858717Y-77809849D01*
X142547648Y-77344302D01*
X142165562Y-77089000D01*
X142547648Y-76833698D01*
X142858717Y-76368151D01*
X142967950Y-75819000D01*
X142879584Y-75374750D01*
X144742000Y-75374750D01*
X144742000Y-76215309D01*
X144838673Y-76448698D01*
X145017301Y-76627327D01*
X145250690Y-76724000D01*
X145891250Y-76724000D01*
X146050000Y-76565250D01*
X146050000Y-75216000D01*
X146304000Y-75216000D01*
X146304000Y-76565250D01*
X146462750Y-76724000D01*
X147103310Y-76724000D01*
X147336699Y-76627327D01*
X147515327Y-76448698D01*
X147612000Y-76215309D01*
X147612000Y-75374750D01*
X147453250Y-75216000D01*
X146304000Y-75216000D01*
X146050000Y-75216000D01*
X144900750Y-75216000D01*
X144742000Y-75374750D01*
X142879584Y-75374750D01*
X142858717Y-75269849D01*
X142547648Y-74804302D01*
X142165562Y-74549000D01*
X142547648Y-74293698D01*
X142768820Y-73962691D01*
X144742000Y-73962691D01*
X144742000Y-74803250D01*
X144900750Y-74962000D01*
X146050000Y-74962000D01*
X146050000Y-73612750D01*
X146304000Y-73612750D01*
X146304000Y-74962000D01*
X147453250Y-74962000D01*
X147612000Y-74803250D01*
X147612000Y-73962691D01*
X147515327Y-73729302D01*
X147336699Y-73550673D01*
X147103310Y-73454000D01*
X146462750Y-73454000D01*
X146304000Y-73612750D01*
X146050000Y-73612750D01*
X145891250Y-73454000D01*
X145250690Y-73454000D01*
X145017301Y-73550673D01*
X144838673Y-73729302D01*
X144742000Y-73962691D01*
X142768820Y-73962691D01*
X142858717Y-73828151D01*
X142967950Y-73279000D01*
X142949004Y-73183750D01*
X155115000Y-73183750D01*
X155115000Y-73874310D01*
X155211673Y-74107699D01*
X155390302Y-74286327D01*
X155623691Y-74383000D01*
X156464250Y-74383000D01*
X156623000Y-74224250D01*
X156623000Y-73025000D01*
X156877000Y-73025000D01*
X156877000Y-74224250D01*
X157035750Y-74383000D01*
X157876309Y-74383000D01*
X158109698Y-74286327D01*
X158288327Y-74107699D01*
X158385000Y-73874310D01*
X158385000Y-73183750D01*
X158226250Y-73025000D01*
X156877000Y-73025000D01*
X156623000Y-73025000D01*
X155273750Y-73025000D01*
X155115000Y-73183750D01*
X142949004Y-73183750D01*
X142898522Y-72929961D01*
X149465096Y-72929961D01*
X149587085Y-73152000D01*
X151130000Y-73152000D01*
X151130000Y-71844000D01*
X151384000Y-71844000D01*
X151384000Y-73152000D01*
X152926915Y-73152000D01*
X153048904Y-72929961D01*
X153031367Y-72847181D01*
X152761500Y-72354104D01*
X152323483Y-72001834D01*
X152049548Y-71921690D01*
X155115000Y-71921690D01*
X155115000Y-72612250D01*
X155273750Y-72771000D01*
X156623000Y-72771000D01*
X156623000Y-71571750D01*
X156877000Y-71571750D01*
X156877000Y-72771000D01*
X158226250Y-72771000D01*
X158385000Y-72612250D01*
X158385000Y-71921690D01*
X158288327Y-71688301D01*
X158109698Y-71509673D01*
X157876309Y-71413000D01*
X157035750Y-71413000D01*
X156877000Y-71571750D01*
X156623000Y-71571750D01*
X156464250Y-71413000D01*
X155623691Y-71413000D01*
X155390302Y-71509673D01*
X155211673Y-71688301D01*
X155115000Y-71921690D01*
X152049548Y-71921690D01*
X151784000Y-71844000D01*
X151384000Y-71844000D01*
X151130000Y-71844000D01*
X150730000Y-71844000D01*
X150190517Y-72001834D01*
X149752500Y-72354104D01*
X149482633Y-72847181D01*
X149465096Y-72929961D01*
X142898522Y-72929961D01*
X142858717Y-72729849D01*
X142547648Y-72264302D01*
X142082101Y-71953233D01*
X141532950Y-71844000D01*
X140661050Y-71844000D01*
X140111899Y-71953233D01*
X139646352Y-72264302D01*
X139594436Y-72342000D01*
X137759440Y-72342000D01*
X137759440Y-72302000D01*
X137715162Y-72066683D01*
X137576090Y-71850559D01*
X137363890Y-71705569D01*
X137112000Y-71654560D01*
X135112000Y-71654560D01*
X134876683Y-71698838D01*
X134660559Y-71837910D01*
X134515569Y-72050110D01*
X134464560Y-72302000D01*
X134464560Y-74002000D01*
X134508838Y-74237317D01*
X134647910Y-74453441D01*
X134860110Y-74598431D01*
X135112000Y-74649440D01*
X137112000Y-74649440D01*
X137347317Y-74605162D01*
X137563441Y-74466090D01*
X137708431Y-74253890D01*
X137759440Y-74002000D01*
X137759440Y-73962000D01*
X138760488Y-73962000D01*
X138365244Y-74357244D01*
X138341082Y-74393405D01*
X137840488Y-74894000D01*
X130141513Y-74894000D01*
X128615440Y-73367928D01*
X128615440Y-72556000D01*
X128571162Y-72320683D01*
X128559140Y-72302000D01*
X130464560Y-72302000D01*
X130464560Y-74002000D01*
X130508838Y-74237317D01*
X130647910Y-74453441D01*
X130860110Y-74598431D01*
X131112000Y-74649440D01*
X133112000Y-74649440D01*
X133347317Y-74605162D01*
X133563441Y-74466090D01*
X133708431Y-74253890D01*
X133759440Y-74002000D01*
X133759440Y-72302000D01*
X133715162Y-72066683D01*
X133576090Y-71850559D01*
X133363890Y-71705569D01*
X133112000Y-71654560D01*
X132997000Y-71654560D01*
X132997000Y-70989000D01*
X170687995Y-70989000D01*
X170688000Y-70989001D01*
X170970484Y-70932810D01*
X171026675Y-70921633D01*
X171313790Y-70729790D01*
X171313791Y-70729789D01*
X172329787Y-69713792D01*
X172329790Y-69713790D01*
X172521633Y-69426675D01*
X172549542Y-69286367D01*
X172589001Y-69088000D01*
X172589000Y-69087995D01*
X172589000Y-68878865D01*
X181325782Y-68878865D01*
X181356095Y-69004528D01*
X181667149Y-69559246D01*
X182166807Y-69952703D01*
X182779000Y-70125000D01*
X183769000Y-70125000D01*
X183769000Y-68627000D01*
X184023000Y-68627000D01*
X184023000Y-70125000D01*
X185013000Y-70125000D01*
X185625193Y-69952703D01*
X186124851Y-69559246D01*
X186435905Y-69004528D01*
X186466218Y-68878865D01*
X186346740Y-68627000D01*
X184023000Y-68627000D01*
X183769000Y-68627000D01*
X181445260Y-68627000D01*
X181325782Y-68878865D01*
X172589000Y-68878865D01*
X172589000Y-68121135D01*
X181325782Y-68121135D01*
X181445260Y-68373000D01*
X183769000Y-68373000D01*
X183769000Y-66875000D01*
X184023000Y-66875000D01*
X184023000Y-68373000D01*
X186346740Y-68373000D01*
X186466218Y-68121135D01*
X186435905Y-67995472D01*
X186124851Y-67440754D01*
X185625193Y-67047297D01*
X185013000Y-66875000D01*
X184023000Y-66875000D01*
X183769000Y-66875000D01*
X182779000Y-66875000D01*
X182166807Y-67047297D01*
X181667149Y-67440754D01*
X181356095Y-67995472D01*
X181325782Y-68121135D01*
X172589000Y-68121135D01*
X172589000Y-66167000D01*
X188468000Y-66167000D01*
X188514159Y-66158315D01*
X188556553Y-66131035D01*
X188584994Y-66089410D01*
X188595000Y-66040000D01*
X188595000Y-59182000D01*
X188586315Y-59135841D01*
X188559035Y-59093447D01*
X188517410Y-59065006D01*
X188468000Y-59055000D01*
X179959000Y-59055000D01*
X179959000Y-50764336D01*
X186844527Y-50764336D01*
X187206866Y-51641263D01*
X187877208Y-52312776D01*
X188753501Y-52676645D01*
X189702336Y-52677473D01*
X190579263Y-52315134D01*
X191250776Y-51644792D01*
X191614645Y-50768499D01*
X191615473Y-49819664D01*
X191253134Y-48942737D01*
X190582792Y-48271224D01*
X189706499Y-47907355D01*
X188757664Y-47906527D01*
X187880737Y-48268866D01*
X187209224Y-48939208D01*
X186845355Y-49815501D01*
X186844527Y-50764336D01*
X179959000Y-50764336D01*
X179959000Y-49022000D01*
X179950315Y-48975841D01*
X179923035Y-48933447D01*
X179881410Y-48905006D01*
X179832000Y-48895000D01*
X170180000Y-48895000D01*
X170133841Y-48903685D01*
X170091447Y-48930965D01*
X170063006Y-48972590D01*
X170053000Y-49022000D01*
X170053000Y-66040000D01*
X170061685Y-66086159D01*
X170088965Y-66128553D01*
X170130590Y-66156994D01*
X170180000Y-66167000D01*
X170819000Y-66167000D01*
X170819000Y-68721421D01*
X170321420Y-69219000D01*
X132588005Y-69219000D01*
X132588000Y-69218999D01*
X132305516Y-69275190D01*
X132249325Y-69286367D01*
X131962210Y-69478210D01*
X131962208Y-69478213D01*
X131486210Y-69954210D01*
X131294367Y-70241325D01*
X131294367Y-70241326D01*
X131226999Y-70580000D01*
X131227000Y-70580005D01*
X131227000Y-71654560D01*
X131112000Y-71654560D01*
X130876683Y-71698838D01*
X130660559Y-71837910D01*
X130515569Y-72050110D01*
X130464560Y-72302000D01*
X128559140Y-72302000D01*
X128432090Y-72104559D01*
X128219890Y-71959569D01*
X127968000Y-71908560D01*
X125968000Y-71908560D01*
X125732683Y-71952838D01*
X125516559Y-72091910D01*
X125371569Y-72304110D01*
X125320560Y-72556000D01*
X125320560Y-74256000D01*
X125364838Y-74491317D01*
X125503910Y-74707441D01*
X125716110Y-74852431D01*
X125968000Y-74903440D01*
X126754038Y-74903440D01*
X126968000Y-74946000D01*
X127181962Y-74903440D01*
X127859928Y-74903440D01*
X127913048Y-74956560D01*
X125968000Y-74956560D01*
X125732683Y-75000838D01*
X125516559Y-75139910D01*
X125371569Y-75352110D01*
X125320560Y-75604000D01*
X125320560Y-77304000D01*
X125364838Y-77539317D01*
X125503910Y-77755441D01*
X125716110Y-77900431D01*
X125968000Y-77951440D01*
X127968000Y-77951440D01*
X128203317Y-77907162D01*
X128419441Y-77768090D01*
X128564431Y-77555890D01*
X128615440Y-77304000D01*
X128615440Y-77264000D01*
X132252488Y-77264000D01*
X132318000Y-77329513D01*
X132318000Y-81052560D01*
X132128000Y-81052560D01*
X131892683Y-81096838D01*
X131676559Y-81235910D01*
X131531569Y-81448110D01*
X131480560Y-81700000D01*
X131480560Y-83400000D01*
X131505021Y-83530000D01*
X129859114Y-83530000D01*
X129885440Y-83400000D01*
X129885440Y-81700000D01*
X129841162Y-81464683D01*
X129702090Y-81248559D01*
X129489890Y-81103569D01*
X129238000Y-81052560D01*
X127238000Y-81052560D01*
X127048000Y-81088311D01*
X127048000Y-79502000D01*
X126986342Y-79192026D01*
X126898549Y-79060635D01*
X126810756Y-78929243D01*
X126302756Y-78421244D01*
X126302755Y-78421243D01*
X126039974Y-78245658D01*
X125730000Y-78184000D01*
X116921513Y-78184000D01*
X116633100Y-77895588D01*
X116837317Y-77857162D01*
X117053441Y-77718090D01*
X117198431Y-77505890D01*
X117249440Y-77254000D01*
X117249440Y-76739750D01*
X117967000Y-76739750D01*
X117967000Y-77380310D01*
X118063673Y-77613699D01*
X118242302Y-77792327D01*
X118475691Y-77889000D01*
X119316250Y-77889000D01*
X119475000Y-77730250D01*
X119475000Y-76581000D01*
X119729000Y-76581000D01*
X119729000Y-77730250D01*
X119887750Y-77889000D01*
X120728309Y-77889000D01*
X120961698Y-77792327D01*
X121140327Y-77613699D01*
X121237000Y-77380310D01*
X121237000Y-76739750D01*
X121333000Y-76739750D01*
X121333000Y-77430310D01*
X121429673Y-77663699D01*
X121608302Y-77842327D01*
X121841691Y-77939000D01*
X122682250Y-77939000D01*
X122841000Y-77780250D01*
X122841000Y-76581000D01*
X123095000Y-76581000D01*
X123095000Y-77780250D01*
X123253750Y-77939000D01*
X124094309Y-77939000D01*
X124327698Y-77842327D01*
X124506327Y-77663699D01*
X124603000Y-77430310D01*
X124603000Y-76739750D01*
X124444250Y-76581000D01*
X123095000Y-76581000D01*
X122841000Y-76581000D01*
X121491750Y-76581000D01*
X121333000Y-76739750D01*
X121237000Y-76739750D01*
X121078250Y-76581000D01*
X119729000Y-76581000D01*
X119475000Y-76581000D01*
X118125750Y-76581000D01*
X117967000Y-76739750D01*
X117249440Y-76739750D01*
X117249440Y-75654000D01*
X117225674Y-75527690D01*
X117967000Y-75527690D01*
X117967000Y-76168250D01*
X118125750Y-76327000D01*
X119475000Y-76327000D01*
X119475000Y-75177750D01*
X119729000Y-75177750D01*
X119729000Y-76327000D01*
X121078250Y-76327000D01*
X121237000Y-76168250D01*
X121237000Y-75527690D01*
X121216290Y-75477690D01*
X121333000Y-75477690D01*
X121333000Y-76168250D01*
X121491750Y-76327000D01*
X122841000Y-76327000D01*
X122841000Y-75127750D01*
X123095000Y-75127750D01*
X123095000Y-76327000D01*
X124444250Y-76327000D01*
X124603000Y-76168250D01*
X124603000Y-75477690D01*
X124506327Y-75244301D01*
X124327698Y-75065673D01*
X124094309Y-74969000D01*
X123253750Y-74969000D01*
X123095000Y-75127750D01*
X122841000Y-75127750D01*
X122682250Y-74969000D01*
X121841691Y-74969000D01*
X121608302Y-75065673D01*
X121429673Y-75244301D01*
X121333000Y-75477690D01*
X121216290Y-75477690D01*
X121140327Y-75294301D01*
X120961698Y-75115673D01*
X120728309Y-75019000D01*
X119887750Y-75019000D01*
X119729000Y-75177750D01*
X119475000Y-75177750D01*
X119316250Y-75019000D01*
X118475691Y-75019000D01*
X118242302Y-75115673D01*
X118063673Y-75294301D01*
X117967000Y-75527690D01*
X117225674Y-75527690D01*
X117205162Y-75418683D01*
X117066090Y-75202559D01*
X116853890Y-75057569D01*
X116602000Y-75006560D01*
X116412000Y-75006560D01*
X116412000Y-74903440D01*
X116602000Y-74903440D01*
X116837317Y-74859162D01*
X117053441Y-74720090D01*
X117198431Y-74507890D01*
X117249440Y-74256000D01*
X117249440Y-72556000D01*
X117205162Y-72320683D01*
X117066090Y-72104559D01*
X116853890Y-71959569D01*
X116602000Y-71908560D01*
X114602000Y-71908560D01*
X114366683Y-71952838D01*
X114150559Y-72091910D01*
X114005569Y-72304110D01*
X113954560Y-72556000D01*
X110551055Y-72556000D01*
X110163950Y-72479000D01*
X109292050Y-72479000D01*
X108742899Y-72588233D01*
X108277352Y-72899302D01*
X108140577Y-73104000D01*
X104902000Y-73104000D01*
X104592026Y-73165658D01*
X104528696Y-73207974D01*
X104329243Y-73341244D01*
X104101927Y-73568560D01*
X103594000Y-73568560D01*
X103358683Y-73612838D01*
X103142559Y-73751910D01*
X102997569Y-73964110D01*
X102946560Y-74216000D01*
X102946560Y-76216000D01*
X102987423Y-76433167D01*
X102814027Y-76467657D01*
X102551244Y-76643243D01*
X101097370Y-78097118D01*
X101018648Y-77979302D01*
X100636562Y-77724000D01*
X101018648Y-77468698D01*
X101329717Y-77003151D01*
X101438950Y-76454000D01*
X101329717Y-75904849D01*
X101018648Y-75439302D01*
X100872650Y-75341749D01*
X101003317Y-75317162D01*
X101219441Y-75178090D01*
X101364431Y-74965890D01*
X101415440Y-74714000D01*
X101415440Y-73114000D01*
X101371162Y-72878683D01*
X101232090Y-72662559D01*
X101019890Y-72517569D01*
X100768000Y-72466560D01*
X100378000Y-72466560D01*
X100378000Y-71963512D01*
X100919513Y-71422000D01*
X101467608Y-71422000D01*
X101830436Y-71785461D01*
X102339298Y-71996759D01*
X102890285Y-71997240D01*
X103399515Y-71786831D01*
X103789461Y-71397564D01*
X104000759Y-70888702D01*
X104000761Y-70886285D01*
X111644760Y-70886285D01*
X111855169Y-71395515D01*
X112244436Y-71785461D01*
X112753298Y-71996759D01*
X113304285Y-71997240D01*
X113813515Y-71786831D01*
X114178982Y-71422000D01*
X118218488Y-71422000D01*
X118705047Y-71908560D01*
X118602000Y-71908560D01*
X118366683Y-71952838D01*
X118150559Y-72091910D01*
X118005569Y-72304110D01*
X117954560Y-72556000D01*
X117954560Y-74256000D01*
X117998838Y-74491317D01*
X118137910Y-74707441D01*
X118350110Y-74852431D01*
X118602000Y-74903440D01*
X120602000Y-74903440D01*
X120837317Y-74859162D01*
X121053441Y-74720090D01*
X121198431Y-74507890D01*
X121249440Y-74256000D01*
X121249440Y-74216000D01*
X121320560Y-74216000D01*
X121320560Y-74256000D01*
X121364838Y-74491317D01*
X121503910Y-74707441D01*
X121716110Y-74852431D01*
X121968000Y-74903440D01*
X123968000Y-74903440D01*
X124203317Y-74859162D01*
X124419441Y-74720090D01*
X124564431Y-74507890D01*
X124615440Y-74256000D01*
X124615440Y-72556000D01*
X124571162Y-72320683D01*
X124432090Y-72104559D01*
X124219890Y-71959569D01*
X123968000Y-71908560D01*
X121968000Y-71908560D01*
X121732683Y-71952838D01*
X121516559Y-72091910D01*
X121371569Y-72304110D01*
X121320560Y-72556000D01*
X121320560Y-72596000D01*
X121249440Y-72596000D01*
X121249440Y-72556000D01*
X121205162Y-72320683D01*
X121066090Y-72104559D01*
X120853890Y-71959569D01*
X120602000Y-71908560D01*
X120412000Y-71908560D01*
X120412000Y-71660000D01*
X120370540Y-71451569D01*
X120350343Y-71350027D01*
X120174757Y-71087244D01*
X119126756Y-70039244D01*
X118999494Y-69954210D01*
X118863974Y-69863658D01*
X118554000Y-69802000D01*
X114178392Y-69802000D01*
X113815564Y-69438539D01*
X113306702Y-69227241D01*
X112755715Y-69226760D01*
X112246485Y-69437169D01*
X111856539Y-69826436D01*
X111645241Y-70335298D01*
X111644760Y-70886285D01*
X104000761Y-70886285D01*
X104001240Y-70337715D01*
X103790831Y-69828485D01*
X103401564Y-69438539D01*
X102892702Y-69227241D01*
X102341715Y-69226760D01*
X101832485Y-69437169D01*
X101467018Y-69802000D01*
X100584000Y-69802000D01*
X100274026Y-69863658D01*
X100168771Y-69933988D01*
X100011244Y-70039243D01*
X98995244Y-71055244D01*
X98819658Y-71318026D01*
X98758000Y-71628000D01*
X98758000Y-72466560D01*
X98368000Y-72466560D01*
X98132683Y-72510838D01*
X97916559Y-72649910D01*
X97771569Y-72862110D01*
X97720560Y-73114000D01*
X97720560Y-74714000D01*
X97764838Y-74949317D01*
X97903910Y-75165441D01*
X98116110Y-75310431D01*
X98265074Y-75340597D01*
X98117352Y-75439302D01*
X97806283Y-75904849D01*
X97697050Y-76454000D01*
X97806283Y-77003151D01*
X98117352Y-77468698D01*
X98499438Y-77724000D01*
X98117352Y-77979302D01*
X97806283Y-78444849D01*
X97697050Y-78994000D01*
X97806283Y-79543151D01*
X98117352Y-80008698D01*
X98495707Y-80261507D01*
X98063500Y-80609104D01*
X97793633Y-81102181D01*
X97776096Y-81184961D01*
X97898085Y-81407000D01*
X99441000Y-81407000D01*
X99441000Y-81387000D01*
X99695000Y-81387000D01*
X99695000Y-81407000D01*
X101237915Y-81407000D01*
X101359904Y-81184961D01*
X101342367Y-81102181D01*
X101072500Y-80609104D01*
X100640293Y-80261507D01*
X101018648Y-80008698D01*
X101155423Y-79804000D01*
X101346000Y-79804000D01*
X101655974Y-79742342D01*
X101918756Y-79566756D01*
X101983762Y-79501750D01*
X102959000Y-79501750D01*
X102959000Y-80342309D01*
X103055673Y-80575698D01*
X103234301Y-80754327D01*
X103467690Y-80851000D01*
X104108250Y-80851000D01*
X104267000Y-80692250D01*
X104267000Y-79343000D01*
X104521000Y-79343000D01*
X104521000Y-80692250D01*
X104679750Y-80851000D01*
X105320310Y-80851000D01*
X105553699Y-80754327D01*
X105732327Y-80575698D01*
X105829000Y-80342309D01*
X105829000Y-79501750D01*
X105670250Y-79343000D01*
X104521000Y-79343000D01*
X104267000Y-79343000D01*
X103117750Y-79343000D01*
X102959000Y-79501750D01*
X101983762Y-79501750D01*
X102959000Y-78526513D01*
X102959000Y-78930250D01*
X103117750Y-79089000D01*
X104267000Y-79089000D01*
X104267000Y-79069000D01*
X104521000Y-79069000D01*
X104521000Y-79089000D01*
X105670250Y-79089000D01*
X105829000Y-78930250D01*
X105829000Y-78089691D01*
X105802618Y-78026000D01*
X106156000Y-78026000D01*
X106156000Y-83592560D01*
X105966000Y-83592560D01*
X105730683Y-83636838D01*
X105514559Y-83775910D01*
X105369569Y-83988110D01*
X105318560Y-84240000D01*
X105318560Y-84280000D01*
X104739440Y-84280000D01*
X104739440Y-84240000D01*
X104695162Y-84004683D01*
X104556090Y-83788559D01*
X104343890Y-83643569D01*
X104092000Y-83592560D01*
X102092000Y-83592560D01*
X101856683Y-83636838D01*
X101640559Y-83775910D01*
X101495569Y-83988110D01*
X101444560Y-84240000D01*
X101444560Y-85940000D01*
X101488838Y-86175317D01*
X101627910Y-86391441D01*
X101840110Y-86536431D01*
X101986126Y-86566000D01*
X100240037Y-86566000D01*
X100451698Y-86478327D01*
X100630327Y-86299699D01*
X100727000Y-86066310D01*
X100727000Y-85375750D01*
X100568250Y-85217000D01*
X99219000Y-85217000D01*
X99219000Y-86416250D01*
X99377750Y-86575000D01*
X100030754Y-86575000D01*
X99766026Y-86627658D01*
X99634635Y-86715451D01*
X99503243Y-86803244D01*
X98995244Y-87311244D01*
X98819658Y-87574026D01*
X98758000Y-87884000D01*
X98758000Y-88422454D01*
X98517946Y-88582853D01*
X98488597Y-88626777D01*
X98416327Y-88452302D01*
X98237699Y-88273673D01*
X98004310Y-88177000D01*
X97313750Y-88177000D01*
X97155000Y-88335750D01*
X97155000Y-89535000D01*
X97175000Y-89535000D01*
X97175000Y-89789000D01*
X97155000Y-89789000D01*
X97155000Y-90988250D01*
X97313750Y-91147000D01*
X98004310Y-91147000D01*
X98237699Y-91050327D01*
X98416327Y-90871698D01*
X98488597Y-90697223D01*
X98517946Y-90741147D01*
X98999715Y-91063054D01*
X99393962Y-91141475D01*
X99996000Y-91743513D01*
X99996000Y-92278560D01*
X99806000Y-92278560D01*
X99570683Y-92322838D01*
X99354559Y-92461910D01*
X99209569Y-92674110D01*
X99158560Y-92926000D01*
X99158560Y-94526000D01*
X99202838Y-94761317D01*
X99341910Y-94977441D01*
X99554110Y-95122431D01*
X99806000Y-95173440D01*
X99996000Y-95173440D01*
X99996000Y-95708487D01*
X99740488Y-95964000D01*
X94569513Y-95964000D01*
X94282000Y-95676488D01*
X94282000Y-94011750D01*
X95171000Y-94011750D01*
X95171000Y-94652310D01*
X95267673Y-94885699D01*
X95446302Y-95064327D01*
X95679691Y-95161000D01*
X96520250Y-95161000D01*
X96679000Y-95002250D01*
X96679000Y-93853000D01*
X96933000Y-93853000D01*
X96933000Y-95002250D01*
X97091750Y-95161000D01*
X97932309Y-95161000D01*
X98165698Y-95064327D01*
X98344327Y-94885699D01*
X98441000Y-94652310D01*
X98441000Y-94011750D01*
X98282250Y-93853000D01*
X96933000Y-93853000D01*
X96679000Y-93853000D01*
X95329750Y-93853000D01*
X95171000Y-94011750D01*
X94282000Y-94011750D01*
X94282000Y-92799690D01*
X95171000Y-92799690D01*
X95171000Y-93440250D01*
X95329750Y-93599000D01*
X96679000Y-93599000D01*
X96679000Y-92449750D01*
X96933000Y-92449750D01*
X96933000Y-93599000D01*
X98282250Y-93599000D01*
X98441000Y-93440250D01*
X98441000Y-92799690D01*
X98344327Y-92566301D01*
X98165698Y-92387673D01*
X97932309Y-92291000D01*
X97091750Y-92291000D01*
X96933000Y-92449750D01*
X96679000Y-92449750D01*
X96520250Y-92291000D01*
X95679691Y-92291000D01*
X95446302Y-92387673D01*
X95267673Y-92566301D01*
X95171000Y-92799690D01*
X94282000Y-92799690D01*
X94282000Y-89947750D01*
X95543000Y-89947750D01*
X95543000Y-90638309D01*
X95639673Y-90871698D01*
X95818301Y-91050327D01*
X96051690Y-91147000D01*
X96742250Y-91147000D01*
X96901000Y-90988250D01*
X96901000Y-89789000D01*
X95701750Y-89789000D01*
X95543000Y-89947750D01*
X94282000Y-89947750D01*
X94282000Y-88685691D01*
X95543000Y-88685691D01*
X95543000Y-89376250D01*
X95701750Y-89535000D01*
X96901000Y-89535000D01*
X96901000Y-88335750D01*
X96742250Y-88177000D01*
X96051690Y-88177000D01*
X95818301Y-88273673D01*
X95639673Y-88452302D01*
X95543000Y-88685691D01*
X94282000Y-88685691D01*
X94282000Y-85375750D01*
X97457000Y-85375750D01*
X97457000Y-86066310D01*
X97553673Y-86299699D01*
X97732302Y-86478327D01*
X97965691Y-86575000D01*
X98806250Y-86575000D01*
X98965000Y-86416250D01*
X98965000Y-85217000D01*
X97615750Y-85217000D01*
X97457000Y-85375750D01*
X94282000Y-85375750D01*
X94282000Y-84113690D01*
X97457000Y-84113690D01*
X97457000Y-84804250D01*
X97615750Y-84963000D01*
X98965000Y-84963000D01*
X98965000Y-83763750D01*
X99219000Y-83763750D01*
X99219000Y-84963000D01*
X100568250Y-84963000D01*
X100727000Y-84804250D01*
X100727000Y-84113690D01*
X100630327Y-83880301D01*
X100451698Y-83701673D01*
X100218309Y-83605000D01*
X99377750Y-83605000D01*
X99219000Y-83763750D01*
X98965000Y-83763750D01*
X98806250Y-83605000D01*
X97965691Y-83605000D01*
X97732302Y-83701673D01*
X97553673Y-83880301D01*
X97457000Y-84113690D01*
X94282000Y-84113690D01*
X94282000Y-81883039D01*
X97776096Y-81883039D01*
X97793633Y-81965819D01*
X98063500Y-82458896D01*
X98501517Y-82811166D01*
X99041000Y-82969000D01*
X99441000Y-82969000D01*
X99441000Y-81661000D01*
X99695000Y-81661000D01*
X99695000Y-82969000D01*
X100095000Y-82969000D01*
X100634483Y-82811166D01*
X101072500Y-82458896D01*
X101342367Y-81965819D01*
X101359904Y-81883039D01*
X101237915Y-81661000D01*
X99695000Y-81661000D01*
X99441000Y-81661000D01*
X97898085Y-81661000D01*
X97776096Y-81883039D01*
X94282000Y-81883039D01*
X94282000Y-60279512D01*
X100332512Y-54229000D01*
X106913000Y-54229000D01*
X106913000Y-55219000D01*
X107085297Y-55831193D01*
X107478754Y-56330851D01*
X108033472Y-56641905D01*
X108159135Y-56672218D01*
X108411000Y-56552740D01*
X108411000Y-54229000D01*
X108665000Y-54229000D01*
X108665000Y-56552740D01*
X108916865Y-56672218D01*
X109042528Y-56641905D01*
X109597246Y-56330851D01*
X109990703Y-55831193D01*
X110163000Y-55219000D01*
X110163000Y-54229000D01*
X108665000Y-54229000D01*
X108411000Y-54229000D01*
X106913000Y-54229000D01*
X100332512Y-54229000D01*
X101576512Y-52985000D01*
X106913000Y-52985000D01*
X106913000Y-53975000D01*
X108411000Y-53975000D01*
X108411000Y-51651260D01*
X108665000Y-51651260D01*
X108665000Y-53975000D01*
X110163000Y-53975000D01*
X110163000Y-52985000D01*
X109990703Y-52372807D01*
X109597246Y-51873149D01*
X109042528Y-51562095D01*
X108916865Y-51531782D01*
X108665000Y-51651260D01*
X108411000Y-51651260D01*
X108159135Y-51531782D01*
X108033472Y-51562095D01*
X107478754Y-51873149D01*
X107085297Y-52372807D01*
X106913000Y-52985000D01*
X101576512Y-52985000D01*
X104221513Y-50340000D01*
X111678488Y-50340000D01*
X112728000Y-51389513D01*
X112728000Y-51474560D01*
X112548000Y-51474560D01*
X112312683Y-51518838D01*
X112096559Y-51657910D01*
X111951569Y-51870110D01*
X111900560Y-52122000D01*
X111900560Y-56082000D01*
X111944838Y-56317317D01*
X112083910Y-56533441D01*
X112296110Y-56678431D01*
X112548000Y-56729440D01*
X112728000Y-56729440D01*
X112728000Y-62484000D01*
X112789658Y-62793974D01*
X112965244Y-63056756D01*
X114997244Y-65088757D01*
X115070104Y-65137440D01*
X115260026Y-65264342D01*
X115570000Y-65326000D01*
X117156494Y-65326000D01*
X116779715Y-65400946D01*
X116297946Y-65722853D01*
X116078000Y-66052026D01*
X115858054Y-65722853D01*
X115376285Y-65400946D01*
X114808000Y-65287907D01*
X114239715Y-65400946D01*
X113757946Y-65722853D01*
X113538000Y-66052026D01*
X113318054Y-65722853D01*
X112836285Y-65400946D01*
X112268000Y-65287907D01*
X111699715Y-65400946D01*
X111217946Y-65722853D01*
X110998000Y-66052026D01*
X110778054Y-65722853D01*
X110296285Y-65400946D01*
X109728000Y-65287907D01*
X109159715Y-65400946D01*
X108677946Y-65722853D01*
X108458000Y-66052026D01*
X108238054Y-65722853D01*
X107756285Y-65400946D01*
X107188000Y-65287907D01*
X106619715Y-65400946D01*
X106137946Y-65722853D01*
X105918000Y-66052026D01*
X105698054Y-65722853D01*
X105216285Y-65400946D01*
X104648000Y-65287907D01*
X104079715Y-65400946D01*
X103597946Y-65722853D01*
X103378000Y-66052026D01*
X103158054Y-65722853D01*
X102676285Y-65400946D01*
X102108000Y-65287907D01*
X101539715Y-65400946D01*
X101057946Y-65722853D01*
X100838000Y-66052026D01*
X100618054Y-65722853D01*
X100136285Y-65400946D01*
X99568000Y-65287907D01*
X98999715Y-65400946D01*
X98517946Y-65722853D01*
X98490150Y-65764452D01*
X98481162Y-65716683D01*
X98342090Y-65500559D01*
X98129890Y-65355569D01*
X97878000Y-65304560D01*
X96178000Y-65304560D01*
X95942683Y-65348838D01*
X95726559Y-65487910D01*
X95581569Y-65700110D01*
X95530560Y-65952000D01*
X95530560Y-67652000D01*
X95574838Y-67887317D01*
X95713910Y-68103441D01*
X95926110Y-68248431D01*
X96178000Y-68299440D01*
X97878000Y-68299440D01*
X98113317Y-68255162D01*
X98329441Y-68116090D01*
X98474431Y-67903890D01*
X98488086Y-67836459D01*
X98517946Y-67881147D01*
X98999715Y-68203054D01*
X99568000Y-68316093D01*
X100136285Y-68203054D01*
X100618054Y-67881147D01*
X100838000Y-67551974D01*
X101057946Y-67881147D01*
X101539715Y-68203054D01*
X102108000Y-68316093D01*
X102676285Y-68203054D01*
X103158054Y-67881147D01*
X103378000Y-67551974D01*
X103597946Y-67881147D01*
X104079715Y-68203054D01*
X104648000Y-68316093D01*
X105216285Y-68203054D01*
X105698054Y-67881147D01*
X105918000Y-67551974D01*
X106137946Y-67881147D01*
X106619715Y-68203054D01*
X107188000Y-68316093D01*
X107756285Y-68203054D01*
X108238054Y-67881147D01*
X108458000Y-67551974D01*
X108677946Y-67881147D01*
X109159715Y-68203054D01*
X109728000Y-68316093D01*
X110296285Y-68203054D01*
X110778054Y-67881147D01*
X110998000Y-67551974D01*
X111217946Y-67881147D01*
X111699715Y-68203054D01*
X112268000Y-68316093D01*
X112836285Y-68203054D01*
X113318054Y-67881147D01*
X113538000Y-67551974D01*
X113757946Y-67881147D01*
X114239715Y-68203054D01*
X114808000Y-68316093D01*
X115376285Y-68203054D01*
X115858054Y-67881147D01*
X116078000Y-67551974D01*
X116297946Y-67881147D01*
X116779715Y-68203054D01*
X117348000Y-68316093D01*
X117916285Y-68203054D01*
X118398054Y-67881147D01*
X118618000Y-67551974D01*
X118837946Y-67881147D01*
X119319715Y-68203054D01*
X119888000Y-68316093D01*
X120456285Y-68203054D01*
X120938054Y-67881147D01*
X121158000Y-67551974D01*
X121377946Y-67881147D01*
X121859715Y-68203054D01*
X122428000Y-68316093D01*
X122996285Y-68203054D01*
X123478054Y-67881147D01*
X123698000Y-67551974D01*
X123917946Y-67881147D01*
X124399715Y-68203054D01*
X124968000Y-68316093D01*
X125536285Y-68203054D01*
X126018054Y-67881147D01*
X126238000Y-67551974D01*
X126457946Y-67881147D01*
X126939715Y-68203054D01*
X127508000Y-68316093D01*
X128076285Y-68203054D01*
X128558054Y-67881147D01*
X128778000Y-67551974D01*
X128997946Y-67881147D01*
X129479715Y-68203054D01*
X130048000Y-68316093D01*
X130616285Y-68203054D01*
X131098054Y-67881147D01*
X131318000Y-67551974D01*
X131537946Y-67881147D01*
X132019715Y-68203054D01*
X132588000Y-68316093D01*
X133156285Y-68203054D01*
X133638054Y-67881147D01*
X133858000Y-67551974D01*
X134077946Y-67881147D01*
X134559715Y-68203054D01*
X135128000Y-68316093D01*
X135696285Y-68203054D01*
X136178054Y-67881147D01*
X136398000Y-67551974D01*
X136617946Y-67881147D01*
X137099715Y-68203054D01*
X137668000Y-68316093D01*
X138236285Y-68203054D01*
X138718054Y-67881147D01*
X138938000Y-67551974D01*
X139157946Y-67881147D01*
X139639715Y-68203054D01*
X140208000Y-68316093D01*
X140776285Y-68203054D01*
X141258054Y-67881147D01*
X141478000Y-67551974D01*
X141697946Y-67881147D01*
X142179715Y-68203054D01*
X142748000Y-68316093D01*
X143316285Y-68203054D01*
X143798054Y-67881147D01*
X144018000Y-67551974D01*
X144237946Y-67881147D01*
X144719715Y-68203054D01*
X145288000Y-68316093D01*
X145856285Y-68203054D01*
X146338054Y-67881147D01*
X146558000Y-67551974D01*
X146777946Y-67881147D01*
X147259715Y-68203054D01*
X147828000Y-68316093D01*
X148396285Y-68203054D01*
X148878054Y-67881147D01*
X149098000Y-67551974D01*
X149317946Y-67881147D01*
X149799715Y-68203054D01*
X150368000Y-68316093D01*
X150936285Y-68203054D01*
X151418054Y-67881147D01*
X151638000Y-67551974D01*
X151857946Y-67881147D01*
X152339715Y-68203054D01*
X152908000Y-68316093D01*
X153476285Y-68203054D01*
X153958054Y-67881147D01*
X154178000Y-67551974D01*
X154397946Y-67881147D01*
X154879715Y-68203054D01*
X155448000Y-68316093D01*
X156016285Y-68203054D01*
X156498054Y-67881147D01*
X156718000Y-67551974D01*
X156937946Y-67881147D01*
X157419715Y-68203054D01*
X157988000Y-68316093D01*
X158556285Y-68203054D01*
X159038054Y-67881147D01*
X159258000Y-67551974D01*
X159477946Y-67881147D01*
X159959715Y-68203054D01*
X160528000Y-68316093D01*
X161096285Y-68203054D01*
X161578054Y-67881147D01*
X161805702Y-67540447D01*
X161872817Y-67683358D01*
X162301076Y-68073645D01*
X162711110Y-68243476D01*
X162941000Y-68122155D01*
X162941000Y-66929000D01*
X163195000Y-66929000D01*
X163195000Y-68122155D01*
X163424890Y-68243476D01*
X163834924Y-68073645D01*
X164263183Y-67683358D01*
X164509486Y-67158892D01*
X164388819Y-66929000D01*
X163195000Y-66929000D01*
X162941000Y-66929000D01*
X162921000Y-66929000D01*
X162921000Y-66675000D01*
X162941000Y-66675000D01*
X162941000Y-65481845D01*
X163195000Y-65481845D01*
X163195000Y-66675000D01*
X164388819Y-66675000D01*
X164509486Y-66445108D01*
X164263183Y-65920642D01*
X163834924Y-65530355D01*
X163424890Y-65360524D01*
X163195000Y-65481845D01*
X162941000Y-65481845D01*
X162711110Y-65360524D01*
X162301076Y-65530355D01*
X161872817Y-65920642D01*
X161805702Y-66063553D01*
X161578054Y-65722853D01*
X161096285Y-65400946D01*
X160528000Y-65287907D01*
X159959715Y-65400946D01*
X159477946Y-65722853D01*
X159258000Y-66052026D01*
X159038054Y-65722853D01*
X158556285Y-65400946D01*
X157988000Y-65287907D01*
X157419715Y-65400946D01*
X156937946Y-65722853D01*
X156718000Y-66052026D01*
X156498054Y-65722853D01*
X156016285Y-65400946D01*
X155448000Y-65287907D01*
X154879715Y-65400946D01*
X154397946Y-65722853D01*
X154178000Y-66052026D01*
X153958054Y-65722853D01*
X153476285Y-65400946D01*
X152908000Y-65287907D01*
X152339715Y-65400946D01*
X151857946Y-65722853D01*
X151638000Y-66052026D01*
X151418054Y-65722853D01*
X150936285Y-65400946D01*
X150368000Y-65287907D01*
X149799715Y-65400946D01*
X149317946Y-65722853D01*
X149098000Y-66052026D01*
X148878054Y-65722853D01*
X148638000Y-65562454D01*
X148638000Y-60167546D01*
X148878054Y-60007147D01*
X149098000Y-59677974D01*
X149317946Y-60007147D01*
X149799715Y-60329054D01*
X150368000Y-60442093D01*
X150936285Y-60329054D01*
X151418054Y-60007147D01*
X151645702Y-59666447D01*
X151712817Y-59809358D01*
X152141076Y-60199645D01*
X152551110Y-60369476D01*
X152781000Y-60248155D01*
X152781000Y-59055000D01*
X153035000Y-59055000D01*
X153035000Y-60248155D01*
X153264890Y-60369476D01*
X153674924Y-60199645D01*
X154103183Y-59809358D01*
X154349486Y-59284892D01*
X154228819Y-59055000D01*
X153035000Y-59055000D01*
X152781000Y-59055000D01*
X152761000Y-59055000D01*
X152761000Y-58801000D01*
X152781000Y-58801000D01*
X152781000Y-57607845D01*
X153035000Y-57607845D01*
X153035000Y-58801000D01*
X154228819Y-58801000D01*
X154349486Y-58571108D01*
X154103183Y-58046642D01*
X153674924Y-57656355D01*
X153264890Y-57486524D01*
X153035000Y-57607845D01*
X152781000Y-57607845D01*
X152551110Y-57486524D01*
X152141076Y-57656355D01*
X151712817Y-58046642D01*
X151645702Y-58189553D01*
X151418054Y-57848853D01*
X151178000Y-57688454D01*
X151178000Y-57028392D01*
X151541461Y-56665564D01*
X151752759Y-56156702D01*
X151753240Y-55605715D01*
X151542831Y-55096485D01*
X151153564Y-54706539D01*
X150644702Y-54495241D01*
X150093715Y-54494760D01*
X149584485Y-54705169D01*
X149194539Y-55094436D01*
X148983241Y-55603298D01*
X148982760Y-56154285D01*
X149193169Y-56663515D01*
X149558000Y-57028982D01*
X149558000Y-57688454D01*
X149317946Y-57848853D01*
X149098000Y-58178026D01*
X148878054Y-57848853D01*
X148396285Y-57526946D01*
X147828000Y-57413907D01*
X147259715Y-57526946D01*
X146777946Y-57848853D01*
X146558000Y-58178026D01*
X146338054Y-57848853D01*
X145856285Y-57526946D01*
X145288000Y-57413907D01*
X144719715Y-57526946D01*
X144237946Y-57848853D01*
X144018000Y-58178026D01*
X143798054Y-57848853D01*
X143316285Y-57526946D01*
X142748000Y-57413907D01*
X142179715Y-57526946D01*
X141697946Y-57848853D01*
X141478000Y-58178026D01*
X141258054Y-57848853D01*
X140776285Y-57526946D01*
X140208000Y-57413907D01*
X139639715Y-57526946D01*
X139157946Y-57848853D01*
X138938000Y-58178026D01*
X138718054Y-57848853D01*
X138236285Y-57526946D01*
X137668000Y-57413907D01*
X137099715Y-57526946D01*
X136617946Y-57848853D01*
X136390298Y-58189553D01*
X136323183Y-58046642D01*
X135894924Y-57656355D01*
X135484890Y-57486524D01*
X135255000Y-57607845D01*
X135255000Y-58801000D01*
X135275000Y-58801000D01*
X135275000Y-59055000D01*
X135255000Y-59055000D01*
X135255000Y-60248155D01*
X135484890Y-60369476D01*
X135894924Y-60199645D01*
X136323183Y-59809358D01*
X136390298Y-59666447D01*
X136617946Y-60007147D01*
X136858000Y-60167546D01*
X136858000Y-65562454D01*
X136617946Y-65722853D01*
X136398000Y-66052026D01*
X136178054Y-65722853D01*
X135696285Y-65400946D01*
X135128000Y-65287907D01*
X134820571Y-65349058D01*
X133398000Y-63926488D01*
X133398000Y-60167546D01*
X133638054Y-60007147D01*
X133865702Y-59666447D01*
X133932817Y-59809358D01*
X134361076Y-60199645D01*
X134771110Y-60369476D01*
X135001000Y-60248155D01*
X135001000Y-59055000D01*
X134981000Y-59055000D01*
X134981000Y-58801000D01*
X135001000Y-58801000D01*
X135001000Y-57607845D01*
X134771110Y-57486524D01*
X134361076Y-57656355D01*
X133932817Y-58046642D01*
X133865702Y-58189553D01*
X133638054Y-57848853D01*
X133156285Y-57526946D01*
X132588000Y-57413907D01*
X132019715Y-57526946D01*
X131537946Y-57848853D01*
X131318000Y-58178026D01*
X131098054Y-57848853D01*
X130858000Y-57688454D01*
X130858000Y-53879750D01*
X162441000Y-53879750D01*
X162441000Y-57276310D01*
X162537673Y-57509699D01*
X162716302Y-57688327D01*
X162949691Y-57785000D01*
X164814250Y-57785000D01*
X164973000Y-57626250D01*
X164973000Y-53721000D01*
X165227000Y-53721000D01*
X165227000Y-57626250D01*
X165385750Y-57785000D01*
X167250309Y-57785000D01*
X167483698Y-57688327D01*
X167662327Y-57509699D01*
X167759000Y-57276310D01*
X167759000Y-53879750D01*
X167600250Y-53721000D01*
X165227000Y-53721000D01*
X164973000Y-53721000D01*
X162599750Y-53721000D01*
X162441000Y-53879750D01*
X130858000Y-53879750D01*
X130858000Y-53342087D01*
X130888086Y-53329656D01*
X131104160Y-53113958D01*
X131723647Y-53113958D01*
X131803920Y-53365259D01*
X132359279Y-53566718D01*
X132949458Y-53540315D01*
X133372080Y-53365259D01*
X133452353Y-53113958D01*
X132588000Y-52249605D01*
X131723647Y-53113958D01*
X131104160Y-53113958D01*
X131306188Y-52912283D01*
X131325951Y-52864688D01*
X131544042Y-52934353D01*
X132408395Y-52070000D01*
X132767605Y-52070000D01*
X133631958Y-52934353D01*
X133883259Y-52854080D01*
X134084718Y-52298721D01*
X134058315Y-51708542D01*
X133883259Y-51285920D01*
X133631958Y-51205647D01*
X132767605Y-52070000D01*
X132408395Y-52070000D01*
X131544042Y-51205647D01*
X131326360Y-51275181D01*
X131307656Y-51229914D01*
X131104140Y-51026042D01*
X131723647Y-51026042D01*
X132588000Y-51890395D01*
X133452353Y-51026042D01*
X133372080Y-50774741D01*
X132816721Y-50573282D01*
X132226542Y-50599685D01*
X131803920Y-50774741D01*
X131723647Y-51026042D01*
X131104140Y-51026042D01*
X130890283Y-50811812D01*
X130344681Y-50585258D01*
X129753911Y-50584743D01*
X129207914Y-50810344D01*
X128789812Y-51227717D01*
X128778252Y-51255557D01*
X128767656Y-51229914D01*
X128350283Y-50811812D01*
X127804681Y-50585258D01*
X127213911Y-50584743D01*
X126667914Y-50810344D01*
X126249812Y-51227717D01*
X126023258Y-51773319D01*
X126022743Y-52364089D01*
X126248344Y-52910086D01*
X126665717Y-53328188D01*
X126698000Y-53341593D01*
X126698000Y-54731608D01*
X126334539Y-55094436D01*
X126123241Y-55603298D01*
X126122760Y-56154285D01*
X126333169Y-56663515D01*
X126698000Y-57028982D01*
X126698000Y-57688454D01*
X126457946Y-57848853D01*
X126428597Y-57892777D01*
X126356327Y-57718302D01*
X126177699Y-57539673D01*
X125944310Y-57443000D01*
X125253750Y-57443000D01*
X125095000Y-57601750D01*
X125095000Y-58801000D01*
X125115000Y-58801000D01*
X125115000Y-59055000D01*
X125095000Y-59055000D01*
X125095000Y-60254250D01*
X125253750Y-60413000D01*
X125944310Y-60413000D01*
X126177699Y-60316327D01*
X126356327Y-60137698D01*
X126428597Y-59963223D01*
X126457946Y-60007147D01*
X126939715Y-60329054D01*
X127428000Y-60426180D01*
X127428000Y-61036560D01*
X127238000Y-61036560D01*
X127002683Y-61080838D01*
X126786559Y-61219910D01*
X126641569Y-61432110D01*
X126590560Y-61684000D01*
X126590560Y-63284000D01*
X126634838Y-63519317D01*
X126754965Y-63706000D01*
X125714026Y-63706000D01*
X125776327Y-63643699D01*
X125873000Y-63410310D01*
X125873000Y-62769750D01*
X125714250Y-62611000D01*
X124365000Y-62611000D01*
X124365000Y-62631000D01*
X124111000Y-62631000D01*
X124111000Y-62611000D01*
X122761750Y-62611000D01*
X122603000Y-62769750D01*
X122603000Y-63410310D01*
X122699673Y-63643699D01*
X122761974Y-63706000D01*
X115905513Y-63706000D01*
X114348000Y-62148488D01*
X114348000Y-61557690D01*
X122603000Y-61557690D01*
X122603000Y-62198250D01*
X122761750Y-62357000D01*
X124111000Y-62357000D01*
X124111000Y-61207750D01*
X124365000Y-61207750D01*
X124365000Y-62357000D01*
X125714250Y-62357000D01*
X125873000Y-62198250D01*
X125873000Y-61557690D01*
X125776327Y-61324301D01*
X125597698Y-61145673D01*
X125364309Y-61049000D01*
X124523750Y-61049000D01*
X124365000Y-61207750D01*
X124111000Y-61207750D01*
X123952250Y-61049000D01*
X123111691Y-61049000D01*
X122878302Y-61145673D01*
X122699673Y-61324301D01*
X122603000Y-61557690D01*
X114348000Y-61557690D01*
X114348000Y-59213750D01*
X123483000Y-59213750D01*
X123483000Y-59904309D01*
X123579673Y-60137698D01*
X123758301Y-60316327D01*
X123991690Y-60413000D01*
X124682250Y-60413000D01*
X124841000Y-60254250D01*
X124841000Y-59055000D01*
X123641750Y-59055000D01*
X123483000Y-59213750D01*
X114348000Y-59213750D01*
X114348000Y-57951691D01*
X123483000Y-57951691D01*
X123483000Y-58642250D01*
X123641750Y-58801000D01*
X124841000Y-58801000D01*
X124841000Y-57601750D01*
X124682250Y-57443000D01*
X123991690Y-57443000D01*
X123758301Y-57539673D01*
X123579673Y-57718302D01*
X123483000Y-57951691D01*
X114348000Y-57951691D01*
X114348000Y-56729440D01*
X114528000Y-56729440D01*
X114763317Y-56685162D01*
X114979441Y-56546090D01*
X115124431Y-56333890D01*
X115175440Y-56082000D01*
X115175440Y-52122000D01*
X115131162Y-51886683D01*
X114992090Y-51670559D01*
X114779890Y-51525569D01*
X114528000Y-51474560D01*
X114348000Y-51474560D01*
X114348000Y-51054000D01*
X114286342Y-50744026D01*
X114172254Y-50573282D01*
X114110756Y-50481243D01*
X113541203Y-49911690D01*
X162441000Y-49911690D01*
X162441000Y-53308250D01*
X162599750Y-53467000D01*
X164973000Y-53467000D01*
X164973000Y-49561750D01*
X165227000Y-49561750D01*
X165227000Y-53467000D01*
X167600250Y-53467000D01*
X167759000Y-53308250D01*
X167759000Y-49911690D01*
X167662327Y-49678301D01*
X167483698Y-49499673D01*
X167250309Y-49403000D01*
X165385750Y-49403000D01*
X165227000Y-49561750D01*
X164973000Y-49561750D01*
X164814250Y-49403000D01*
X162949691Y-49403000D01*
X162716302Y-49499673D01*
X162537673Y-49678301D01*
X162441000Y-49911690D01*
X113541203Y-49911690D01*
X112586756Y-48957244D01*
X112547427Y-48930965D01*
X112323974Y-48781658D01*
X112014000Y-48720000D01*
X103886000Y-48720000D01*
X103576026Y-48781658D01*
X103444635Y-48869451D01*
X103313243Y-48957244D01*
X92899244Y-59371244D01*
X92723658Y-59634026D01*
X92662000Y-59944000D01*
X90880000Y-59944000D01*
X90880000Y-51018336D01*
X91848527Y-51018336D01*
X92210866Y-51895263D01*
X92881208Y-52566776D01*
X93757501Y-52930645D01*
X94706336Y-52931473D01*
X95583263Y-52569134D01*
X96254776Y-51898792D01*
X96618645Y-51022499D01*
X96619473Y-50073664D01*
X96257134Y-49196737D01*
X95586792Y-48525224D01*
X94710499Y-48161355D01*
X93761664Y-48160527D01*
X92884737Y-48522866D01*
X92213224Y-49193208D01*
X91849355Y-50069501D01*
X91848527Y-51018336D01*
X90880000Y-51018336D01*
X90880000Y-47192000D01*
X192584000Y-47192000D01*
X192584000Y-108764000D01*
X192584000Y-108764000D01*
G37*
X192584000Y-108764000D02*
X90880000Y-108764000D01*
X90880000Y-106390336D01*
X91848527Y-106390336D01*
X92210866Y-107267263D01*
X92881208Y-107938776D01*
X93757501Y-108302645D01*
X94706336Y-108303473D01*
X95583263Y-107941134D01*
X96254776Y-107270792D01*
X96618645Y-106394499D01*
X96619473Y-105445664D01*
X96257134Y-104568737D01*
X95586792Y-103897224D01*
X94710499Y-103533355D01*
X93761664Y-103532527D01*
X92884737Y-103894866D01*
X92213224Y-104565208D01*
X91849355Y-105441501D01*
X91848527Y-106390336D01*
X90880000Y-106390336D01*
X90880000Y-98749000D01*
X113563001Y-98749000D01*
X113563001Y-102569000D01*
X133833000Y-102569000D01*
X133833000Y-98749000D01*
X113563001Y-98749000D01*
X90880000Y-98749000D01*
X90880000Y-59944000D01*
X92662000Y-59944000D01*
X92662000Y-96012000D01*
X92723658Y-96321974D01*
X92818575Y-96464027D01*
X92899244Y-96584756D01*
X93661244Y-97346757D01*
X93924027Y-97522343D01*
X94061897Y-97549766D01*
X94234000Y-97584000D01*
X103124000Y-97584000D01*
X103433974Y-97522342D01*
X103696756Y-97346756D01*
X103950756Y-97092757D01*
X104110288Y-96854000D01*
X104126342Y-96829974D01*
X104188000Y-96520000D01*
X104188000Y-94536000D01*
X104261608Y-94536000D01*
X104624436Y-94899461D01*
X105133298Y-95110759D01*
X105684285Y-95111240D01*
X106193515Y-94900831D01*
X106583461Y-94511564D01*
X106794759Y-94002702D01*
X106795240Y-93451715D01*
X106584831Y-92942485D01*
X106195564Y-92552539D01*
X105686702Y-92341241D01*
X105135715Y-92340760D01*
X104626485Y-92551169D01*
X104261018Y-92916000D01*
X102451558Y-92916000D01*
X102409162Y-92690683D01*
X102270090Y-92474559D01*
X102057890Y-92329569D01*
X101806000Y-92278560D01*
X101616000Y-92278560D01*
X101616000Y-91408000D01*
X101554342Y-91098026D01*
X101523924Y-91052503D01*
X101539715Y-91063054D01*
X102108000Y-91176093D01*
X102676285Y-91063054D01*
X103158054Y-90741147D01*
X103378000Y-90411974D01*
X103597946Y-90741147D01*
X104079715Y-91063054D01*
X104648000Y-91176093D01*
X105216285Y-91063054D01*
X105698054Y-90741147D01*
X105918000Y-90411974D01*
X106137946Y-90741147D01*
X106619715Y-91063054D01*
X107188000Y-91176093D01*
X107756285Y-91063054D01*
X108238054Y-90741147D01*
X108458000Y-90411974D01*
X108677946Y-90741147D01*
X109159715Y-91063054D01*
X109728000Y-91176093D01*
X110296285Y-91063054D01*
X110778054Y-90741147D01*
X110998000Y-90411974D01*
X111217946Y-90741147D01*
X111699715Y-91063054D01*
X112268000Y-91176093D01*
X112836285Y-91063054D01*
X113318054Y-90741147D01*
X113538000Y-90411974D01*
X113757946Y-90741147D01*
X114239715Y-91063054D01*
X114808000Y-91176093D01*
X115376285Y-91063054D01*
X115858054Y-90741147D01*
X116078000Y-90411974D01*
X116297946Y-90741147D01*
X116779715Y-91063054D01*
X117348000Y-91176093D01*
X117916285Y-91063054D01*
X118398054Y-90741147D01*
X118618000Y-90411974D01*
X118837946Y-90741147D01*
X119319715Y-91063054D01*
X119888000Y-91176093D01*
X120456285Y-91063054D01*
X120938054Y-90741147D01*
X121158000Y-90411974D01*
X121377946Y-90741147D01*
X121859715Y-91063054D01*
X122428000Y-91176093D01*
X122996285Y-91063054D01*
X123478054Y-90741147D01*
X123698000Y-90411974D01*
X123917946Y-90741147D01*
X124399715Y-91063054D01*
X124968000Y-91176093D01*
X125536285Y-91063054D01*
X126018054Y-90741147D01*
X126238000Y-90411974D01*
X126457946Y-90741147D01*
X126939715Y-91063054D01*
X127508000Y-91176093D01*
X128076285Y-91063054D01*
X128558054Y-90741147D01*
X128778000Y-90411974D01*
X128997946Y-90741147D01*
X129479715Y-91063054D01*
X130048000Y-91176093D01*
X130616285Y-91063054D01*
X131098054Y-90741147D01*
X131318000Y-90411974D01*
X131537946Y-90741147D01*
X132019715Y-91063054D01*
X132588000Y-91176093D01*
X133156285Y-91063054D01*
X133638054Y-90741147D01*
X133858000Y-90411974D01*
X134077946Y-90741147D01*
X134559715Y-91063054D01*
X135128000Y-91176093D01*
X135696285Y-91063054D01*
X136178054Y-90741147D01*
X136398000Y-90411974D01*
X136617946Y-90741147D01*
X137099715Y-91063054D01*
X137668000Y-91176093D01*
X138236285Y-91063054D01*
X138718054Y-90741147D01*
X138938000Y-90411974D01*
X139157946Y-90741147D01*
X139639715Y-91063054D01*
X140208000Y-91176093D01*
X140776285Y-91063054D01*
X141258054Y-90741147D01*
X141478000Y-90411974D01*
X141697946Y-90741147D01*
X142179715Y-91063054D01*
X142748000Y-91176093D01*
X143316285Y-91063054D01*
X143798054Y-90741147D01*
X144018000Y-90411974D01*
X144237946Y-90741147D01*
X144719715Y-91063054D01*
X145288000Y-91176093D01*
X145856285Y-91063054D01*
X146338054Y-90741147D01*
X146558000Y-90411974D01*
X146777946Y-90741147D01*
X147259715Y-91063054D01*
X147828000Y-91176093D01*
X148396285Y-91063054D01*
X148878054Y-90741147D01*
X149098000Y-90411974D01*
X149317946Y-90741147D01*
X149799715Y-91063054D01*
X150368000Y-91176093D01*
X150936285Y-91063054D01*
X151418054Y-90741147D01*
X151638000Y-90411974D01*
X151857946Y-90741147D01*
X152339715Y-91063054D01*
X152908000Y-91176093D01*
X153476285Y-91063054D01*
X153958054Y-90741147D01*
X154178000Y-90411974D01*
X154397946Y-90741147D01*
X154879715Y-91063054D01*
X155448000Y-91176093D01*
X156016285Y-91063054D01*
X156498054Y-90741147D01*
X156718000Y-90411974D01*
X156937946Y-90741147D01*
X157178000Y-90901546D01*
X157178000Y-99090454D01*
X156937946Y-99250853D01*
X156710298Y-99591553D01*
X156643183Y-99448642D01*
X156214924Y-99058355D01*
X155804890Y-98888524D01*
X155575000Y-99009845D01*
X155575000Y-100203000D01*
X155595000Y-100203000D01*
X155595000Y-100457000D01*
X155575000Y-100457000D01*
X155575000Y-101650155D01*
X155804890Y-101771476D01*
X156214924Y-101601645D01*
X156643183Y-101211358D01*
X156710298Y-101068447D01*
X156937946Y-101409147D01*
X157419715Y-101731054D01*
X157988000Y-101844093D01*
X158556285Y-101731054D01*
X159038054Y-101409147D01*
X159258000Y-101079974D01*
X159477946Y-101409147D01*
X159959715Y-101731054D01*
X160528000Y-101844093D01*
X161096285Y-101731054D01*
X161578054Y-101409147D01*
X161805702Y-101068447D01*
X161872817Y-101211358D01*
X162301076Y-101601645D01*
X162711110Y-101771476D01*
X162941000Y-101650155D01*
X162941000Y-100457000D01*
X162921000Y-100457000D01*
X162921000Y-100203000D01*
X162941000Y-100203000D01*
X162941000Y-99009845D01*
X162711110Y-98888524D01*
X162301076Y-99058355D01*
X161872817Y-99448642D01*
X161805702Y-99591553D01*
X161578054Y-99250853D01*
X161338000Y-99090454D01*
X161338000Y-90901546D01*
X161578054Y-90741147D01*
X161798000Y-90411974D01*
X162017946Y-90741147D01*
X162499715Y-91063054D01*
X163068000Y-91176093D01*
X163636285Y-91063054D01*
X164118054Y-90741147D01*
X164439961Y-90259378D01*
X164458046Y-90168459D01*
X166068000Y-91778413D01*
X166068000Y-98907407D01*
X165608000Y-98815907D01*
X165039715Y-98928946D01*
X164557946Y-99250853D01*
X164330298Y-99591553D01*
X164263183Y-99448642D01*
X163834924Y-99058355D01*
X163424890Y-98888524D01*
X163195000Y-99009845D01*
X163195000Y-100203000D01*
X163215000Y-100203000D01*
X163215000Y-100457000D01*
X163195000Y-100457000D01*
X163195000Y-101650155D01*
X163424890Y-101771476D01*
X163834924Y-101601645D01*
X164263183Y-101211358D01*
X164330298Y-101068447D01*
X164557946Y-101409147D01*
X165039715Y-101731054D01*
X165608000Y-101844093D01*
X166176285Y-101731054D01*
X166658054Y-101409147D01*
X166837892Y-101140000D01*
X166878000Y-101140000D01*
X167187974Y-101078342D01*
X167450756Y-100902756D01*
X167461952Y-100886000D01*
X169927162Y-100886000D01*
X170021169Y-101113515D01*
X170410436Y-101503461D01*
X170919298Y-101714759D01*
X171470285Y-101715240D01*
X171979515Y-101504831D01*
X172369461Y-101115564D01*
X172580759Y-100606702D01*
X172581240Y-100055715D01*
X172370831Y-99546485D01*
X171981564Y-99156539D01*
X171472702Y-98945241D01*
X170921715Y-98944760D01*
X170412485Y-99155169D01*
X170301461Y-99266000D01*
X167688000Y-99266000D01*
X167688000Y-91442900D01*
X167676086Y-91383000D01*
X171696143Y-91383000D01*
X171696143Y-95203000D01*
X174251857Y-95203000D01*
X174251857Y-91383000D01*
X171696143Y-91383000D01*
X167676086Y-91383000D01*
X167626342Y-91132926D01*
X167482961Y-90918342D01*
X167450756Y-90870143D01*
X163772556Y-87191944D01*
X163688318Y-87135658D01*
X163509774Y-87016358D01*
X163199800Y-86954700D01*
X111714595Y-86954700D01*
X111776000Y-86646000D01*
X111776000Y-86587440D01*
X111966000Y-86587440D01*
X112201317Y-86543162D01*
X112417441Y-86404090D01*
X112562431Y-86191890D01*
X112613440Y-85940000D01*
X112613440Y-85089750D01*
X114135000Y-85089750D01*
X114135000Y-85930309D01*
X114231673Y-86163698D01*
X114410301Y-86342327D01*
X114643690Y-86439000D01*
X115284250Y-86439000D01*
X115443000Y-86280250D01*
X115443000Y-84931000D01*
X115697000Y-84931000D01*
X115697000Y-86280250D01*
X115855750Y-86439000D01*
X116496310Y-86439000D01*
X116729699Y-86342327D01*
X116908327Y-86163698D01*
X117005000Y-85930309D01*
X117005000Y-85089750D01*
X116846250Y-84931000D01*
X115697000Y-84931000D01*
X115443000Y-84931000D01*
X114293750Y-84931000D01*
X114135000Y-85089750D01*
X112613440Y-85089750D01*
X112613440Y-84588073D01*
X112840756Y-84360757D01*
X112994960Y-84129974D01*
X113016342Y-84097974D01*
X113078000Y-83788000D01*
X113078000Y-83677691D01*
X114135000Y-83677691D01*
X114135000Y-84518250D01*
X114293750Y-84677000D01*
X115443000Y-84677000D01*
X115443000Y-83327750D01*
X115697000Y-83327750D01*
X115697000Y-84677000D01*
X116846250Y-84677000D01*
X117005000Y-84518250D01*
X117005000Y-83677691D01*
X116908327Y-83444302D01*
X116729699Y-83265673D01*
X116496310Y-83169000D01*
X115855750Y-83169000D01*
X115697000Y-83327750D01*
X115443000Y-83327750D01*
X115284250Y-83169000D01*
X114643690Y-83169000D01*
X114410301Y-83265673D01*
X114231673Y-83444302D01*
X114135000Y-83677691D01*
X113078000Y-83677691D01*
X113078000Y-74676000D01*
X113036246Y-74466090D01*
X113016343Y-74366027D01*
X112840757Y-74103244D01*
X112078756Y-73341244D01*
X111815974Y-73165658D01*
X111506000Y-73104000D01*
X111315423Y-73104000D01*
X111178648Y-72899302D01*
X110713101Y-72588233D01*
X110551055Y-72556000D01*
X113954560Y-72556000D01*
X113954560Y-74256000D01*
X113998838Y-74491317D01*
X114137910Y-74707441D01*
X114350110Y-74852431D01*
X114602000Y-74903440D01*
X114792000Y-74903440D01*
X114792000Y-75006560D01*
X114602000Y-75006560D01*
X114366683Y-75050838D01*
X114150559Y-75189910D01*
X114005569Y-75402110D01*
X113954560Y-75654000D01*
X113954560Y-77254000D01*
X113998838Y-77489317D01*
X114137910Y-77705441D01*
X114350110Y-77850431D01*
X114602000Y-77901440D01*
X114792000Y-77901440D01*
X114792000Y-78010000D01*
X114853658Y-78319974D01*
X114984802Y-78516244D01*
X115029244Y-78582756D01*
X115603047Y-79156560D01*
X114770000Y-79156560D01*
X114534683Y-79200838D01*
X114318559Y-79339910D01*
X114173569Y-79552110D01*
X114122560Y-79804000D01*
X114122560Y-81804000D01*
X114166838Y-82039317D01*
X114305910Y-82255441D01*
X114518110Y-82400431D01*
X114770000Y-82451440D01*
X116370000Y-82451440D01*
X116605317Y-82407162D01*
X116821441Y-82268090D01*
X116966431Y-82055890D01*
X117017440Y-81804000D01*
X117017440Y-81614000D01*
X117044488Y-81614000D01*
X117268000Y-81837513D01*
X117268000Y-84550000D01*
X117329658Y-84859974D01*
X117451285Y-85042001D01*
X117505244Y-85122756D01*
X118013243Y-85630756D01*
X118144635Y-85718549D01*
X118276026Y-85806342D01*
X118586000Y-85868000D01*
X118948560Y-85868000D01*
X118948560Y-86058000D01*
X118992838Y-86293317D01*
X119131910Y-86509441D01*
X119344110Y-86654431D01*
X119596000Y-86705440D01*
X121196000Y-86705440D01*
X121431317Y-86661162D01*
X121647441Y-86522090D01*
X121792431Y-86309890D01*
X121843440Y-86058000D01*
X121843440Y-85868000D01*
X122968000Y-85868000D01*
X123277974Y-85806342D01*
X123540756Y-85630756D01*
X123825000Y-85346512D01*
X124903243Y-86424756D01*
X124983418Y-86478327D01*
X125166026Y-86600342D01*
X125476000Y-86662000D01*
X174416488Y-86662000D01*
X174958000Y-87203513D01*
X174958000Y-90490827D01*
X174936683Y-90494838D01*
X174720559Y-90633910D01*
X174575569Y-90846110D01*
X174524560Y-91098000D01*
X174524560Y-92798000D01*
X174568838Y-93033317D01*
X174707910Y-93249441D01*
X174920110Y-93394431D01*
X174987541Y-93408086D01*
X174942853Y-93437946D01*
X174620946Y-93919715D01*
X174507907Y-94488000D01*
X174620946Y-95056285D01*
X174942853Y-95538054D01*
X175212000Y-95717892D01*
X175212000Y-102026487D01*
X175041488Y-102197000D01*
X151178000Y-102197000D01*
X151178000Y-101569546D01*
X151418054Y-101409147D01*
X151638000Y-101079974D01*
X151857946Y-101409147D01*
X152339715Y-101731054D01*
X152908000Y-101844093D01*
X153476285Y-101731054D01*
X153958054Y-101409147D01*
X154185702Y-101068447D01*
X154252817Y-101211358D01*
X154681076Y-101601645D01*
X155091110Y-101771476D01*
X155321000Y-101650155D01*
X155321000Y-100457000D01*
X155301000Y-100457000D01*
X155301000Y-100203000D01*
X155321000Y-100203000D01*
X155321000Y-99009845D01*
X155091110Y-98888524D01*
X154681076Y-99058355D01*
X154252817Y-99448642D01*
X154185702Y-99591553D01*
X153958054Y-99250853D01*
X153718000Y-99090454D01*
X153718000Y-97028000D01*
X153656342Y-96718026D01*
X153524025Y-96520000D01*
X153480756Y-96455243D01*
X153226756Y-96201244D01*
X152963974Y-96025658D01*
X152654000Y-95964000D01*
X152237440Y-95964000D01*
X152237440Y-95924000D01*
X152193162Y-95688683D01*
X152054090Y-95472559D01*
X151841890Y-95327569D01*
X151590000Y-95276560D01*
X149590000Y-95276560D01*
X149354683Y-95320838D01*
X149138559Y-95459910D01*
X148993569Y-95672110D01*
X148942560Y-95924000D01*
X148942560Y-97624000D01*
X148986838Y-97859317D01*
X149125910Y-98075441D01*
X149338110Y-98220431D01*
X149590000Y-98271440D01*
X151590000Y-98271440D01*
X151825317Y-98227162D01*
X152041441Y-98088090D01*
X152098000Y-98005313D01*
X152098000Y-99090454D01*
X151857946Y-99250853D01*
X151638000Y-99580026D01*
X151418054Y-99250853D01*
X150936285Y-98928946D01*
X150368000Y-98815907D01*
X149799715Y-98928946D01*
X149317946Y-99250853D01*
X149098000Y-99580026D01*
X148878054Y-99250853D01*
X148396285Y-98928946D01*
X147828000Y-98815907D01*
X147259715Y-98928946D01*
X146777946Y-99250853D01*
X146558000Y-99580026D01*
X146338054Y-99250853D01*
X145856285Y-98928946D01*
X145288000Y-98815907D01*
X144719715Y-98928946D01*
X144237946Y-99250853D01*
X144210150Y-99292452D01*
X144201162Y-99244683D01*
X144062090Y-99028559D01*
X143849890Y-98883569D01*
X143598000Y-98832560D01*
X143558000Y-98832560D01*
X143558000Y-97617512D01*
X143591513Y-97584000D01*
X144942560Y-97584000D01*
X144942560Y-97624000D01*
X144986838Y-97859317D01*
X145125910Y-98075441D01*
X145338110Y-98220431D01*
X145590000Y-98271440D01*
X147590000Y-98271440D01*
X147825317Y-98227162D01*
X148041441Y-98088090D01*
X148186431Y-97875890D01*
X148237440Y-97624000D01*
X148237440Y-95924000D01*
X148193162Y-95688683D01*
X148054090Y-95472559D01*
X147841890Y-95327569D01*
X147590000Y-95276560D01*
X147400000Y-95276560D01*
X147400000Y-95173440D01*
X147590000Y-95173440D01*
X147825317Y-95129162D01*
X148041441Y-94990090D01*
X148186431Y-94777890D01*
X148237440Y-94526000D01*
X148237440Y-94011750D01*
X148955000Y-94011750D01*
X148955000Y-94652310D01*
X149051673Y-94885699D01*
X149230302Y-95064327D01*
X149463691Y-95161000D01*
X150304250Y-95161000D01*
X150463000Y-95002250D01*
X150463000Y-93853000D01*
X150717000Y-93853000D01*
X150717000Y-95002250D01*
X150875750Y-95161000D01*
X151716309Y-95161000D01*
X151949698Y-95064327D01*
X152128327Y-94885699D01*
X152225000Y-94652310D01*
X152225000Y-94011750D01*
X152066250Y-93853000D01*
X150717000Y-93853000D01*
X150463000Y-93853000D01*
X149113750Y-93853000D01*
X148955000Y-94011750D01*
X148237440Y-94011750D01*
X148237440Y-92926000D01*
X148213674Y-92799690D01*
X148955000Y-92799690D01*
X148955000Y-93440250D01*
X149113750Y-93599000D01*
X150463000Y-93599000D01*
X150463000Y-92449750D01*
X150717000Y-92449750D01*
X150717000Y-93599000D01*
X152066250Y-93599000D01*
X152225000Y-93440250D01*
X152225000Y-92799690D01*
X152128327Y-92566301D01*
X151949698Y-92387673D01*
X151716309Y-92291000D01*
X150875750Y-92291000D01*
X150717000Y-92449750D01*
X150463000Y-92449750D01*
X150304250Y-92291000D01*
X149463691Y-92291000D01*
X149230302Y-92387673D01*
X149051673Y-92566301D01*
X148955000Y-92799690D01*
X148213674Y-92799690D01*
X148193162Y-92690683D01*
X148054090Y-92474559D01*
X147841890Y-92329569D01*
X147590000Y-92278560D01*
X145590000Y-92278560D01*
X145354683Y-92322838D01*
X145138559Y-92461910D01*
X144993569Y-92674110D01*
X144944585Y-92916000D01*
X141356392Y-92916000D01*
X140993564Y-92552539D01*
X140484702Y-92341241D01*
X139933715Y-92340760D01*
X139424485Y-92551169D01*
X139034539Y-92940436D01*
X138823241Y-93449298D01*
X138822760Y-94000285D01*
X139033169Y-94509515D01*
X139422436Y-94899461D01*
X139931298Y-95110759D01*
X140482285Y-95111240D01*
X140991515Y-94900831D01*
X141356982Y-94536000D01*
X141938000Y-94536000D01*
X141938000Y-98832560D01*
X141898000Y-98832560D01*
X141662683Y-98876838D01*
X141446559Y-99015910D01*
X141301569Y-99228110D01*
X141250560Y-99480000D01*
X141250560Y-101180000D01*
X141294838Y-101415317D01*
X141433910Y-101631441D01*
X141646110Y-101776431D01*
X141898000Y-101827440D01*
X141938000Y-101827440D01*
X141938000Y-105156000D01*
X141999658Y-105465974D01*
X142026763Y-105506539D01*
X142175244Y-105728756D01*
X142683243Y-106236756D01*
X142723179Y-106263440D01*
X142946026Y-106412342D01*
X143256000Y-106474000D01*
X169811179Y-106474000D01*
X169810760Y-106954285D01*
X170021169Y-107463515D01*
X170410436Y-107853461D01*
X170919298Y-108064759D01*
X171470285Y-108065240D01*
X171979515Y-107854831D01*
X172369461Y-107465564D01*
X172580759Y-106956702D01*
X172581180Y-106474000D01*
X182340000Y-106474000D01*
X182649974Y-106412342D01*
X182682908Y-106390336D01*
X187098527Y-106390336D01*
X187460866Y-107267263D01*
X188131208Y-107938776D01*
X189007501Y-108302645D01*
X189956336Y-108303473D01*
X190833263Y-107941134D01*
X191504776Y-107270792D01*
X191868645Y-106394499D01*
X191869473Y-105445664D01*
X191507134Y-104568737D01*
X190836792Y-103897224D01*
X189960499Y-103533355D01*
X189011664Y-103532527D01*
X188134737Y-103894866D01*
X187463224Y-104565208D01*
X187099355Y-105441501D01*
X187098527Y-106390336D01*
X182682908Y-106390336D01*
X182872821Y-106263440D01*
X184238000Y-106263440D01*
X184473317Y-106219162D01*
X184689441Y-106080090D01*
X184834431Y-105867890D01*
X184885440Y-105616000D01*
X184885440Y-103616000D01*
X184849689Y-103426000D01*
X184912000Y-103426000D01*
X185221974Y-103364342D01*
X185484756Y-103188756D01*
X185738756Y-102934757D01*
X185897602Y-102697027D01*
X185914342Y-102671974D01*
X185976000Y-102362000D01*
X185976000Y-95717892D01*
X186245147Y-95538054D01*
X186567054Y-95056285D01*
X186680093Y-94488000D01*
X186567054Y-93919715D01*
X186245147Y-93437946D01*
X186203548Y-93410150D01*
X186251317Y-93401162D01*
X186467441Y-93262090D01*
X186612431Y-93049890D01*
X186663440Y-92798000D01*
X186663440Y-91637000D01*
X186936143Y-91637000D01*
X186936143Y-95457000D01*
X189491857Y-95457000D01*
X189491857Y-91637000D01*
X186936143Y-91637000D01*
X186663440Y-91637000D01*
X186663440Y-91098000D01*
X186619162Y-90862683D01*
X186480090Y-90646559D01*
X186267890Y-90501569D01*
X186016000Y-90450560D01*
X185976000Y-90450560D01*
X185976000Y-90170000D01*
X185914342Y-89860026D01*
X185782025Y-89662000D01*
X185738756Y-89597243D01*
X178736378Y-82594865D01*
X181071782Y-82594865D01*
X181102095Y-82720528D01*
X181413149Y-83275246D01*
X181912807Y-83668703D01*
X182525000Y-83841000D01*
X183515000Y-83841000D01*
X183515000Y-82343000D01*
X183769000Y-82343000D01*
X183769000Y-83841000D01*
X184759000Y-83841000D01*
X185371193Y-83668703D01*
X185870851Y-83275246D01*
X186181905Y-82720528D01*
X186212218Y-82594865D01*
X186092740Y-82343000D01*
X183769000Y-82343000D01*
X183515000Y-82343000D01*
X181191260Y-82343000D01*
X181071782Y-82594865D01*
X178736378Y-82594865D01*
X178118756Y-81977244D01*
X178101657Y-81965819D01*
X177909069Y-81837135D01*
X181071782Y-81837135D01*
X181191260Y-82089000D01*
X183515000Y-82089000D01*
X183515000Y-80591000D01*
X183769000Y-80591000D01*
X183769000Y-82089000D01*
X186092740Y-82089000D01*
X186212218Y-81837135D01*
X186181905Y-81711472D01*
X185870851Y-81156754D01*
X185371193Y-80763297D01*
X184759000Y-80591000D01*
X183769000Y-80591000D01*
X183515000Y-80591000D01*
X182525000Y-80591000D01*
X181912807Y-80763297D01*
X181413149Y-81156754D01*
X181102095Y-81711472D01*
X181071782Y-81837135D01*
X177909069Y-81837135D01*
X177855974Y-81801658D01*
X177546000Y-81740000D01*
X166197513Y-81740000D01*
X165909100Y-81451588D01*
X166113317Y-81413162D01*
X166329441Y-81274090D01*
X166474431Y-81061890D01*
X166525440Y-80810000D01*
X166525440Y-80295750D01*
X167243000Y-80295750D01*
X167243000Y-80936310D01*
X167339673Y-81169699D01*
X167518302Y-81348327D01*
X167751691Y-81445000D01*
X168592250Y-81445000D01*
X168751000Y-81286250D01*
X168751000Y-80137000D01*
X169005000Y-80137000D01*
X169005000Y-81286250D01*
X169163750Y-81445000D01*
X170004309Y-81445000D01*
X170237698Y-81348327D01*
X170416327Y-81169699D01*
X170513000Y-80936310D01*
X170513000Y-80295750D01*
X170354250Y-80137000D01*
X169005000Y-80137000D01*
X168751000Y-80137000D01*
X167401750Y-80137000D01*
X167243000Y-80295750D01*
X166525440Y-80295750D01*
X166525440Y-79210000D01*
X166501674Y-79083690D01*
X167243000Y-79083690D01*
X167243000Y-79724250D01*
X167401750Y-79883000D01*
X168751000Y-79883000D01*
X168751000Y-78733750D01*
X169005000Y-78733750D01*
X169005000Y-79883000D01*
X170354250Y-79883000D01*
X170513000Y-79724250D01*
X170513000Y-79083690D01*
X170416327Y-78850301D01*
X170237698Y-78671673D01*
X170004309Y-78575000D01*
X169163750Y-78575000D01*
X169005000Y-78733750D01*
X168751000Y-78733750D01*
X168592250Y-78575000D01*
X167751691Y-78575000D01*
X167518302Y-78671673D01*
X167339673Y-78850301D01*
X167243000Y-79083690D01*
X166501674Y-79083690D01*
X166481162Y-78974683D01*
X166342090Y-78758559D01*
X166129890Y-78613569D01*
X165878000Y-78562560D01*
X164644952Y-78562560D01*
X165256073Y-77951440D01*
X165878000Y-77951440D01*
X166113317Y-77907162D01*
X166329441Y-77768090D01*
X166474431Y-77555890D01*
X166525440Y-77304000D01*
X166525440Y-75604000D01*
X166503237Y-75486000D01*
X167254456Y-75486000D01*
X167230560Y-75604000D01*
X167230560Y-77304000D01*
X167274838Y-77539317D01*
X167413910Y-77755441D01*
X167626110Y-77900431D01*
X167878000Y-77951440D01*
X169878000Y-77951440D01*
X170113317Y-77907162D01*
X170329441Y-77768090D01*
X170474431Y-77555890D01*
X170525440Y-77304000D01*
X170525440Y-75604000D01*
X170503237Y-75486000D01*
X182290488Y-75486000D01*
X182383048Y-75578560D01*
X181662000Y-75578560D01*
X181426683Y-75622838D01*
X181210559Y-75761910D01*
X181065569Y-75974110D01*
X181014560Y-76226000D01*
X181014560Y-78206000D01*
X181058838Y-78441317D01*
X181197910Y-78657441D01*
X181410110Y-78802431D01*
X181662000Y-78853440D01*
X185622000Y-78853440D01*
X185857317Y-78809162D01*
X186073441Y-78670090D01*
X186218431Y-78457890D01*
X186269440Y-78206000D01*
X186269440Y-76226000D01*
X186225162Y-75990683D01*
X186086090Y-75774559D01*
X185873890Y-75629569D01*
X185622000Y-75578560D01*
X184429435Y-75578560D01*
X184390342Y-75382026D01*
X184301294Y-75248757D01*
X184214757Y-75119244D01*
X183198756Y-74103244D01*
X183015331Y-73980683D01*
X182935974Y-73927658D01*
X182626000Y-73866000D01*
X162373544Y-73866000D01*
X162397440Y-73748000D01*
X162397440Y-72048000D01*
X162353162Y-71812683D01*
X162214090Y-71596559D01*
X162001890Y-71451569D01*
X161750000Y-71400560D01*
X159750000Y-71400560D01*
X159514683Y-71444838D01*
X159298559Y-71583910D01*
X159153569Y-71796110D01*
X159102560Y-72048000D01*
X159102560Y-73748000D01*
X159146838Y-73983317D01*
X159237425Y-74124093D01*
X158948026Y-74181658D01*
X158884696Y-74223974D01*
X158685243Y-74357244D01*
X158431244Y-74611244D01*
X158255658Y-74874026D01*
X158201910Y-75144236D01*
X158001890Y-75007569D01*
X157750000Y-74956560D01*
X155750000Y-74956560D01*
X155514683Y-75000838D01*
X155298559Y-75139910D01*
X155153569Y-75352110D01*
X155102560Y-75604000D01*
X155102560Y-75644000D01*
X153093140Y-75644000D01*
X153018717Y-75269849D01*
X152707648Y-74804302D01*
X152329293Y-74551493D01*
X152761500Y-74203896D01*
X153031367Y-73710819D01*
X153048904Y-73628039D01*
X152926915Y-73406000D01*
X151384000Y-73406000D01*
X151384000Y-73426000D01*
X151130000Y-73426000D01*
X151130000Y-73406000D01*
X149587085Y-73406000D01*
X149465096Y-73628039D01*
X149482633Y-73710819D01*
X149752500Y-74203896D01*
X150184707Y-74551493D01*
X149806352Y-74804302D01*
X149495283Y-75269849D01*
X149386050Y-75819000D01*
X149495283Y-76368151D01*
X149806352Y-76833698D01*
X150188438Y-77089000D01*
X149806352Y-77344302D01*
X149495283Y-77809849D01*
X149386050Y-78359000D01*
X149495283Y-78908151D01*
X149806352Y-79373698D01*
X149952350Y-79471251D01*
X149821683Y-79495838D01*
X149605559Y-79634910D01*
X149460569Y-79847110D01*
X149409560Y-80099000D01*
X149409560Y-81699000D01*
X149453838Y-81934317D01*
X149592910Y-82150441D01*
X149805110Y-82295431D01*
X150057000Y-82346440D01*
X152457000Y-82346440D01*
X152692317Y-82302162D01*
X152908441Y-82163090D01*
X153053431Y-81950890D01*
X153102415Y-81709000D01*
X155861000Y-81709000D01*
X156170974Y-81647342D01*
X156380351Y-81507440D01*
X157750000Y-81507440D01*
X157985317Y-81463162D01*
X158201441Y-81324090D01*
X158346431Y-81111890D01*
X158397440Y-80860000D01*
X158397440Y-79160000D01*
X158375237Y-79042000D01*
X159126456Y-79042000D01*
X159102560Y-79160000D01*
X159102560Y-80860000D01*
X159146838Y-81095317D01*
X159285910Y-81311441D01*
X159498110Y-81456431D01*
X159750000Y-81507440D01*
X161750000Y-81507440D01*
X161985317Y-81463162D01*
X162201441Y-81324090D01*
X162346431Y-81111890D01*
X162397440Y-80860000D01*
X162397440Y-80820000D01*
X163232442Y-80820000D01*
X163274838Y-81045317D01*
X163413910Y-81261441D01*
X163626110Y-81406431D01*
X163878000Y-81457440D01*
X164068000Y-81457440D01*
X164068000Y-81566000D01*
X164129658Y-81875974D01*
X164271998Y-82089000D01*
X164305244Y-82138756D01*
X165176487Y-83010000D01*
X141907000Y-83010000D01*
X141907000Y-82259597D01*
X142082101Y-82224767D01*
X142547648Y-81913698D01*
X142684423Y-81709000D01*
X145923000Y-81709000D01*
X146232974Y-81647342D01*
X146495756Y-81471756D01*
X146749756Y-81217757D01*
X146860137Y-81052560D01*
X146925342Y-80954974D01*
X146968811Y-80736440D01*
X146977000Y-80736440D01*
X147212317Y-80692162D01*
X147428441Y-80553090D01*
X147573431Y-80340890D01*
X147624440Y-80089000D01*
X147624440Y-78089000D01*
X147580162Y-77853683D01*
X147441090Y-77637559D01*
X147228890Y-77492569D01*
X146977000Y-77441560D01*
X145377000Y-77441560D01*
X145141683Y-77485838D01*
X144925559Y-77624910D01*
X144780569Y-77837110D01*
X144729560Y-78089000D01*
X144729560Y-80089000D01*
X142684423Y-80089000D01*
X142547648Y-79884302D01*
X142165562Y-79629000D01*
X142547648Y-79373698D01*
X142858717Y-78908151D01*
X142967950Y-78359000D01*
X142858717Y-77809849D01*
X142547648Y-77344302D01*
X142165562Y-77089000D01*
X142547648Y-76833698D01*
X142858717Y-76368151D01*
X142967950Y-75819000D01*
X142879584Y-75374750D01*
X144742000Y-75374750D01*
X144742000Y-76215309D01*
X144838673Y-76448698D01*
X145017301Y-76627327D01*
X145250690Y-76724000D01*
X145891250Y-76724000D01*
X146050000Y-76565250D01*
X146050000Y-75216000D01*
X146304000Y-75216000D01*
X146304000Y-76565250D01*
X146462750Y-76724000D01*
X147103310Y-76724000D01*
X147336699Y-76627327D01*
X147515327Y-76448698D01*
X147612000Y-76215309D01*
X147612000Y-75374750D01*
X147453250Y-75216000D01*
X146304000Y-75216000D01*
X146050000Y-75216000D01*
X144900750Y-75216000D01*
X144742000Y-75374750D01*
X142879584Y-75374750D01*
X142858717Y-75269849D01*
X142547648Y-74804302D01*
X142165562Y-74549000D01*
X142547648Y-74293698D01*
X142768820Y-73962691D01*
X144742000Y-73962691D01*
X144742000Y-74803250D01*
X144900750Y-74962000D01*
X146050000Y-74962000D01*
X146050000Y-73612750D01*
X146304000Y-73612750D01*
X146304000Y-74962000D01*
X147453250Y-74962000D01*
X147612000Y-74803250D01*
X147612000Y-73962691D01*
X147515327Y-73729302D01*
X147336699Y-73550673D01*
X147103310Y-73454000D01*
X146462750Y-73454000D01*
X146304000Y-73612750D01*
X146050000Y-73612750D01*
X145891250Y-73454000D01*
X145250690Y-73454000D01*
X145017301Y-73550673D01*
X144838673Y-73729302D01*
X144742000Y-73962691D01*
X142768820Y-73962691D01*
X142858717Y-73828151D01*
X142967950Y-73279000D01*
X142949004Y-73183750D01*
X155115000Y-73183750D01*
X155115000Y-73874310D01*
X155211673Y-74107699D01*
X155390302Y-74286327D01*
X155623691Y-74383000D01*
X156464250Y-74383000D01*
X156623000Y-74224250D01*
X156623000Y-73025000D01*
X156877000Y-73025000D01*
X156877000Y-74224250D01*
X157035750Y-74383000D01*
X157876309Y-74383000D01*
X158109698Y-74286327D01*
X158288327Y-74107699D01*
X158385000Y-73874310D01*
X158385000Y-73183750D01*
X158226250Y-73025000D01*
X156877000Y-73025000D01*
X156623000Y-73025000D01*
X155273750Y-73025000D01*
X155115000Y-73183750D01*
X142949004Y-73183750D01*
X142898522Y-72929961D01*
X149465096Y-72929961D01*
X149587085Y-73152000D01*
X151130000Y-73152000D01*
X151130000Y-71844000D01*
X151384000Y-71844000D01*
X151384000Y-73152000D01*
X152926915Y-73152000D01*
X153048904Y-72929961D01*
X153031367Y-72847181D01*
X152761500Y-72354104D01*
X152323483Y-72001834D01*
X152049548Y-71921690D01*
X155115000Y-71921690D01*
X155115000Y-72612250D01*
X155273750Y-72771000D01*
X156623000Y-72771000D01*
X156623000Y-71571750D01*
X156877000Y-71571750D01*
X156877000Y-72771000D01*
X158226250Y-72771000D01*
X158385000Y-72612250D01*
X158385000Y-71921690D01*
X158288327Y-71688301D01*
X158109698Y-71509673D01*
X157876309Y-71413000D01*
X157035750Y-71413000D01*
X156877000Y-71571750D01*
X156623000Y-71571750D01*
X156464250Y-71413000D01*
X155623691Y-71413000D01*
X155390302Y-71509673D01*
X155211673Y-71688301D01*
X155115000Y-71921690D01*
X152049548Y-71921690D01*
X151784000Y-71844000D01*
X151384000Y-71844000D01*
X151130000Y-71844000D01*
X150730000Y-71844000D01*
X150190517Y-72001834D01*
X149752500Y-72354104D01*
X149482633Y-72847181D01*
X149465096Y-72929961D01*
X142898522Y-72929961D01*
X142858717Y-72729849D01*
X142547648Y-72264302D01*
X142082101Y-71953233D01*
X141532950Y-71844000D01*
X140661050Y-71844000D01*
X140111899Y-71953233D01*
X139646352Y-72264302D01*
X139594436Y-72342000D01*
X137759440Y-72342000D01*
X137759440Y-72302000D01*
X137715162Y-72066683D01*
X137576090Y-71850559D01*
X137363890Y-71705569D01*
X137112000Y-71654560D01*
X135112000Y-71654560D01*
X134876683Y-71698838D01*
X134660559Y-71837910D01*
X134515569Y-72050110D01*
X134464560Y-72302000D01*
X134464560Y-74002000D01*
X134508838Y-74237317D01*
X134647910Y-74453441D01*
X134860110Y-74598431D01*
X135112000Y-74649440D01*
X137112000Y-74649440D01*
X137347317Y-74605162D01*
X137563441Y-74466090D01*
X137708431Y-74253890D01*
X137759440Y-74002000D01*
X137759440Y-73962000D01*
X138760488Y-73962000D01*
X138365244Y-74357244D01*
X138341082Y-74393405D01*
X137840488Y-74894000D01*
X130141513Y-74894000D01*
X128615440Y-73367928D01*
X128615440Y-72556000D01*
X128571162Y-72320683D01*
X128559140Y-72302000D01*
X130464560Y-72302000D01*
X130464560Y-74002000D01*
X130508838Y-74237317D01*
X130647910Y-74453441D01*
X130860110Y-74598431D01*
X131112000Y-74649440D01*
X133112000Y-74649440D01*
X133347317Y-74605162D01*
X133563441Y-74466090D01*
X133708431Y-74253890D01*
X133759440Y-74002000D01*
X133759440Y-72302000D01*
X133715162Y-72066683D01*
X133576090Y-71850559D01*
X133363890Y-71705569D01*
X133112000Y-71654560D01*
X132997000Y-71654560D01*
X132997000Y-70989000D01*
X170687995Y-70989000D01*
X170688000Y-70989001D01*
X170970484Y-70932810D01*
X171026675Y-70921633D01*
X171313790Y-70729790D01*
X171313791Y-70729789D01*
X172329787Y-69713792D01*
X172329790Y-69713790D01*
X172521633Y-69426675D01*
X172549542Y-69286367D01*
X172589001Y-69088000D01*
X172589000Y-69087995D01*
X172589000Y-68878865D01*
X181325782Y-68878865D01*
X181356095Y-69004528D01*
X181667149Y-69559246D01*
X182166807Y-69952703D01*
X182779000Y-70125000D01*
X183769000Y-70125000D01*
X183769000Y-68627000D01*
X184023000Y-68627000D01*
X184023000Y-70125000D01*
X185013000Y-70125000D01*
X185625193Y-69952703D01*
X186124851Y-69559246D01*
X186435905Y-69004528D01*
X186466218Y-68878865D01*
X186346740Y-68627000D01*
X184023000Y-68627000D01*
X183769000Y-68627000D01*
X181445260Y-68627000D01*
X181325782Y-68878865D01*
X172589000Y-68878865D01*
X172589000Y-68121135D01*
X181325782Y-68121135D01*
X181445260Y-68373000D01*
X183769000Y-68373000D01*
X183769000Y-66875000D01*
X184023000Y-66875000D01*
X184023000Y-68373000D01*
X186346740Y-68373000D01*
X186466218Y-68121135D01*
X186435905Y-67995472D01*
X186124851Y-67440754D01*
X185625193Y-67047297D01*
X185013000Y-66875000D01*
X184023000Y-66875000D01*
X183769000Y-66875000D01*
X182779000Y-66875000D01*
X182166807Y-67047297D01*
X181667149Y-67440754D01*
X181356095Y-67995472D01*
X181325782Y-68121135D01*
X172589000Y-68121135D01*
X172589000Y-66167000D01*
X188468000Y-66167000D01*
X188514159Y-66158315D01*
X188556553Y-66131035D01*
X188584994Y-66089410D01*
X188595000Y-66040000D01*
X188595000Y-59182000D01*
X188586315Y-59135841D01*
X188559035Y-59093447D01*
X188517410Y-59065006D01*
X188468000Y-59055000D01*
X179959000Y-59055000D01*
X179959000Y-50764336D01*
X186844527Y-50764336D01*
X187206866Y-51641263D01*
X187877208Y-52312776D01*
X188753501Y-52676645D01*
X189702336Y-52677473D01*
X190579263Y-52315134D01*
X191250776Y-51644792D01*
X191614645Y-50768499D01*
X191615473Y-49819664D01*
X191253134Y-48942737D01*
X190582792Y-48271224D01*
X189706499Y-47907355D01*
X188757664Y-47906527D01*
X187880737Y-48268866D01*
X187209224Y-48939208D01*
X186845355Y-49815501D01*
X186844527Y-50764336D01*
X179959000Y-50764336D01*
X179959000Y-49022000D01*
X179950315Y-48975841D01*
X179923035Y-48933447D01*
X179881410Y-48905006D01*
X179832000Y-48895000D01*
X170180000Y-48895000D01*
X170133841Y-48903685D01*
X170091447Y-48930965D01*
X170063006Y-48972590D01*
X170053000Y-49022000D01*
X170053000Y-66040000D01*
X170061685Y-66086159D01*
X170088965Y-66128553D01*
X170130590Y-66156994D01*
X170180000Y-66167000D01*
X170819000Y-66167000D01*
X170819000Y-68721421D01*
X170321420Y-69219000D01*
X132588005Y-69219000D01*
X132588000Y-69218999D01*
X132305516Y-69275190D01*
X132249325Y-69286367D01*
X131962210Y-69478210D01*
X131962208Y-69478213D01*
X131486210Y-69954210D01*
X131294367Y-70241325D01*
X131294367Y-70241326D01*
X131226999Y-70580000D01*
X131227000Y-70580005D01*
X131227000Y-71654560D01*
X131112000Y-71654560D01*
X130876683Y-71698838D01*
X130660559Y-71837910D01*
X130515569Y-72050110D01*
X130464560Y-72302000D01*
X128559140Y-72302000D01*
X128432090Y-72104559D01*
X128219890Y-71959569D01*
X127968000Y-71908560D01*
X125968000Y-71908560D01*
X125732683Y-71952838D01*
X125516559Y-72091910D01*
X125371569Y-72304110D01*
X125320560Y-72556000D01*
X125320560Y-74256000D01*
X125364838Y-74491317D01*
X125503910Y-74707441D01*
X125716110Y-74852431D01*
X125968000Y-74903440D01*
X126754038Y-74903440D01*
X126968000Y-74946000D01*
X127181962Y-74903440D01*
X127859928Y-74903440D01*
X127913048Y-74956560D01*
X125968000Y-74956560D01*
X125732683Y-75000838D01*
X125516559Y-75139910D01*
X125371569Y-75352110D01*
X125320560Y-75604000D01*
X125320560Y-77304000D01*
X125364838Y-77539317D01*
X125503910Y-77755441D01*
X125716110Y-77900431D01*
X125968000Y-77951440D01*
X127968000Y-77951440D01*
X128203317Y-77907162D01*
X128419441Y-77768090D01*
X128564431Y-77555890D01*
X128615440Y-77304000D01*
X128615440Y-77264000D01*
X132252488Y-77264000D01*
X132318000Y-77329513D01*
X132318000Y-81052560D01*
X132128000Y-81052560D01*
X131892683Y-81096838D01*
X131676559Y-81235910D01*
X131531569Y-81448110D01*
X131480560Y-81700000D01*
X131480560Y-83400000D01*
X131505021Y-83530000D01*
X129859114Y-83530000D01*
X129885440Y-83400000D01*
X129885440Y-81700000D01*
X129841162Y-81464683D01*
X129702090Y-81248559D01*
X129489890Y-81103569D01*
X129238000Y-81052560D01*
X127238000Y-81052560D01*
X127048000Y-81088311D01*
X127048000Y-79502000D01*
X126986342Y-79192026D01*
X126898549Y-79060635D01*
X126810756Y-78929243D01*
X126302756Y-78421244D01*
X126302755Y-78421243D01*
X126039974Y-78245658D01*
X125730000Y-78184000D01*
X116921513Y-78184000D01*
X116633100Y-77895588D01*
X116837317Y-77857162D01*
X117053441Y-77718090D01*
X117198431Y-77505890D01*
X117249440Y-77254000D01*
X117249440Y-76739750D01*
X117967000Y-76739750D01*
X117967000Y-77380310D01*
X118063673Y-77613699D01*
X118242302Y-77792327D01*
X118475691Y-77889000D01*
X119316250Y-77889000D01*
X119475000Y-77730250D01*
X119475000Y-76581000D01*
X119729000Y-76581000D01*
X119729000Y-77730250D01*
X119887750Y-77889000D01*
X120728309Y-77889000D01*
X120961698Y-77792327D01*
X121140327Y-77613699D01*
X121237000Y-77380310D01*
X121237000Y-76739750D01*
X121333000Y-76739750D01*
X121333000Y-77430310D01*
X121429673Y-77663699D01*
X121608302Y-77842327D01*
X121841691Y-77939000D01*
X122682250Y-77939000D01*
X122841000Y-77780250D01*
X122841000Y-76581000D01*
X123095000Y-76581000D01*
X123095000Y-77780250D01*
X123253750Y-77939000D01*
X124094309Y-77939000D01*
X124327698Y-77842327D01*
X124506327Y-77663699D01*
X124603000Y-77430310D01*
X124603000Y-76739750D01*
X124444250Y-76581000D01*
X123095000Y-76581000D01*
X122841000Y-76581000D01*
X121491750Y-76581000D01*
X121333000Y-76739750D01*
X121237000Y-76739750D01*
X121078250Y-76581000D01*
X119729000Y-76581000D01*
X119475000Y-76581000D01*
X118125750Y-76581000D01*
X117967000Y-76739750D01*
X117249440Y-76739750D01*
X117249440Y-75654000D01*
X117225674Y-75527690D01*
X117967000Y-75527690D01*
X117967000Y-76168250D01*
X118125750Y-76327000D01*
X119475000Y-76327000D01*
X119475000Y-75177750D01*
X119729000Y-75177750D01*
X119729000Y-76327000D01*
X121078250Y-76327000D01*
X121237000Y-76168250D01*
X121237000Y-75527690D01*
X121216290Y-75477690D01*
X121333000Y-75477690D01*
X121333000Y-76168250D01*
X121491750Y-76327000D01*
X122841000Y-76327000D01*
X122841000Y-75127750D01*
X123095000Y-75127750D01*
X123095000Y-76327000D01*
X124444250Y-76327000D01*
X124603000Y-76168250D01*
X124603000Y-75477690D01*
X124506327Y-75244301D01*
X124327698Y-75065673D01*
X124094309Y-74969000D01*
X123253750Y-74969000D01*
X123095000Y-75127750D01*
X122841000Y-75127750D01*
X122682250Y-74969000D01*
X121841691Y-74969000D01*
X121608302Y-75065673D01*
X121429673Y-75244301D01*
X121333000Y-75477690D01*
X121216290Y-75477690D01*
X121140327Y-75294301D01*
X120961698Y-75115673D01*
X120728309Y-75019000D01*
X119887750Y-75019000D01*
X119729000Y-75177750D01*
X119475000Y-75177750D01*
X119316250Y-75019000D01*
X118475691Y-75019000D01*
X118242302Y-75115673D01*
X118063673Y-75294301D01*
X117967000Y-75527690D01*
X117225674Y-75527690D01*
X117205162Y-75418683D01*
X117066090Y-75202559D01*
X116853890Y-75057569D01*
X116602000Y-75006560D01*
X116412000Y-75006560D01*
X116412000Y-74903440D01*
X116602000Y-74903440D01*
X116837317Y-74859162D01*
X117053441Y-74720090D01*
X117198431Y-74507890D01*
X117249440Y-74256000D01*
X117249440Y-72556000D01*
X117205162Y-72320683D01*
X117066090Y-72104559D01*
X116853890Y-71959569D01*
X116602000Y-71908560D01*
X114602000Y-71908560D01*
X114366683Y-71952838D01*
X114150559Y-72091910D01*
X114005569Y-72304110D01*
X113954560Y-72556000D01*
X110551055Y-72556000D01*
X110163950Y-72479000D01*
X109292050Y-72479000D01*
X108742899Y-72588233D01*
X108277352Y-72899302D01*
X108140577Y-73104000D01*
X104902000Y-73104000D01*
X104592026Y-73165658D01*
X104528696Y-73207974D01*
X104329243Y-73341244D01*
X104101927Y-73568560D01*
X103594000Y-73568560D01*
X103358683Y-73612838D01*
X103142559Y-73751910D01*
X102997569Y-73964110D01*
X102946560Y-74216000D01*
X102946560Y-76216000D01*
X102987423Y-76433167D01*
X102814027Y-76467657D01*
X102551244Y-76643243D01*
X101097370Y-78097118D01*
X101018648Y-77979302D01*
X100636562Y-77724000D01*
X101018648Y-77468698D01*
X101329717Y-77003151D01*
X101438950Y-76454000D01*
X101329717Y-75904849D01*
X101018648Y-75439302D01*
X100872650Y-75341749D01*
X101003317Y-75317162D01*
X101219441Y-75178090D01*
X101364431Y-74965890D01*
X101415440Y-74714000D01*
X101415440Y-73114000D01*
X101371162Y-72878683D01*
X101232090Y-72662559D01*
X101019890Y-72517569D01*
X100768000Y-72466560D01*
X100378000Y-72466560D01*
X100378000Y-71963512D01*
X100919513Y-71422000D01*
X101467608Y-71422000D01*
X101830436Y-71785461D01*
X102339298Y-71996759D01*
X102890285Y-71997240D01*
X103399515Y-71786831D01*
X103789461Y-71397564D01*
X104000759Y-70888702D01*
X104000761Y-70886285D01*
X111644760Y-70886285D01*
X111855169Y-71395515D01*
X112244436Y-71785461D01*
X112753298Y-71996759D01*
X113304285Y-71997240D01*
X113813515Y-71786831D01*
X114178982Y-71422000D01*
X118218488Y-71422000D01*
X118705047Y-71908560D01*
X118602000Y-71908560D01*
X118366683Y-71952838D01*
X118150559Y-72091910D01*
X118005569Y-72304110D01*
X117954560Y-72556000D01*
X117954560Y-74256000D01*
X117998838Y-74491317D01*
X118137910Y-74707441D01*
X118350110Y-74852431D01*
X118602000Y-74903440D01*
X120602000Y-74903440D01*
X120837317Y-74859162D01*
X121053441Y-74720090D01*
X121198431Y-74507890D01*
X121249440Y-74256000D01*
X121249440Y-74216000D01*
X121320560Y-74216000D01*
X121320560Y-74256000D01*
X121364838Y-74491317D01*
X121503910Y-74707441D01*
X121716110Y-74852431D01*
X121968000Y-74903440D01*
X123968000Y-74903440D01*
X124203317Y-74859162D01*
X124419441Y-74720090D01*
X124564431Y-74507890D01*
X124615440Y-74256000D01*
X124615440Y-72556000D01*
X124571162Y-72320683D01*
X124432090Y-72104559D01*
X124219890Y-71959569D01*
X123968000Y-71908560D01*
X121968000Y-71908560D01*
X121732683Y-71952838D01*
X121516559Y-72091910D01*
X121371569Y-72304110D01*
X121320560Y-72556000D01*
X121320560Y-72596000D01*
X121249440Y-72596000D01*
X121249440Y-72556000D01*
X121205162Y-72320683D01*
X121066090Y-72104559D01*
X120853890Y-71959569D01*
X120602000Y-71908560D01*
X120412000Y-71908560D01*
X120412000Y-71660000D01*
X120370540Y-71451569D01*
X120350343Y-71350027D01*
X120174757Y-71087244D01*
X119126756Y-70039244D01*
X118999494Y-69954210D01*
X118863974Y-69863658D01*
X118554000Y-69802000D01*
X114178392Y-69802000D01*
X113815564Y-69438539D01*
X113306702Y-69227241D01*
X112755715Y-69226760D01*
X112246485Y-69437169D01*
X111856539Y-69826436D01*
X111645241Y-70335298D01*
X111644760Y-70886285D01*
X104000761Y-70886285D01*
X104001240Y-70337715D01*
X103790831Y-69828485D01*
X103401564Y-69438539D01*
X102892702Y-69227241D01*
X102341715Y-69226760D01*
X101832485Y-69437169D01*
X101467018Y-69802000D01*
X100584000Y-69802000D01*
X100274026Y-69863658D01*
X100168771Y-69933988D01*
X100011244Y-70039243D01*
X98995244Y-71055244D01*
X98819658Y-71318026D01*
X98758000Y-71628000D01*
X98758000Y-72466560D01*
X98368000Y-72466560D01*
X98132683Y-72510838D01*
X97916559Y-72649910D01*
X97771569Y-72862110D01*
X97720560Y-73114000D01*
X97720560Y-74714000D01*
X97764838Y-74949317D01*
X97903910Y-75165441D01*
X98116110Y-75310431D01*
X98265074Y-75340597D01*
X98117352Y-75439302D01*
X97806283Y-75904849D01*
X97697050Y-76454000D01*
X97806283Y-77003151D01*
X98117352Y-77468698D01*
X98499438Y-77724000D01*
X98117352Y-77979302D01*
X97806283Y-78444849D01*
X97697050Y-78994000D01*
X97806283Y-79543151D01*
X98117352Y-80008698D01*
X98495707Y-80261507D01*
X98063500Y-80609104D01*
X97793633Y-81102181D01*
X97776096Y-81184961D01*
X97898085Y-81407000D01*
X99441000Y-81407000D01*
X99441000Y-81387000D01*
X99695000Y-81387000D01*
X99695000Y-81407000D01*
X101237915Y-81407000D01*
X101359904Y-81184961D01*
X101342367Y-81102181D01*
X101072500Y-80609104D01*
X100640293Y-80261507D01*
X101018648Y-80008698D01*
X101155423Y-79804000D01*
X101346000Y-79804000D01*
X101655974Y-79742342D01*
X101918756Y-79566756D01*
X101983762Y-79501750D01*
X102959000Y-79501750D01*
X102959000Y-80342309D01*
X103055673Y-80575698D01*
X103234301Y-80754327D01*
X103467690Y-80851000D01*
X104108250Y-80851000D01*
X104267000Y-80692250D01*
X104267000Y-79343000D01*
X104521000Y-79343000D01*
X104521000Y-80692250D01*
X104679750Y-80851000D01*
X105320310Y-80851000D01*
X105553699Y-80754327D01*
X105732327Y-80575698D01*
X105829000Y-80342309D01*
X105829000Y-79501750D01*
X105670250Y-79343000D01*
X104521000Y-79343000D01*
X104267000Y-79343000D01*
X103117750Y-79343000D01*
X102959000Y-79501750D01*
X101983762Y-79501750D01*
X102959000Y-78526513D01*
X102959000Y-78930250D01*
X103117750Y-79089000D01*
X104267000Y-79089000D01*
X104267000Y-79069000D01*
X104521000Y-79069000D01*
X104521000Y-79089000D01*
X105670250Y-79089000D01*
X105829000Y-78930250D01*
X105829000Y-78089691D01*
X105802618Y-78026000D01*
X106156000Y-78026000D01*
X106156000Y-83592560D01*
X105966000Y-83592560D01*
X105730683Y-83636838D01*
X105514559Y-83775910D01*
X105369569Y-83988110D01*
X105318560Y-84240000D01*
X105318560Y-84280000D01*
X104739440Y-84280000D01*
X104739440Y-84240000D01*
X104695162Y-84004683D01*
X104556090Y-83788559D01*
X104343890Y-83643569D01*
X104092000Y-83592560D01*
X102092000Y-83592560D01*
X101856683Y-83636838D01*
X101640559Y-83775910D01*
X101495569Y-83988110D01*
X101444560Y-84240000D01*
X101444560Y-85940000D01*
X101488838Y-86175317D01*
X101627910Y-86391441D01*
X101840110Y-86536431D01*
X101986126Y-86566000D01*
X100240037Y-86566000D01*
X100451698Y-86478327D01*
X100630327Y-86299699D01*
X100727000Y-86066310D01*
X100727000Y-85375750D01*
X100568250Y-85217000D01*
X99219000Y-85217000D01*
X99219000Y-86416250D01*
X99377750Y-86575000D01*
X100030754Y-86575000D01*
X99766026Y-86627658D01*
X99634635Y-86715451D01*
X99503243Y-86803244D01*
X98995244Y-87311244D01*
X98819658Y-87574026D01*
X98758000Y-87884000D01*
X98758000Y-88422454D01*
X98517946Y-88582853D01*
X98488597Y-88626777D01*
X98416327Y-88452302D01*
X98237699Y-88273673D01*
X98004310Y-88177000D01*
X97313750Y-88177000D01*
X97155000Y-88335750D01*
X97155000Y-89535000D01*
X97175000Y-89535000D01*
X97175000Y-89789000D01*
X97155000Y-89789000D01*
X97155000Y-90988250D01*
X97313750Y-91147000D01*
X98004310Y-91147000D01*
X98237699Y-91050327D01*
X98416327Y-90871698D01*
X98488597Y-90697223D01*
X98517946Y-90741147D01*
X98999715Y-91063054D01*
X99393962Y-91141475D01*
X99996000Y-91743513D01*
X99996000Y-92278560D01*
X99806000Y-92278560D01*
X99570683Y-92322838D01*
X99354559Y-92461910D01*
X99209569Y-92674110D01*
X99158560Y-92926000D01*
X99158560Y-94526000D01*
X99202838Y-94761317D01*
X99341910Y-94977441D01*
X99554110Y-95122431D01*
X99806000Y-95173440D01*
X99996000Y-95173440D01*
X99996000Y-95708487D01*
X99740488Y-95964000D01*
X94569513Y-95964000D01*
X94282000Y-95676488D01*
X94282000Y-94011750D01*
X95171000Y-94011750D01*
X95171000Y-94652310D01*
X95267673Y-94885699D01*
X95446302Y-95064327D01*
X95679691Y-95161000D01*
X96520250Y-95161000D01*
X96679000Y-95002250D01*
X96679000Y-93853000D01*
X96933000Y-93853000D01*
X96933000Y-95002250D01*
X97091750Y-95161000D01*
X97932309Y-95161000D01*
X98165698Y-95064327D01*
X98344327Y-94885699D01*
X98441000Y-94652310D01*
X98441000Y-94011750D01*
X98282250Y-93853000D01*
X96933000Y-93853000D01*
X96679000Y-93853000D01*
X95329750Y-93853000D01*
X95171000Y-94011750D01*
X94282000Y-94011750D01*
X94282000Y-92799690D01*
X95171000Y-92799690D01*
X95171000Y-93440250D01*
X95329750Y-93599000D01*
X96679000Y-93599000D01*
X96679000Y-92449750D01*
X96933000Y-92449750D01*
X96933000Y-93599000D01*
X98282250Y-93599000D01*
X98441000Y-93440250D01*
X98441000Y-92799690D01*
X98344327Y-92566301D01*
X98165698Y-92387673D01*
X97932309Y-92291000D01*
X97091750Y-92291000D01*
X96933000Y-92449750D01*
X96679000Y-92449750D01*
X96520250Y-92291000D01*
X95679691Y-92291000D01*
X95446302Y-92387673D01*
X95267673Y-92566301D01*
X95171000Y-92799690D01*
X94282000Y-92799690D01*
X94282000Y-89947750D01*
X95543000Y-89947750D01*
X95543000Y-90638309D01*
X95639673Y-90871698D01*
X95818301Y-91050327D01*
X96051690Y-91147000D01*
X96742250Y-91147000D01*
X96901000Y-90988250D01*
X96901000Y-89789000D01*
X95701750Y-89789000D01*
X95543000Y-89947750D01*
X94282000Y-89947750D01*
X94282000Y-88685691D01*
X95543000Y-88685691D01*
X95543000Y-89376250D01*
X95701750Y-89535000D01*
X96901000Y-89535000D01*
X96901000Y-88335750D01*
X96742250Y-88177000D01*
X96051690Y-88177000D01*
X95818301Y-88273673D01*
X95639673Y-88452302D01*
X95543000Y-88685691D01*
X94282000Y-88685691D01*
X94282000Y-85375750D01*
X97457000Y-85375750D01*
X97457000Y-86066310D01*
X97553673Y-86299699D01*
X97732302Y-86478327D01*
X97965691Y-86575000D01*
X98806250Y-86575000D01*
X98965000Y-86416250D01*
X98965000Y-85217000D01*
X97615750Y-85217000D01*
X97457000Y-85375750D01*
X94282000Y-85375750D01*
X94282000Y-84113690D01*
X97457000Y-84113690D01*
X97457000Y-84804250D01*
X97615750Y-84963000D01*
X98965000Y-84963000D01*
X98965000Y-83763750D01*
X99219000Y-83763750D01*
X99219000Y-84963000D01*
X100568250Y-84963000D01*
X100727000Y-84804250D01*
X100727000Y-84113690D01*
X100630327Y-83880301D01*
X100451698Y-83701673D01*
X100218309Y-83605000D01*
X99377750Y-83605000D01*
X99219000Y-83763750D01*
X98965000Y-83763750D01*
X98806250Y-83605000D01*
X97965691Y-83605000D01*
X97732302Y-83701673D01*
X97553673Y-83880301D01*
X97457000Y-84113690D01*
X94282000Y-84113690D01*
X94282000Y-81883039D01*
X97776096Y-81883039D01*
X97793633Y-81965819D01*
X98063500Y-82458896D01*
X98501517Y-82811166D01*
X99041000Y-82969000D01*
X99441000Y-82969000D01*
X99441000Y-81661000D01*
X99695000Y-81661000D01*
X99695000Y-82969000D01*
X100095000Y-82969000D01*
X100634483Y-82811166D01*
X101072500Y-82458896D01*
X101342367Y-81965819D01*
X101359904Y-81883039D01*
X101237915Y-81661000D01*
X99695000Y-81661000D01*
X99441000Y-81661000D01*
X97898085Y-81661000D01*
X97776096Y-81883039D01*
X94282000Y-81883039D01*
X94282000Y-60279512D01*
X100332512Y-54229000D01*
X106913000Y-54229000D01*
X106913000Y-55219000D01*
X107085297Y-55831193D01*
X107478754Y-56330851D01*
X108033472Y-56641905D01*
X108159135Y-56672218D01*
X108411000Y-56552740D01*
X108411000Y-54229000D01*
X108665000Y-54229000D01*
X108665000Y-56552740D01*
X108916865Y-56672218D01*
X109042528Y-56641905D01*
X109597246Y-56330851D01*
X109990703Y-55831193D01*
X110163000Y-55219000D01*
X110163000Y-54229000D01*
X108665000Y-54229000D01*
X108411000Y-54229000D01*
X106913000Y-54229000D01*
X100332512Y-54229000D01*
X101576512Y-52985000D01*
X106913000Y-52985000D01*
X106913000Y-53975000D01*
X108411000Y-53975000D01*
X108411000Y-51651260D01*
X108665000Y-51651260D01*
X108665000Y-53975000D01*
X110163000Y-53975000D01*
X110163000Y-52985000D01*
X109990703Y-52372807D01*
X109597246Y-51873149D01*
X109042528Y-51562095D01*
X108916865Y-51531782D01*
X108665000Y-51651260D01*
X108411000Y-51651260D01*
X108159135Y-51531782D01*
X108033472Y-51562095D01*
X107478754Y-51873149D01*
X107085297Y-52372807D01*
X106913000Y-52985000D01*
X101576512Y-52985000D01*
X104221513Y-50340000D01*
X111678488Y-50340000D01*
X112728000Y-51389513D01*
X112728000Y-51474560D01*
X112548000Y-51474560D01*
X112312683Y-51518838D01*
X112096559Y-51657910D01*
X111951569Y-51870110D01*
X111900560Y-52122000D01*
X111900560Y-56082000D01*
X111944838Y-56317317D01*
X112083910Y-56533441D01*
X112296110Y-56678431D01*
X112548000Y-56729440D01*
X112728000Y-56729440D01*
X112728000Y-62484000D01*
X112789658Y-62793974D01*
X112965244Y-63056756D01*
X114997244Y-65088757D01*
X115070104Y-65137440D01*
X115260026Y-65264342D01*
X115570000Y-65326000D01*
X117156494Y-65326000D01*
X116779715Y-65400946D01*
X116297946Y-65722853D01*
X116078000Y-66052026D01*
X115858054Y-65722853D01*
X115376285Y-65400946D01*
X114808000Y-65287907D01*
X114239715Y-65400946D01*
X113757946Y-65722853D01*
X113538000Y-66052026D01*
X113318054Y-65722853D01*
X112836285Y-65400946D01*
X112268000Y-65287907D01*
X111699715Y-65400946D01*
X111217946Y-65722853D01*
X110998000Y-66052026D01*
X110778054Y-65722853D01*
X110296285Y-65400946D01*
X109728000Y-65287907D01*
X109159715Y-65400946D01*
X108677946Y-65722853D01*
X108458000Y-66052026D01*
X108238054Y-65722853D01*
X107756285Y-65400946D01*
X107188000Y-65287907D01*
X106619715Y-65400946D01*
X106137946Y-65722853D01*
X105918000Y-66052026D01*
X105698054Y-65722853D01*
X105216285Y-65400946D01*
X104648000Y-65287907D01*
X104079715Y-65400946D01*
X103597946Y-65722853D01*
X103378000Y-66052026D01*
X103158054Y-65722853D01*
X102676285Y-65400946D01*
X102108000Y-65287907D01*
X101539715Y-65400946D01*
X101057946Y-65722853D01*
X100838000Y-66052026D01*
X100618054Y-65722853D01*
X100136285Y-65400946D01*
X99568000Y-65287907D01*
X98999715Y-65400946D01*
X98517946Y-65722853D01*
X98490150Y-65764452D01*
X98481162Y-65716683D01*
X98342090Y-65500559D01*
X98129890Y-65355569D01*
X97878000Y-65304560D01*
X96178000Y-65304560D01*
X95942683Y-65348838D01*
X95726559Y-65487910D01*
X95581569Y-65700110D01*
X95530560Y-65952000D01*
X95530560Y-67652000D01*
X95574838Y-67887317D01*
X95713910Y-68103441D01*
X95926110Y-68248431D01*
X96178000Y-68299440D01*
X97878000Y-68299440D01*
X98113317Y-68255162D01*
X98329441Y-68116090D01*
X98474431Y-67903890D01*
X98488086Y-67836459D01*
X98517946Y-67881147D01*
X98999715Y-68203054D01*
X99568000Y-68316093D01*
X100136285Y-68203054D01*
X100618054Y-67881147D01*
X100838000Y-67551974D01*
X101057946Y-67881147D01*
X101539715Y-68203054D01*
X102108000Y-68316093D01*
X102676285Y-68203054D01*
X103158054Y-67881147D01*
X103378000Y-67551974D01*
X103597946Y-67881147D01*
X104079715Y-68203054D01*
X104648000Y-68316093D01*
X105216285Y-68203054D01*
X105698054Y-67881147D01*
X105918000Y-67551974D01*
X106137946Y-67881147D01*
X106619715Y-68203054D01*
X107188000Y-68316093D01*
X107756285Y-68203054D01*
X108238054Y-67881147D01*
X108458000Y-67551974D01*
X108677946Y-67881147D01*
X109159715Y-68203054D01*
X109728000Y-68316093D01*
X110296285Y-68203054D01*
X110778054Y-67881147D01*
X110998000Y-67551974D01*
X111217946Y-67881147D01*
X111699715Y-68203054D01*
X112268000Y-68316093D01*
X112836285Y-68203054D01*
X113318054Y-67881147D01*
X113538000Y-67551974D01*
X113757946Y-67881147D01*
X114239715Y-68203054D01*
X114808000Y-68316093D01*
X115376285Y-68203054D01*
X115858054Y-67881147D01*
X116078000Y-67551974D01*
X116297946Y-67881147D01*
X116779715Y-68203054D01*
X117348000Y-68316093D01*
X117916285Y-68203054D01*
X118398054Y-67881147D01*
X118618000Y-67551974D01*
X118837946Y-67881147D01*
X119319715Y-68203054D01*
X119888000Y-68316093D01*
X120456285Y-68203054D01*
X120938054Y-67881147D01*
X121158000Y-67551974D01*
X121377946Y-67881147D01*
X121859715Y-68203054D01*
X122428000Y-68316093D01*
X122996285Y-68203054D01*
X123478054Y-67881147D01*
X123698000Y-67551974D01*
X123917946Y-67881147D01*
X124399715Y-68203054D01*
X124968000Y-68316093D01*
X125536285Y-68203054D01*
X126018054Y-67881147D01*
X126238000Y-67551974D01*
X126457946Y-67881147D01*
X126939715Y-68203054D01*
X127508000Y-68316093D01*
X128076285Y-68203054D01*
X128558054Y-67881147D01*
X128778000Y-67551974D01*
X128997946Y-67881147D01*
X129479715Y-68203054D01*
X130048000Y-68316093D01*
X130616285Y-68203054D01*
X131098054Y-67881147D01*
X131318000Y-67551974D01*
X131537946Y-67881147D01*
X132019715Y-68203054D01*
X132588000Y-68316093D01*
X133156285Y-68203054D01*
X133638054Y-67881147D01*
X133858000Y-67551974D01*
X134077946Y-67881147D01*
X134559715Y-68203054D01*
X135128000Y-68316093D01*
X135696285Y-68203054D01*
X136178054Y-67881147D01*
X136398000Y-67551974D01*
X136617946Y-67881147D01*
X137099715Y-68203054D01*
X137668000Y-68316093D01*
X138236285Y-68203054D01*
X138718054Y-67881147D01*
X138938000Y-67551974D01*
X139157946Y-67881147D01*
X139639715Y-68203054D01*
X140208000Y-68316093D01*
X140776285Y-68203054D01*
X141258054Y-67881147D01*
X141478000Y-67551974D01*
X141697946Y-67881147D01*
X142179715Y-68203054D01*
X142748000Y-68316093D01*
X143316285Y-68203054D01*
X143798054Y-67881147D01*
X144018000Y-67551974D01*
X144237946Y-67881147D01*
X144719715Y-68203054D01*
X145288000Y-68316093D01*
X145856285Y-68203054D01*
X146338054Y-67881147D01*
X146558000Y-67551974D01*
X146777946Y-67881147D01*
X147259715Y-68203054D01*
X147828000Y-68316093D01*
X148396285Y-68203054D01*
X148878054Y-67881147D01*
X149098000Y-67551974D01*
X149317946Y-67881147D01*
X149799715Y-68203054D01*
X150368000Y-68316093D01*
X150936285Y-68203054D01*
X151418054Y-67881147D01*
X151638000Y-67551974D01*
X151857946Y-67881147D01*
X152339715Y-68203054D01*
X152908000Y-68316093D01*
X153476285Y-68203054D01*
X153958054Y-67881147D01*
X154178000Y-67551974D01*
X154397946Y-67881147D01*
X154879715Y-68203054D01*
X155448000Y-68316093D01*
X156016285Y-68203054D01*
X156498054Y-67881147D01*
X156718000Y-67551974D01*
X156937946Y-67881147D01*
X157419715Y-68203054D01*
X157988000Y-68316093D01*
X158556285Y-68203054D01*
X159038054Y-67881147D01*
X159258000Y-67551974D01*
X159477946Y-67881147D01*
X159959715Y-68203054D01*
X160528000Y-68316093D01*
X161096285Y-68203054D01*
X161578054Y-67881147D01*
X161805702Y-67540447D01*
X161872817Y-67683358D01*
X162301076Y-68073645D01*
X162711110Y-68243476D01*
X162941000Y-68122155D01*
X162941000Y-66929000D01*
X163195000Y-66929000D01*
X163195000Y-68122155D01*
X163424890Y-68243476D01*
X163834924Y-68073645D01*
X164263183Y-67683358D01*
X164509486Y-67158892D01*
X164388819Y-66929000D01*
X163195000Y-66929000D01*
X162941000Y-66929000D01*
X162921000Y-66929000D01*
X162921000Y-66675000D01*
X162941000Y-66675000D01*
X162941000Y-65481845D01*
X163195000Y-65481845D01*
X163195000Y-66675000D01*
X164388819Y-66675000D01*
X164509486Y-66445108D01*
X164263183Y-65920642D01*
X163834924Y-65530355D01*
X163424890Y-65360524D01*
X163195000Y-65481845D01*
X162941000Y-65481845D01*
X162711110Y-65360524D01*
X162301076Y-65530355D01*
X161872817Y-65920642D01*
X161805702Y-66063553D01*
X161578054Y-65722853D01*
X161096285Y-65400946D01*
X160528000Y-65287907D01*
X159959715Y-65400946D01*
X159477946Y-65722853D01*
X159258000Y-66052026D01*
X159038054Y-65722853D01*
X158556285Y-65400946D01*
X157988000Y-65287907D01*
X157419715Y-65400946D01*
X156937946Y-65722853D01*
X156718000Y-66052026D01*
X156498054Y-65722853D01*
X156016285Y-65400946D01*
X155448000Y-65287907D01*
X154879715Y-65400946D01*
X154397946Y-65722853D01*
X154178000Y-66052026D01*
X153958054Y-65722853D01*
X153476285Y-65400946D01*
X152908000Y-65287907D01*
X152339715Y-65400946D01*
X151857946Y-65722853D01*
X151638000Y-66052026D01*
X151418054Y-65722853D01*
X150936285Y-65400946D01*
X150368000Y-65287907D01*
X149799715Y-65400946D01*
X149317946Y-65722853D01*
X149098000Y-66052026D01*
X148878054Y-65722853D01*
X148638000Y-65562454D01*
X148638000Y-60167546D01*
X148878054Y-60007147D01*
X149098000Y-59677974D01*
X149317946Y-60007147D01*
X149799715Y-60329054D01*
X150368000Y-60442093D01*
X150936285Y-60329054D01*
X151418054Y-60007147D01*
X151645702Y-59666447D01*
X151712817Y-59809358D01*
X152141076Y-60199645D01*
X152551110Y-60369476D01*
X152781000Y-60248155D01*
X152781000Y-59055000D01*
X153035000Y-59055000D01*
X153035000Y-60248155D01*
X153264890Y-60369476D01*
X153674924Y-60199645D01*
X154103183Y-59809358D01*
X154349486Y-59284892D01*
X154228819Y-59055000D01*
X153035000Y-59055000D01*
X152781000Y-59055000D01*
X152761000Y-59055000D01*
X152761000Y-58801000D01*
X152781000Y-58801000D01*
X152781000Y-57607845D01*
X153035000Y-57607845D01*
X153035000Y-58801000D01*
X154228819Y-58801000D01*
X154349486Y-58571108D01*
X154103183Y-58046642D01*
X153674924Y-57656355D01*
X153264890Y-57486524D01*
X153035000Y-57607845D01*
X152781000Y-57607845D01*
X152551110Y-57486524D01*
X152141076Y-57656355D01*
X151712817Y-58046642D01*
X151645702Y-58189553D01*
X151418054Y-57848853D01*
X151178000Y-57688454D01*
X151178000Y-57028392D01*
X151541461Y-56665564D01*
X151752759Y-56156702D01*
X151753240Y-55605715D01*
X151542831Y-55096485D01*
X151153564Y-54706539D01*
X150644702Y-54495241D01*
X150093715Y-54494760D01*
X149584485Y-54705169D01*
X149194539Y-55094436D01*
X148983241Y-55603298D01*
X148982760Y-56154285D01*
X149193169Y-56663515D01*
X149558000Y-57028982D01*
X149558000Y-57688454D01*
X149317946Y-57848853D01*
X149098000Y-58178026D01*
X148878054Y-57848853D01*
X148396285Y-57526946D01*
X147828000Y-57413907D01*
X147259715Y-57526946D01*
X146777946Y-57848853D01*
X146558000Y-58178026D01*
X146338054Y-57848853D01*
X145856285Y-57526946D01*
X145288000Y-57413907D01*
X144719715Y-57526946D01*
X144237946Y-57848853D01*
X144018000Y-58178026D01*
X143798054Y-57848853D01*
X143316285Y-57526946D01*
X142748000Y-57413907D01*
X142179715Y-57526946D01*
X141697946Y-57848853D01*
X141478000Y-58178026D01*
X141258054Y-57848853D01*
X140776285Y-57526946D01*
X140208000Y-57413907D01*
X139639715Y-57526946D01*
X139157946Y-57848853D01*
X138938000Y-58178026D01*
X138718054Y-57848853D01*
X138236285Y-57526946D01*
X137668000Y-57413907D01*
X137099715Y-57526946D01*
X136617946Y-57848853D01*
X136390298Y-58189553D01*
X136323183Y-58046642D01*
X135894924Y-57656355D01*
X135484890Y-57486524D01*
X135255000Y-57607845D01*
X135255000Y-58801000D01*
X135275000Y-58801000D01*
X135275000Y-59055000D01*
X135255000Y-59055000D01*
X135255000Y-60248155D01*
X135484890Y-60369476D01*
X135894924Y-60199645D01*
X136323183Y-59809358D01*
X136390298Y-59666447D01*
X136617946Y-60007147D01*
X136858000Y-60167546D01*
X136858000Y-65562454D01*
X136617946Y-65722853D01*
X136398000Y-66052026D01*
X136178054Y-65722853D01*
X135696285Y-65400946D01*
X135128000Y-65287907D01*
X134820571Y-65349058D01*
X133398000Y-63926488D01*
X133398000Y-60167546D01*
X133638054Y-60007147D01*
X133865702Y-59666447D01*
X133932817Y-59809358D01*
X134361076Y-60199645D01*
X134771110Y-60369476D01*
X135001000Y-60248155D01*
X135001000Y-59055000D01*
X134981000Y-59055000D01*
X134981000Y-58801000D01*
X135001000Y-58801000D01*
X135001000Y-57607845D01*
X134771110Y-57486524D01*
X134361076Y-57656355D01*
X133932817Y-58046642D01*
X133865702Y-58189553D01*
X133638054Y-57848853D01*
X133156285Y-57526946D01*
X132588000Y-57413907D01*
X132019715Y-57526946D01*
X131537946Y-57848853D01*
X131318000Y-58178026D01*
X131098054Y-57848853D01*
X130858000Y-57688454D01*
X130858000Y-53879750D01*
X162441000Y-53879750D01*
X162441000Y-57276310D01*
X162537673Y-57509699D01*
X162716302Y-57688327D01*
X162949691Y-57785000D01*
X164814250Y-57785000D01*
X164973000Y-57626250D01*
X164973000Y-53721000D01*
X165227000Y-53721000D01*
X165227000Y-57626250D01*
X165385750Y-57785000D01*
X167250309Y-57785000D01*
X167483698Y-57688327D01*
X167662327Y-57509699D01*
X167759000Y-57276310D01*
X167759000Y-53879750D01*
X167600250Y-53721000D01*
X165227000Y-53721000D01*
X164973000Y-53721000D01*
X162599750Y-53721000D01*
X162441000Y-53879750D01*
X130858000Y-53879750D01*
X130858000Y-53342087D01*
X130888086Y-53329656D01*
X131104160Y-53113958D01*
X131723647Y-53113958D01*
X131803920Y-53365259D01*
X132359279Y-53566718D01*
X132949458Y-53540315D01*
X133372080Y-53365259D01*
X133452353Y-53113958D01*
X132588000Y-52249605D01*
X131723647Y-53113958D01*
X131104160Y-53113958D01*
X131306188Y-52912283D01*
X131325951Y-52864688D01*
X131544042Y-52934353D01*
X132408395Y-52070000D01*
X132767605Y-52070000D01*
X133631958Y-52934353D01*
X133883259Y-52854080D01*
X134084718Y-52298721D01*
X134058315Y-51708542D01*
X133883259Y-51285920D01*
X133631958Y-51205647D01*
X132767605Y-52070000D01*
X132408395Y-52070000D01*
X131544042Y-51205647D01*
X131326360Y-51275181D01*
X131307656Y-51229914D01*
X131104140Y-51026042D01*
X131723647Y-51026042D01*
X132588000Y-51890395D01*
X133452353Y-51026042D01*
X133372080Y-50774741D01*
X132816721Y-50573282D01*
X132226542Y-50599685D01*
X131803920Y-50774741D01*
X131723647Y-51026042D01*
X131104140Y-51026042D01*
X130890283Y-50811812D01*
X130344681Y-50585258D01*
X129753911Y-50584743D01*
X129207914Y-50810344D01*
X128789812Y-51227717D01*
X128778252Y-51255557D01*
X128767656Y-51229914D01*
X128350283Y-50811812D01*
X127804681Y-50585258D01*
X127213911Y-50584743D01*
X126667914Y-50810344D01*
X126249812Y-51227717D01*
X126023258Y-51773319D01*
X126022743Y-52364089D01*
X126248344Y-52910086D01*
X126665717Y-53328188D01*
X126698000Y-53341593D01*
X126698000Y-54731608D01*
X126334539Y-55094436D01*
X126123241Y-55603298D01*
X126122760Y-56154285D01*
X126333169Y-56663515D01*
X126698000Y-57028982D01*
X126698000Y-57688454D01*
X126457946Y-57848853D01*
X126428597Y-57892777D01*
X126356327Y-57718302D01*
X126177699Y-57539673D01*
X125944310Y-57443000D01*
X125253750Y-57443000D01*
X125095000Y-57601750D01*
X125095000Y-58801000D01*
X125115000Y-58801000D01*
X125115000Y-59055000D01*
X125095000Y-59055000D01*
X125095000Y-60254250D01*
X125253750Y-60413000D01*
X125944310Y-60413000D01*
X126177699Y-60316327D01*
X126356327Y-60137698D01*
X126428597Y-59963223D01*
X126457946Y-60007147D01*
X126939715Y-60329054D01*
X127428000Y-60426180D01*
X127428000Y-61036560D01*
X127238000Y-61036560D01*
X127002683Y-61080838D01*
X126786559Y-61219910D01*
X126641569Y-61432110D01*
X126590560Y-61684000D01*
X126590560Y-63284000D01*
X126634838Y-63519317D01*
X126754965Y-63706000D01*
X125714026Y-63706000D01*
X125776327Y-63643699D01*
X125873000Y-63410310D01*
X125873000Y-62769750D01*
X125714250Y-62611000D01*
X124365000Y-62611000D01*
X124365000Y-62631000D01*
X124111000Y-62631000D01*
X124111000Y-62611000D01*
X122761750Y-62611000D01*
X122603000Y-62769750D01*
X122603000Y-63410310D01*
X122699673Y-63643699D01*
X122761974Y-63706000D01*
X115905513Y-63706000D01*
X114348000Y-62148488D01*
X114348000Y-61557690D01*
X122603000Y-61557690D01*
X122603000Y-62198250D01*
X122761750Y-62357000D01*
X124111000Y-62357000D01*
X124111000Y-61207750D01*
X124365000Y-61207750D01*
X124365000Y-62357000D01*
X125714250Y-62357000D01*
X125873000Y-62198250D01*
X125873000Y-61557690D01*
X125776327Y-61324301D01*
X125597698Y-61145673D01*
X125364309Y-61049000D01*
X124523750Y-61049000D01*
X124365000Y-61207750D01*
X124111000Y-61207750D01*
X123952250Y-61049000D01*
X123111691Y-61049000D01*
X122878302Y-61145673D01*
X122699673Y-61324301D01*
X122603000Y-61557690D01*
X114348000Y-61557690D01*
X114348000Y-59213750D01*
X123483000Y-59213750D01*
X123483000Y-59904309D01*
X123579673Y-60137698D01*
X123758301Y-60316327D01*
X123991690Y-60413000D01*
X124682250Y-60413000D01*
X124841000Y-60254250D01*
X124841000Y-59055000D01*
X123641750Y-59055000D01*
X123483000Y-59213750D01*
X114348000Y-59213750D01*
X114348000Y-57951691D01*
X123483000Y-57951691D01*
X123483000Y-58642250D01*
X123641750Y-58801000D01*
X124841000Y-58801000D01*
X124841000Y-57601750D01*
X124682250Y-57443000D01*
X123991690Y-57443000D01*
X123758301Y-57539673D01*
X123579673Y-57718302D01*
X123483000Y-57951691D01*
X114348000Y-57951691D01*
X114348000Y-56729440D01*
X114528000Y-56729440D01*
X114763317Y-56685162D01*
X114979441Y-56546090D01*
X115124431Y-56333890D01*
X115175440Y-56082000D01*
X115175440Y-52122000D01*
X115131162Y-51886683D01*
X114992090Y-51670559D01*
X114779890Y-51525569D01*
X114528000Y-51474560D01*
X114348000Y-51474560D01*
X114348000Y-51054000D01*
X114286342Y-50744026D01*
X114172254Y-50573282D01*
X114110756Y-50481243D01*
X113541203Y-49911690D01*
X162441000Y-49911690D01*
X162441000Y-53308250D01*
X162599750Y-53467000D01*
X164973000Y-53467000D01*
X164973000Y-49561750D01*
X165227000Y-49561750D01*
X165227000Y-53467000D01*
X167600250Y-53467000D01*
X167759000Y-53308250D01*
X167759000Y-49911690D01*
X167662327Y-49678301D01*
X167483698Y-49499673D01*
X167250309Y-49403000D01*
X165385750Y-49403000D01*
X165227000Y-49561750D01*
X164973000Y-49561750D01*
X164814250Y-49403000D01*
X162949691Y-49403000D01*
X162716302Y-49499673D01*
X162537673Y-49678301D01*
X162441000Y-49911690D01*
X113541203Y-49911690D01*
X112586756Y-48957244D01*
X112547427Y-48930965D01*
X112323974Y-48781658D01*
X112014000Y-48720000D01*
X103886000Y-48720000D01*
X103576026Y-48781658D01*
X103444635Y-48869451D01*
X103313243Y-48957244D01*
X92899244Y-59371244D01*
X92723658Y-59634026D01*
X92662000Y-59944000D01*
X90880000Y-59944000D01*
X90880000Y-51018336D01*
X91848527Y-51018336D01*
X92210866Y-51895263D01*
X92881208Y-52566776D01*
X93757501Y-52930645D01*
X94706336Y-52931473D01*
X95583263Y-52569134D01*
X96254776Y-51898792D01*
X96618645Y-51022499D01*
X96619473Y-50073664D01*
X96257134Y-49196737D01*
X95586792Y-48525224D01*
X94710499Y-48161355D01*
X93761664Y-48160527D01*
X92884737Y-48522866D01*
X92213224Y-49193208D01*
X91849355Y-50069501D01*
X91848527Y-51018336D01*
X90880000Y-51018336D01*
X90880000Y-47192000D01*
X192584000Y-47192000D01*
X192584000Y-108764000D01*
M02*
